<svg width="251" height="184" viewBox="0 0 251 184" fill="none" xmlns="http://www.w3.org/2000/svg">
<circle cx="52" cy="132" r="45" fill="white" fill-opacity="0.69"/>
<circle cx="52.5" cy="131.5" r="52.5" fill="white" fill-opacity="0.35"/>
<g clip-path="url(#clip0_28_106)">
<path d="M63.474 124.57C62.6901 124.116 61.6823 124.116 60.7865 124.57L54.5156 128.313L50.2604 130.696L44.1016 134.439C43.3177 134.893 42.3099 134.893 41.4141 134.439L36.599 131.49C35.8151 131.036 35.2552 130.128 35.2552 129.107V123.436C35.2552 122.528 35.7031 121.621 36.599 121.054L41.4141 118.218C42.1979 117.764 43.2057 117.764 44.1016 118.218L48.9167 121.167C49.7005 121.621 50.2604 122.528 50.2604 123.549V127.293L54.5156 124.797V120.94C54.5156 120.033 54.0677 119.125 53.1719 118.558L44.2135 113.227C43.4297 112.773 42.4219 112.773 41.526 113.227L32.3438 118.672C31.4479 119.125 31 120.033 31 120.94V131.603C31 132.51 31.4479 133.418 32.3438 133.985L41.4141 139.316C42.1979 139.77 43.2057 139.77 44.1016 139.316L50.2604 135.687L54.5156 133.191L60.6745 129.561C61.4583 129.107 62.4661 129.107 63.362 129.561L68.1771 132.397C68.9609 132.851 69.5208 133.758 69.5208 134.779V140.451C69.5208 141.358 69.0729 142.266 68.1771 142.833L63.474 145.669C62.6901 146.122 61.6823 146.122 60.7865 145.669L55.9714 142.833C55.1875 142.379 54.6276 141.472 54.6276 140.451V136.821L50.3724 139.316V143.06C50.3724 143.967 50.8203 144.875 51.7161 145.442L60.7865 150.773C61.5703 151.227 62.5781 151.227 63.474 150.773L72.5443 145.442C73.3281 144.988 73.888 144.081 73.888 143.06V132.284C73.888 131.376 73.4401 130.469 72.5443 129.901L63.474 124.57Z" fill="#C5DDFC"/>
</g>
<circle cx="169.143" cy="28.1429" r="23.1429" fill="white" fill-opacity="0.69"/>
<circle cx="169" cy="27" r="27" fill="white" fill-opacity="0.35"/>
<path d="M175.504 33.8773L170.092 20.7928C169.787 20.1163 169.333 19.7863 168.735 19.7863H168.257C167.659 19.7863 167.205 20.1163 166.9 20.7928L164.544 26.4935H162.762C162.23 26.4976 161.797 26.9266 161.793 27.4629V27.4753C161.797 28.0074 162.23 28.4405 162.762 28.4446H163.719L161.471 33.8773C161.43 33.9969 161.405 34.1206 161.405 34.2485C161.405 34.5538 161.5 34.793 161.669 34.9786C161.838 35.1643 162.082 35.255 162.387 35.255C162.589 35.2509 162.783 35.189 162.944 35.0694C163.117 34.9498 163.237 34.7765 163.331 34.5785L165.806 28.4405H167.522C168.055 28.4364 168.488 28.0074 168.492 27.4711V27.4464C168.488 26.9143 168.055 26.4811 167.522 26.477H166.607L168.496 21.7704L173.644 34.5744C173.739 34.7724 173.858 34.9456 174.032 35.0653C174.193 35.1849 174.391 35.2468 174.589 35.2509C174.894 35.2509 175.133 35.1601 175.306 34.9745C175.48 34.7889 175.57 34.5496 175.57 34.2444C175.574 34.1206 175.554 33.9928 175.504 33.8773Z" fill="#C5DDFC"/>
<path d="M175.504 33.8773L170.092 20.7928C169.787 20.1163 169.333 19.7863 168.735 19.7863H168.257C167.659 19.7863 167.205 20.1163 166.9 20.7928L164.544 26.4935H162.762C162.23 26.4976 161.797 26.9266 161.793 27.4629V27.4753C161.797 28.0074 162.23 28.4405 162.762 28.4446H163.719L161.471 33.8773C161.43 33.9969 161.405 34.1206 161.405 34.2485C161.405 34.5538 161.5 34.793 161.669 34.9786C161.838 35.1643 162.082 35.255 162.387 35.255C162.589 35.2509 162.783 35.189 162.944 35.0694C163.117 34.9498 163.237 34.7765 163.331 34.5785L165.806 28.4405H167.522C168.055 28.4364 168.488 28.0074 168.492 27.4711V27.4464C168.488 26.9143 168.055 26.4811 167.522 26.477H166.607L168.496 21.7704L173.644 34.5744C173.739 34.7724 173.858 34.9456 174.032 35.0653C174.193 35.1849 174.391 35.2468 174.589 35.2509C174.894 35.2509 175.133 35.1601 175.306 34.9745C175.48 34.7889 175.57 34.5496 175.57 34.2444C175.574 34.1206 175.554 33.9928 175.504 33.8773Z" fill="#C5DDFC"/>
<circle cx="213.143" cy="104.143" r="32.1429" fill="white" fill-opacity="0.69"/>
<circle cx="213.5" cy="103.5" r="37.5" fill="white" fill-opacity="0.35"/>
<path fill-rule="evenodd" clip-rule="evenodd" d="M214.5 102.307L213.9 105.507L219.6 106.307L219.2 107.807L213.6 107.007C213.2 108.307 213 109.707 212.5 110.907C212 112.307 211.5 113.707 210.9 115.007C210.1 116.707 208.7 117.907 206.8 118.207C205.7 118.407 204.5 118.307 203.6 117.607C203.3 117.407 203 117.007 203 116.707C203 116.307 203.2 115.807 203.5 115.607C203.7 115.507 204.2 115.607 204.5 115.707C204.8 116.007 205.1 116.407 205.3 116.807C205.9 117.607 206.7 117.707 207.5 117.107C208.4 116.307 208.9 115.207 209.2 114.107C209.8 111.707 210.4 109.407 210.9 107.007V106.607L205.6 105.807L205.8 104.307L211.3 105.107L212 102.007L206.3 101.107L206.5 99.5069L212.4 100.307C212.6 99.7069 212.7 99.2069 212.9 98.7069C213.4 96.9069 213.9 95.1069 215.1 93.5069C216.3 91.9069 217.7 90.9069 219.8 91.0069C220.7 91.0069 221.6 91.3069 222.2 92.0069C222.3 92.1069 222.5 92.3069 222.5 92.5069C222.5 92.9069 222.5 93.4069 222.2 93.7069C221.8 94.0069 221.3 93.9069 220.9 93.5069C220.6 93.2069 220.4 92.9069 220.1 92.6069C219.5 91.8069 218.6 91.7069 217.9 92.4069C217.4 92.9069 216.9 93.6069 216.6 94.3069C215.9 96.4069 215.4 98.6069 214.7 100.807L220.2 101.607L219.8 103.107L214.5 102.307Z" fill="#C5DDFC"/>
<defs>
<clipPath id="clip0_28_106">
<rect width="43" height="38" fill="white" transform="translate(31 113)"/>
</clipPath>
</defs>
</svg>
