<svg width="20" height="21" viewBox="0 0 20 21" fill="none" xmlns="http://www.w3.org/2000/svg">
<path fill-rule="evenodd" clip-rule="evenodd" d="M4.08296 9.4375H6.02863C6.11783 7.89111 6.41228 6.46657 6.86644 5.31978C5.41752 6.20885 4.37513 7.69598 4.08296 9.4375ZM10 2.4375C5.58172 2.4375 2 6.01922 2 10.4375C2 14.8558 5.58172 18.4375 10 18.4375C14.4183 18.4375 18 14.8558 18 10.4375C18 6.01922 14.4183 2.4375 10 2.4375ZM10 4.4375C9.92395 4.4375 9.76787 4.46923 9.5347 4.69934C9.29723 4.9337 9.03751 5.3224 8.79782 5.88167C8.40914 6.7886 8.12491 8.02309 8.03237 9.4375H11.9676C11.8751 8.02309 11.5909 6.7886 11.2022 5.88167C10.9625 5.3224 10.7028 4.9337 10.4653 4.69934C10.2321 4.46923 10.076 4.4375 10 4.4375ZM13.9714 9.4375C13.8822 7.89111 13.5877 6.46657 13.1336 5.31978C14.5825 6.20885 15.6249 7.69598 15.917 9.4375H13.9714ZM11.9676 11.4375H8.03237C8.12491 12.8519 8.40914 14.0864 8.79782 14.9933C9.03751 15.5526 9.29723 15.9413 9.5347 16.1757C9.76787 16.4058 9.92395 16.4375 10 16.4375C10.076 16.4375 10.2321 16.4058 10.4653 16.1757C10.7028 15.9413 10.9625 15.5526 11.2022 14.9933C11.5909 14.0864 11.8751 12.8519 11.9676 11.4375ZM13.1336 15.5552C13.5877 14.4084 13.8822 12.9839 13.9714 11.4375H15.917C15.6249 13.179 14.5825 14.6662 13.1336 15.5552ZM6.86644 15.5552C6.41228 14.4084 6.11783 12.9839 6.02863 11.4375H4.08296C4.37513 13.179 5.41752 14.6662 6.86644 15.5552Z" fill="#FAFAFA"/>
</svg>
