<svg width="48" height="49" viewBox="0 0 48 49" fill="none" xmlns="http://www.w3.org/2000/svg">
<line x1="13.6265" y1="41.2161" x2="34.0791" y2="41.2161" stroke="#70DFFD" stroke-width="5.63777" stroke-linecap="round"/>
<g filter="url(#filter0_b_27_14969)">
<rect y="0.5" width="48" height="48" rx="24" fill="black" fill-opacity="0.05"/>
<rect x="0.378788" y="0.878788" width="47.2424" height="47.2424" rx="23.6212" stroke="url(#paint0_linear_27_14969)" stroke-width="0.757576"/>
</g>
<path d="M7.72555 41.9346C12.1601 46.1526 18.0335 48.5021 24.138 48.5C30.2425 48.4979 36.1143 46.1442 40.5459 41.923L39.7912 41.122C35.5633 45.1492 29.9615 47.3946 24.1376 47.3967C18.3137 47.3987 12.7104 45.1572 8.47969 41.133L7.72555 41.9346Z" fill="#70DFFD"/>
<path d="M25.7271 32.75V16.5923H25.5607L18.525 19.1336V21.8192L22.6088 20.3543V32.75H25.7271Z" fill="#70DFFD"/>
<defs>
<filter id="filter0_b_27_14969" x="-22.7273" y="-22.2273" width="93.4545" height="93.4545" filterUnits="userSpaceOnUse" color-interpolation-filters="sRGB">
<feFlood flood-opacity="0" result="BackgroundImageFix"/>
<feGaussianBlur in="BackgroundImageFix" stdDeviation="11.3636"/>
<feComposite in2="SourceAlpha" operator="in" result="effect1_backgroundBlur_27_14969"/>
<feBlend mode="normal" in="SourceGraphic" in2="effect1_backgroundBlur_27_14969" result="shape"/>
</filter>
<linearGradient id="paint0_linear_27_14969" x1="24" y1="-5.11039" x2="24" y2="119.672" gradientUnits="userSpaceOnUse">
<stop stop-color="#3A3A3A"/>
<stop offset="1" stop-color="#1E1E1E" stop-opacity="0"/>
</linearGradient>
</defs>
</svg>
