<svg width="49" height="49" viewBox="0 0 49 49" fill="none" xmlns="http://www.w3.org/2000/svg">
<line x1="13.797" y1="41.2161" x2="34.2496" y2="41.2161" stroke="#70DFFD" stroke-width="5.63777" stroke-linecap="round"/>
<g filter="url(#filter0_b_27_14980)">
<rect x="0.170471" y="0.5" width="48" height="48" rx="24" fill="black" fill-opacity="0.05"/>
<rect x="0.549259" y="0.878788" width="47.2424" height="47.2424" rx="23.6212" stroke="url(#paint0_linear_27_14980)" stroke-width="0.757576"/>
</g>
<path d="M7.89602 41.9346C12.3306 46.1526 18.2039 48.5021 24.3085 48.5C30.413 48.4979 36.2847 46.1442 40.7164 41.923L39.9617 41.122C35.7338 45.1492 30.132 47.3946 24.3081 47.3967C18.4842 47.3987 12.8809 45.1572 8.65016 41.133L7.89602 41.9346Z" fill="#70DFFD"/>
<path d="M28.905 32.75V30.2753H21.8138L24.8545 27.0571C25.3797 26.517 25.8569 26.0028 26.286 25.5146C26.7151 25.0189 27.085 24.5343 27.3957 24.0608C27.6991 23.5873 27.9321 23.1101 28.0949 22.6293C28.265 22.141 28.3501 21.6305 28.3501 21.0978C28.3501 20.395 28.2391 19.7551 28.0172 19.178C27.7953 18.5935 27.4734 18.0942 27.0517 17.6799C26.6226 17.2656 26.09 16.9437 25.4537 16.7144C24.8249 16.4851 24.0998 16.3704 23.2786 16.3704C22.4205 16.3704 21.6362 16.5109 20.926 16.7921C20.2232 17.0658 19.6239 17.4431 19.1283 17.924C18.6252 18.4049 18.2368 18.9672 17.963 19.6108C17.6893 20.247 17.5524 20.924 17.5524 21.6416H20.6486C20.6486 21.2051 20.7041 20.8167 20.815 20.4764C20.926 20.1361 21.0888 19.8512 21.3033 19.6219C21.5105 19.3999 21.7694 19.2335 22.0801 19.1225C22.3983 19.0041 22.7645 18.945 23.1788 18.945C23.4969 18.945 23.7854 18.9967 24.0444 19.1003C24.3107 19.2039 24.54 19.3519 24.7324 19.5442C24.9174 19.744 25.0616 19.9844 25.1652 20.2655C25.2688 20.5467 25.3206 20.8685 25.3206 21.231C25.3206 21.4751 25.2799 21.7267 25.1985 21.9856C25.1245 22.2446 25.0024 22.522 24.8323 22.8179C24.6547 23.1212 24.4254 23.4542 24.1442 23.8167C23.8631 24.1792 23.5191 24.5824 23.1122 25.0263L17.8854 30.6415V32.75H28.905Z" fill="#70DFFD"/>
<defs>
<filter id="filter0_b_27_14980" x="-22.5568" y="-22.2273" width="93.4545" height="93.4545" filterUnits="userSpaceOnUse" color-interpolation-filters="sRGB">
<feFlood flood-opacity="0" result="BackgroundImageFix"/>
<feGaussianBlur in="BackgroundImageFix" stdDeviation="11.3636"/>
<feComposite in2="SourceAlpha" operator="in" result="effect1_backgroundBlur_27_14980"/>
<feBlend mode="normal" in="SourceGraphic" in2="effect1_backgroundBlur_27_14980" result="shape"/>
</filter>
<linearGradient id="paint0_linear_27_14980" x1="24.1705" y1="-5.11039" x2="24.1705" y2="119.672" gradientUnits="userSpaceOnUse">
<stop stop-color="#3A3A3A"/>
<stop offset="1" stop-color="#1E1E1E" stop-opacity="0"/>
</linearGradient>
</defs>
</svg>
