<svg width="49" height="49" viewBox="0 0 49 49" fill="none" xmlns="http://www.w3.org/2000/svg">
<line x1="14.2265" y1="41.2161" x2="34.6791" y2="41.2161" stroke="#70DFFD" stroke-width="5.63777" stroke-linecap="round"/>
<g filter="url(#filter0_b_27_14991)">
<rect x="0.599976" y="0.5" width="48" height="48" rx="24" fill="black" fill-opacity="0.05"/>
<rect x="0.978763" y="0.878788" width="47.2424" height="47.2424" rx="23.6212" stroke="url(#paint0_linear_27_14991)" stroke-width="0.757576"/>
</g>
<path d="M8.32552 41.9346C12.7601 46.1526 18.6335 48.5021 24.738 48.5C30.8425 48.4979 36.7142 46.1442 41.1459 41.923L40.3912 41.122C36.1633 45.1492 30.5615 47.3946 24.7376 47.3967C18.9137 47.3987 13.3104 45.1572 9.07967 41.133L8.32552 41.9346Z" fill="#70DFFD"/>
<path d="M21.8771 23.3173V25.7143H23.5528C23.9745 25.7143 24.3518 25.7624 24.6847 25.8586C25.025 25.9548 25.3173 26.1027 25.5614 26.3025C25.7981 26.5022 25.9794 26.7575 26.1052 27.0682C26.2309 27.3789 26.2938 27.7525 26.2938 28.189C26.2938 28.5367 26.2383 28.8511 26.1274 29.1323C26.0238 29.4134 25.8684 29.6502 25.6613 29.8425C25.4467 30.0571 25.1804 30.2198 24.8623 30.3308C24.5442 30.4418 24.1853 30.4972 23.7858 30.4972C23.4307 30.4972 23.1052 30.4455 22.8093 30.3419C22.5133 30.2309 22.2581 30.0792 22.0436 29.8869C21.8216 29.7019 21.6515 29.48 21.5331 29.2211C21.4147 28.9547 21.3555 28.6662 21.3555 28.3555H18.2705C18.2705 29.1397 18.4221 29.8203 18.7255 30.3974C19.0362 30.9744 19.4468 31.4516 19.9573 31.8289C20.4677 32.2136 21.0485 32.5022 21.6995 32.6945C22.358 32.8795 23.0312 32.9719 23.7193 32.9719C24.5183 32.9719 25.2618 32.8684 25.9498 32.6612C26.6452 32.4467 27.2445 32.1359 27.7476 31.729C28.2506 31.3295 28.6465 30.8339 28.935 30.242C29.2235 29.6502 29.3678 28.9769 29.3678 28.2223C29.3678 27.7932 29.316 27.3863 29.2124 27.0016C29.1088 26.6169 28.9498 26.2618 28.7352 25.9363C28.5207 25.6181 28.2469 25.3333 27.914 25.0818C27.5885 24.8302 27.2001 24.6231 26.7488 24.4603C27.1335 24.2754 27.4738 24.0571 27.7698 23.8056C28.0657 23.5466 28.3135 23.2655 28.5133 22.9622C28.713 22.6589 28.8647 22.3407 28.9683 22.0078C29.0718 21.6675 29.1236 21.3235 29.1236 20.9758C29.1236 20.2211 28.9905 19.559 28.7241 18.9893C28.4652 18.4123 28.099 17.9277 27.6255 17.5356C27.152 17.1509 26.5824 16.8624 25.9165 16.67C25.2507 16.4703 24.5183 16.3704 23.7193 16.3704C22.9794 16.3704 22.2877 16.4777 21.6441 16.6922C21.0078 16.9068 20.4529 17.2064 19.9795 17.5911C19.506 17.9832 19.1324 18.4493 18.8586 18.9893C18.5923 19.5294 18.4591 20.1287 18.4591 20.7871H21.5442C21.5442 20.4912 21.6034 20.2248 21.7217 19.9881C21.8401 19.7514 22.0029 19.5479 22.21 19.3778C22.4098 19.215 22.6428 19.0892 22.9091 19.0004C23.1829 18.9117 23.4751 18.8673 23.7858 18.8673C24.1631 18.8673 24.4924 18.9191 24.7735 19.0226C25.062 19.1262 25.2988 19.2705 25.4837 19.4554C25.6687 19.6478 25.8055 19.8771 25.8943 20.1435C25.9905 20.4024 26.0386 20.6909 26.0386 21.0091C26.0386 21.3346 25.9905 21.6379 25.8943 21.919C25.8055 22.1928 25.6687 22.4258 25.4837 22.6182C25.284 22.8401 25.0213 23.014 24.6958 23.1397C24.3777 23.2581 23.9967 23.3173 23.5528 23.3173H21.8771Z" fill="#70DFFD"/>
<defs>
<filter id="filter0_b_27_14991" x="-22.1273" y="-22.2273" width="93.4545" height="93.4545" filterUnits="userSpaceOnUse" color-interpolation-filters="sRGB">
<feFlood flood-opacity="0" result="BackgroundImageFix"/>
<feGaussianBlur in="BackgroundImageFix" stdDeviation="11.3636"/>
<feComposite in2="SourceAlpha" operator="in" result="effect1_backgroundBlur_27_14991"/>
<feBlend mode="normal" in="SourceGraphic" in2="effect1_backgroundBlur_27_14991" result="shape"/>
</filter>
<linearGradient id="paint0_linear_27_14991" x1="24.6" y1="-5.11039" x2="24.6" y2="119.672" gradientUnits="userSpaceOnUse">
<stop stop-color="#3A3A3A"/>
<stop offset="1" stop-color="#1E1E1E" stop-opacity="0"/>
</linearGradient>
</defs>
</svg>
