<svg width="17" height="16" viewBox="0 0 17 16" fill="none" xmlns="http://www.w3.org/2000/svg">
<path d="M8.69641 15.9689C8.56628 15.9895 8.43372 15.9895 8.30359 15.9689L6.22428 15.6396C6.09415 15.619 5.96807 15.578 5.85068 15.5182L3.9749 14.5624C3.85751 14.5026 3.75027 14.4247 3.6571 14.3315L2.16848 12.8429C2.07532 12.7497 1.9974 12.6425 1.93758 12.5251L0.981828 10.6493C0.922014 10.5319 0.88105 10.4059 0.860439 10.2757L0.531108 8.19641C0.510497 8.06628 0.510497 7.93372 0.531108 7.80359L0.860439 5.72428C0.881049 5.59415 0.922014 5.46807 0.981828 5.35068L1.93758 3.4749C1.9974 3.35751 2.07532 3.25027 2.16848 3.1571L3.6571 1.66848C3.75026 1.57532 3.85751 1.4974 3.9749 1.43758L5.85068 0.48183C5.96807 0.422015 6.09414 0.381051 6.22427 0.36044L8.30359 0.0311094C8.43372 0.0104987 8.56628 0.0104987 8.69641 0.0311093L10.7757 0.36044C10.9059 0.381051 11.0319 0.422015 11.1493 0.481829L13.0251 1.43758C13.1425 1.4974 13.2497 1.57532 13.3429 1.66848L14.8315 3.1571C14.9247 3.25027 15.0026 3.35751 15.0624 3.4749L16.0182 5.35068C16.078 5.46807 16.1189 5.59415 16.1396 5.72428L16.4689 7.80359C16.4895 7.93372 16.4895 8.06628 16.4689 8.19641L16.1396 10.2757C16.1189 10.4059 16.078 10.5319 16.0182 10.6493L15.0624 12.5251C15.0026 12.6425 14.9247 12.7497 14.8315 12.8429L13.3429 14.3315C13.2497 14.4247 13.1425 14.5026 13.0251 14.5624L11.1493 15.5182C11.0319 15.578 10.9059 15.619 10.7757 15.6396L8.69641 15.9689Z" fill="#F2C94C"/>
</svg>
