<svg width="75" height="66" viewBox="0 0 75 66" fill="none" xmlns="http://www.w3.org/2000/svg">
<path d="M2.61586 55.185C2.83354 59.0568 6.15885 62.2933 10.303 62.2334C18.4701 62.1154 26.6401 62.1959 34.8088 62.221C35.4811 62.2231 36.57 61.8987 36.5345 63.0473C36.5027 64.0771 35.4609 63.7683 34.8205 63.7703C26.9516 63.7956 19.0824 63.7677 11.2136 63.7993C7.57932 63.814 4.50502 62.7824 2.46692 59.5505C1.58441 58.1511 1.12077 56.6262 1.11984 54.9815C1.11131 39.8805 1.10208 24.7795 1.12354 9.67854C1.13017 5.01555 5.0756 1.02912 9.72259 1.02069C24.861 0.993203 39.9996 0.992987 55.138 1.02075C59.8646 1.02941 63.7053 4.88841 63.7725 9.59543C63.8201 12.9293 63.8307 16.2638 63.843 19.5981C63.8451 20.1538 63.874 20.871 63.095 20.8657C62.3422 20.8605 62.3289 20.1578 62.3227 19.5942C62.3056 18.0206 62.2557 16.4436 62.3362 14.8739C62.3931 13.7637 61.9681 13.4941 60.9125 13.499C52.669 13.537 44.4252 13.5199 36.1815 13.5204C25.4646 13.521 14.7477 13.5393 4.03103 13.498C2.88764 13.4936 2.58248 13.813 2.58586 14.9502C2.62568 28.3274 2.61306 41.7047 2.61586 55.185ZM49.4178 2.50533C36.4183 2.50605 23.4188 2.50531 10.4193 2.50828C5.75641 2.50935 2.6197 5.66455 2.61305 10.3496C2.61068 12.0229 2.61068 12.0252 4.22874 12.0253C23.1099 12.0269 41.9911 12.0278 60.8723 12.0284C61.1345 12.0284 61.3967 12.0249 61.6589 12.0186C62.0617 12.0088 62.257 11.8035 62.3031 11.3982C62.8412 6.6659 60.1061 3.45602 56.5879 2.71862C54.2939 2.23782 51.9575 2.60808 49.4178 2.50533Z" fill="url(#paint0_linear_57_263)" stroke="url(#paint1_linear_57_263)" stroke-width="2"/>
<path d="M70.6054 53.8367C65.7291 61.6289 58.7518 65.4078 49.6586 64.9651C39.7511 64.4829 31.1276 56.4734 29.4026 46.6294C27.5191 35.8806 33.7583 25.7028 43.3994 21.9506C55.7538 17.1426 70.1369 24.7618 72.9834 37.7222C74.224 43.371 73.4586 48.714 70.6054 53.8367ZM31.3943 48.5807C34.5718 58.8063 44.2295 64.9674 54.6769 63.2351C65.0308 61.5182 73.3335 52.1958 71.8792 40.0862C70.4642 28.3034 59.3064 20.2719 47.5719 22.3249C35.6481 24.411 28.0214 36.677 31.3943 48.5807Z" fill="url(#paint2_linear_57_263)" stroke="url(#paint3_linear_57_263)" stroke-width="2"/>
<path d="M13.3263 53.3718C17.4424 53.2348 21.4472 53.2613 25.4518 53.3782C25.8259 53.3891 26.2014 53.3866 26.5734 53.4213C26.913 53.4531 27.1131 53.6719 27.1567 54.0064C27.2081 54.4014 27.0075 54.6729 26.6422 54.7628C26.3204 54.842 25.9779 54.8645 25.6444 54.8649C20.7387 54.871 15.8329 54.8695 10.9272 54.8679C10.6655 54.8678 10.4008 54.8717 10.1427 54.8363C9.69626 54.775 9.325 54.5559 9.32568 54.0672C9.32641 53.5462 9.73131 53.3939 10.1819 53.3879C11.1928 53.3745 12.204 53.3764 13.3263 53.3718Z" fill="url(#paint4_linear_57_263)" stroke="url(#paint5_linear_57_263)" stroke-width="2"/>
<path d="M16.7038 43.8179C14.6834 43.8181 12.7754 43.8234 10.8675 43.8137C10.5345 43.812 10.1939 43.7805 9.87127 43.7026C9.50972 43.6153 9.29049 43.3458 9.31727 42.963C9.34055 42.6302 9.56482 42.4088 9.88932 42.3586C10.3304 42.2903 10.7785 42.2327 11.2237 42.2317C15.2266 42.2227 19.2296 42.227 23.2326 42.2276C23.3448 42.2276 23.4588 42.2165 23.569 42.2316C24.1641 42.3131 25.0361 42.116 25.025 43.0312C25.014 43.9362 24.1544 43.7972 23.5501 43.8038C21.3056 43.8282 19.0608 43.8161 16.7038 43.8179Z" fill="url(#paint6_linear_57_263)" stroke="url(#paint7_linear_57_263)" stroke-width="2"/>
<path d="M18.7273 32.659C15.9242 32.6626 13.2335 32.6658 10.5429 32.6697C10.0176 32.6705 9.36305 32.7466 9.33814 32.0199C9.31207 31.2595 9.98568 31.196 10.555 31.1947C15.6747 31.1836 20.7945 31.187 25.9143 31.1863C25.9516 31.1863 25.9891 31.1873 26.0263 31.1905C26.5624 31.2358 27.1672 31.2827 27.1698 31.9821C27.1725 32.7328 26.5413 32.6907 26.0141 32.6893C23.6226 32.6829 21.2311 32.6697 18.7273 32.659Z" fill="url(#paint8_linear_57_263)" stroke="url(#paint9_linear_57_263)" stroke-width="2"/>
<path d="M10.27 21.6262C9.64481 21.6042 9.24372 21.3711 9.33425 20.8171C9.43038 20.229 9.96754 20.1415 10.4735 20.1397C12.6023 20.1323 14.7311 20.1353 16.8599 20.1348C18.6526 20.1344 20.4454 20.1276 22.238 20.1382C22.812 20.1417 23.4746 20.1796 23.4477 20.9543C23.4225 21.6808 22.7687 21.6257 22.2494 21.6264C18.2906 21.6316 14.3317 21.6293 10.27 21.6262Z" fill="url(#paint10_linear_57_263)" stroke="url(#paint11_linear_57_263)" stroke-width="2"/>
<path d="M31.0949 21.6334C30.1256 21.6302 29.2683 21.6299 28.4111 21.6225C27.953 21.6185 27.5687 21.4464 27.546 20.9471C27.5237 20.4561 27.8898 20.1786 28.3344 20.1742C30.6069 20.1518 32.8799 20.1528 35.1524 20.1786C35.602 20.1837 35.9463 20.4571 35.8949 20.9713C35.8438 21.4839 35.4593 21.6203 35.0087 21.6224C33.7414 21.6282 32.4742 21.63 31.0949 21.6334Z" fill="url(#paint12_linear_57_263)" stroke="url(#paint13_linear_57_263)" stroke-width="2"/>
<path d="M47.057 8.12109C39.3464 8.12114 31.7483 8.12633 24.1501 8.11138C23.5285 8.11016 22.5802 8.37101 22.5579 7.38293C22.5346 6.34744 23.5059 6.64389 24.1111 6.64292C34.5538 6.62609 44.9966 6.62691 55.4394 6.64093C56.0589 6.64176 57.0243 6.36679 57.0419 7.3467C57.059 8.30289 56.1154 8.10836 55.4787 8.11216C52.709 8.12872 49.9392 8.12034 47.057 8.12109Z" fill="url(#paint14_linear_57_263)" stroke="url(#paint15_linear_57_263)" stroke-width="2"/>
<path d="M12.5251 4.05833C14.3719 5.02147 15.0657 6.3238 14.7386 8.09607C14.4904 9.44055 13.256 10.6349 11.9334 10.8103C10.2623 11.0318 8.79792 10.3177 8.14509 8.8332C7.59992 7.59351 7.66227 6.33411 8.53462 5.23333C9.54884 3.95353 10.8797 3.58158 12.5251 4.05833ZM13.2748 7.44892C13.3412 6.55867 12.9465 5.92648 12.1458 5.58116C11.4595 5.28515 10.7629 5.28461 10.1395 5.77362C9.37203 6.37563 9.14446 7.17993 9.46811 8.06863C9.77663 8.91578 10.4392 9.38156 11.373 9.33472C12.456 9.28038 13.0681 8.6753 13.2748 7.44892Z" fill="url(#paint16_linear_57_263)" stroke="url(#paint17_linear_57_263)" stroke-width="2"/>
<path d="M43.7546 28.7782C48.902 26.1627 53.9628 26.231 58.9919 28.8513C60.5528 29.6646 60.5849 30.0479 59.3246 31.3084C52.8162 37.8178 46.3068 44.3262 39.7967 50.8339C38.5615 52.0686 38.2724 52.0276 37.4443 50.5157C33.141 42.6593 35.7955 33.4253 43.7546 28.7782ZM48.1841 40.3205C51.5082 36.9925 54.8322 33.6645 58.1778 30.3149C53.4397 27.1484 45.2212 27.638 40.2226 33.5525C35.6177 39.0013 36.5486 46.9639 38.9743 49.5828C42.0083 46.5295 45.0387 43.4799 48.1841 40.3205Z" fill="url(#paint18_linear_57_263)" stroke="url(#paint19_linear_57_263)" stroke-width="2"/>
<path d="M59.2493 38.2326C60.579 36.9065 61.8397 35.6235 63.1305 34.3715C63.9444 33.5821 64.37 33.6638 64.973 34.6442C70.8475 44.1963 64.5946 57.1152 53.4614 58.5208C49.9831 58.9599 46.7642 58.3232 43.702 56.7111C42.051 55.8419 42.003 55.4909 43.3024 54.1896C48.5972 48.8872 53.8959 43.5887 59.2493 38.2326ZM64.5521 48.3804C66.2981 44.1188 66.0497 39.976 64.0692 36.1226C57.5731 42.5839 51.1211 49.0016 44.6895 55.3988C50.3675 59.0994 60.5693 57.2415 64.5521 48.3804Z" fill="url(#paint20_linear_57_263)" stroke="url(#paint21_linear_57_263)" stroke-width="2"/>
<defs>
<linearGradient id="paint0_linear_57_263" x1="32.477" y1="1" x2="32.477" y2="63.8122" gradientUnits="userSpaceOnUse">
<stop stop-color="#70DFFD"/>
<stop offset="1" stop-color="#70DFFD" stop-opacity="0.3"/>
</linearGradient>
<linearGradient id="paint1_linear_57_263" x1="32.477" y1="1" x2="32.477" y2="63.8122" gradientUnits="userSpaceOnUse">
<stop stop-color="#70DFFD"/>
<stop offset="1" stop-color="#70DFFD" stop-opacity="0.3"/>
</linearGradient>
<linearGradient id="paint2_linear_57_263" x1="51.3118" y1="20.4994" x2="51.3118" y2="65" gradientUnits="userSpaceOnUse">
<stop stop-color="#70DFFD"/>
<stop offset="1" stop-color="#70DFFD" stop-opacity="0.3"/>
</linearGradient>
<linearGradient id="paint3_linear_57_263" x1="51.3118" y1="20.4994" x2="51.3118" y2="65" gradientUnits="userSpaceOnUse">
<stop stop-color="#70DFFD"/>
<stop offset="1" stop-color="#70DFFD" stop-opacity="0.3"/>
</linearGradient>
<linearGradient id="paint4_linear_57_263" x1="18.2452" y1="53.2794" x2="18.2452" y2="54.8693" gradientUnits="userSpaceOnUse">
<stop stop-color="#70DFFD"/>
<stop offset="1" stop-color="#70DFFD" stop-opacity="0.3"/>
</linearGradient>
<linearGradient id="paint5_linear_57_263" x1="18.2452" y1="53.2794" x2="18.2452" y2="54.8693" gradientUnits="userSpaceOnUse">
<stop stop-color="#70DFFD"/>
<stop offset="1" stop-color="#70DFFD" stop-opacity="0.3"/>
</linearGradient>
<linearGradient id="paint6_linear_57_263" x1="17.1701" y1="42.2236" x2="17.1701" y2="43.8195" gradientUnits="userSpaceOnUse">
<stop stop-color="#70DFFD"/>
<stop offset="1" stop-color="#70DFFD" stop-opacity="0.3"/>
</linearGradient>
<linearGradient id="paint7_linear_57_263" x1="17.1701" y1="42.2236" x2="17.1701" y2="43.8195" gradientUnits="userSpaceOnUse">
<stop stop-color="#70DFFD"/>
<stop offset="1" stop-color="#70DFFD" stop-opacity="0.3"/>
</linearGradient>
<linearGradient id="paint8_linear_57_263" x1="18.2536" y1="31.1863" x2="18.2536" y2="32.6902" gradientUnits="userSpaceOnUse">
<stop stop-color="#70DFFD"/>
<stop offset="1" stop-color="#70DFFD" stop-opacity="0.3"/>
</linearGradient>
<linearGradient id="paint9_linear_57_263" x1="18.2536" y1="31.1863" x2="18.2536" y2="32.6902" gradientUnits="userSpaceOnUse">
<stop stop-color="#70DFFD"/>
<stop offset="1" stop-color="#70DFFD" stop-opacity="0.3"/>
</linearGradient>
<linearGradient id="paint10_linear_57_263" x1="16.385" y1="20.1323" x2="16.385" y2="21.6295" gradientUnits="userSpaceOnUse">
<stop stop-color="#70DFFD"/>
<stop offset="1" stop-color="#70DFFD" stop-opacity="0.3"/>
</linearGradient>
<linearGradient id="paint11_linear_57_263" x1="16.385" y1="20.1323" x2="16.385" y2="21.6295" gradientUnits="userSpaceOnUse">
<stop stop-color="#70DFFD"/>
<stop offset="1" stop-color="#70DFFD" stop-opacity="0.3"/>
</linearGradient>
<linearGradient id="paint12_linear_57_263" x1="31.7225" y1="20.1583" x2="31.7225" y2="21.6334" gradientUnits="userSpaceOnUse">
<stop stop-color="#70DFFD"/>
<stop offset="1" stop-color="#70DFFD" stop-opacity="0.3"/>
</linearGradient>
<linearGradient id="paint13_linear_57_263" x1="31.7225" y1="20.1583" x2="31.7225" y2="21.6334" gradientUnits="userSpaceOnUse">
<stop stop-color="#70DFFD"/>
<stop offset="1" stop-color="#70DFFD" stop-opacity="0.3"/>
</linearGradient>
<linearGradient id="paint14_linear_57_263" x1="39.7998" y1="6.60434" x2="39.7998" y2="8.14165" gradientUnits="userSpaceOnUse">
<stop stop-color="#70DFFD"/>
<stop offset="1" stop-color="#70DFFD" stop-opacity="0.3"/>
</linearGradient>
<linearGradient id="paint15_linear_57_263" x1="39.7998" y1="6.60434" x2="39.7998" y2="8.14165" gradientUnits="userSpaceOnUse">
<stop stop-color="#70DFFD"/>
<stop offset="1" stop-color="#70DFFD" stop-opacity="0.3"/>
</linearGradient>
<linearGradient id="paint16_linear_57_263" x1="11.3057" y1="3.85876" x2="11.3057" y2="10.8499" gradientUnits="userSpaceOnUse">
<stop stop-color="#70DFFD"/>
<stop offset="1" stop-color="#70DFFD" stop-opacity="0.3"/>
</linearGradient>
<linearGradient id="paint17_linear_57_263" x1="11.3057" y1="3.85876" x2="11.3057" y2="10.8499" gradientUnits="userSpaceOnUse">
<stop stop-color="#70DFFD"/>
<stop offset="1" stop-color="#70DFFD" stop-opacity="0.3"/>
</linearGradient>
<linearGradient id="paint18_linear_57_263" x1="47.8085" y1="26.851" x2="47.8085" y2="51.7092" gradientUnits="userSpaceOnUse">
<stop stop-color="#70DFFD"/>
<stop offset="1" stop-color="#70DFFD" stop-opacity="0.3"/>
</linearGradient>
<linearGradient id="paint19_linear_57_263" x1="47.8085" y1="26.851" x2="47.8085" y2="51.7092" gradientUnits="userSpaceOnUse">
<stop stop-color="#70DFFD"/>
<stop offset="1" stop-color="#70DFFD" stop-opacity="0.3"/>
</linearGradient>
<linearGradient id="paint20_linear_57_263" x1="54.8063" y1="33.8375" x2="54.8063" y2="58.6561" gradientUnits="userSpaceOnUse">
<stop stop-color="#70DFFD"/>
<stop offset="1" stop-color="#70DFFD" stop-opacity="0.3"/>
</linearGradient>
<linearGradient id="paint21_linear_57_263" x1="54.8063" y1="33.8375" x2="54.8063" y2="58.6561" gradientUnits="userSpaceOnUse">
<stop stop-color="#70DFFD"/>
<stop offset="1" stop-color="#70DFFD" stop-opacity="0.3"/>
</linearGradient>
</defs>
</svg>
