<svg width="67" height="64" viewBox="0 0 67 64" fill="none" xmlns="http://www.w3.org/2000/svg">
<path d="M33.289 37.0796C33.288 35.3011 33.2669 33.6043 33.2964 31.9084C33.3076 31.2704 33.0879 31.0463 32.4424 31.0441C31.1414 31.0398 30.4397 30.4094 30.4085 29.0976C30.3512 26.6914 30.3454 24.2815 30.4102 21.8757C30.4467 20.5212 31.1654 19.9476 32.5395 19.9463C35.4125 19.9436 38.2856 19.934 41.1584 19.9568C41.7189 19.9613 41.9839 19.83 42.0613 19.2168C42.4319 16.2803 44.6858 14.504 47.7412 14.5671C48.6697 14.5862 49.5965 14.5455 50.5257 14.6731C52.809 14.9867 54.6986 16.8365 54.8768 19.1296C54.934 19.8659 55.223 19.9601 55.8362 19.9554C58.6543 19.9337 61.4727 19.9441 64.2909 19.9481C65.8676 19.9503 66.5348 20.6078 66.5421 22.1918C66.5523 24.4081 66.5518 26.6244 66.5398 28.8407C66.5317 30.3414 65.9036 31.0084 64.4189 31.0445C63.8416 31.0585 63.6761 31.2646 63.6774 31.8298C63.6989 40.5853 63.7115 49.3409 63.702 58.0965C63.6986 61.1781 62.3926 63.0647 59.8578 63.7832C59.2476 63.9561 58.6198 63.9971 57.9903 63.9972C51.6697 63.9989 45.3491 64.0043 39.0286 63.9932C35.9823 63.9879 33.9865 62.5309 33.3842 59.889C33.2944 59.4951 33.2916 59.0756 33.2914 58.6679C33.2866 51.4992 33.2886 44.3305 33.289 37.0796ZM36.8128 33.2232C36.8142 41.5963 36.8141 49.9695 36.8185 58.3426C36.8193 59.935 37.3889 60.4998 38.9982 60.5007C45.3191 60.5043 51.6401 60.5048 57.961 60.4992C59.5519 60.4978 60.2079 59.846 60.2089 58.2521C60.2144 49.578 60.2125 40.9038 60.2097 32.2296C60.2094 31.114 60.15 31.0595 59.0655 31.0593C52.3067 31.0579 45.548 31.0578 38.7892 31.0578C36.8143 31.0578 36.8143 31.0586 36.8128 33.2232ZM61.6532 27.5076C61.79 27.5074 61.9298 27.4884 62.0631 27.5101C62.842 27.6368 63.0801 27.2839 63.0193 26.5429C62.9658 25.8906 63.0091 25.2304 63.0087 24.5737C63.008 23.4792 63.0076 23.4777 61.9373 23.4779C56.2736 23.4789 50.6098 23.4809 44.946 23.4822C41.5806 23.4831 38.215 23.5029 34.85 23.4691C34.0863 23.4614 33.8289 23.712 33.8867 24.4612C33.9435 25.1955 33.9324 25.9397 33.8889 26.6759C33.8506 27.3223 34.0828 27.5204 34.7337 27.5191C43.6535 27.5015 52.5733 27.5089 61.6532 27.5076ZM45.7642 19.9031C47.2955 19.9176 48.8268 19.9431 50.3581 19.9378C50.6861 19.9366 51.15 20.1294 51.3087 19.6969C51.4771 19.2379 51.1713 18.862 50.8501 18.543C50.5837 18.2784 50.2303 18.1497 49.8839 18.1357C48.9558 18.0982 48.0196 18.0566 47.0973 18.1378C46.0967 18.2259 45.5811 18.9075 45.7642 19.9031Z" fill="url(#paint0_linear_57_147)"/>
<path d="M26.5153 43.225C26.9906 43.1338 27.3923 43.0542 27.7955 42.9833C28.9395 42.7821 29.8736 43.3888 30.0675 44.4554C30.2342 45.3719 29.5323 46.252 28.4408 46.4662C25.948 46.9555 23.4292 47.0141 20.9331 46.6203C13.5518 45.4559 7.87597 41.6759 4.03168 35.2555C1.65358 31.2837 0.569459 26.9313 0.819146 22.3134C1.4138 11.3156 9.12143 2.46242 19.6418 0.481789C28.4727 -1.18077 35.9922 1.47635 42.021 8.19256C42.8007 9.06113 42.9121 9.75573 42.4741 10.492C41.8181 11.5945 40.4192 11.6906 39.4998 10.6379C38.2315 9.18585 36.8269 7.90002 35.2204 6.83335C27.2819 1.56268 16.4638 2.72897 9.90961 9.62911C6.76384 12.9409 4.95613 16.8901 4.46017 21.4722C3.33844 31.8355 10.8258 41.6539 21.4492 43.1337C23.115 43.3657 24.7761 43.3027 26.5153 43.225Z" fill="url(#paint1_linear_57_147)"/>
<path d="M25.9561 23.8176C25.6194 24.8221 24.9468 25.1712 23.9834 25.1645C20.9226 25.1434 17.8616 25.1608 14.8008 25.1529C13.6026 25.1498 12.825 24.4865 12.7852 23.4685C12.745 22.4388 13.5335 21.6695 14.7867 21.6467C16.945 21.6073 19.1045 21.6323 21.2635 21.6305C22.4673 21.6295 22.4682 21.6297 22.4684 20.4104C22.4689 17.3768 22.4667 14.3433 22.471 11.3098C22.4714 10.9833 22.4668 10.6484 22.5337 10.3321C22.728 9.41385 23.5098 8.77907 24.3271 8.83486C25.2664 8.89897 25.9983 9.63981 25.9996 10.6336C26.0053 15.0057 25.9859 19.3777 25.9561 23.8176Z" fill="url(#paint2_linear_57_147)"/>
<path d="M51.3639 37.099C51.3748 36.6389 51.3377 36.2566 51.455 35.8808C51.7217 35.0262 52.4654 34.4961 53.3071 34.5772C54.1522 34.6585 54.7982 35.3134 54.8969 36.1949C54.912 36.3303 54.9074 36.4681 54.9074 36.6048C54.9083 42.2657 54.9112 47.9266 54.9073 53.5875C54.9064 54.8606 54.1757 55.6952 53.1069 55.6775C52.0977 55.6607 51.3706 54.8193 51.3683 53.5864C51.3581 48.117 51.364 42.6475 51.3639 37.099Z" fill="url(#paint3_linear_57_147)"/>
<path d="M45.549 36.63C45.549 42.2305 45.5489 47.754 45.5476 53.2775C45.5476 53.5508 45.5623 53.8272 45.5281 54.0968C45.4248 54.9105 44.7587 55.5695 43.9674 55.6674C43.1787 55.765 42.436 55.2627 42.1413 54.4482C42.027 54.1324 42.0024 53.8105 42.0024 53.4807C42.003 47.8751 42.004 42.2696 42.0001 36.6641C41.9996 35.8403 42.2384 35.1539 43.0186 34.7568C43.6407 34.4402 44.243 34.5228 44.8005 34.9102C45.368 35.3046 45.5508 35.8907 45.549 36.63Z" fill="url(#paint4_linear_57_147)"/>
<defs>
<linearGradient id="paint0_linear_57_147" x1="48.4564" y1="14.5654" x2="48.4564" y2="64" gradientUnits="userSpaceOnUse">
<stop stop-color="#70DFFD"/>
<stop offset="1" stop-color="#70DFFD" stop-opacity="0.3"/>
</linearGradient>
<linearGradient id="paint1_linear_57_147" x1="21.7565" y1="0" x2="21.7565" y2="46.8792" gradientUnits="userSpaceOnUse">
<stop stop-color="#70DFFD"/>
<stop offset="1" stop-color="#70DFFD" stop-opacity="0.3"/>
</linearGradient>
<linearGradient id="paint2_linear_57_147" x1="19.3922" y1="8.83145" x2="19.3922" y2="25.1646" gradientUnits="userSpaceOnUse">
<stop stop-color="#70DFFD"/>
<stop offset="1" stop-color="#70DFFD" stop-opacity="0.3"/>
</linearGradient>
<linearGradient id="paint3_linear_57_147" x1="53.1358" y1="34.569" x2="53.1358" y2="55.6777" gradientUnits="userSpaceOnUse">
<stop stop-color="#70DFFD"/>
<stop offset="1" stop-color="#70DFFD" stop-opacity="0.3"/>
</linearGradient>
<linearGradient id="paint4_linear_57_147" x1="43.7754" y1="34.5621" x2="43.7754" y2="55.6795" gradientUnits="userSpaceOnUse">
<stop stop-color="#70DFFD"/>
<stop offset="1" stop-color="#70DFFD" stop-opacity="0.3"/>
</linearGradient>
</defs>
</svg>
