<svg width="78" height="72" viewBox="0 0 78 72" fill="none" xmlns="http://www.w3.org/2000/svg">
<path d="M20.2807 3.53826C20.7924 5.52982 20.299 7.21262 18.931 8.71761C19.3998 8.90714 19.8118 9.03832 20.1911 9.23319C21.8044 10.062 22.7138 11.4034 22.9313 13.1903C22.9817 13.6042 23.1126 13.8195 23.4908 13.9985C26.8603 15.593 27.6801 19.0702 25.3989 22.0132C25.3234 22.1106 25.262 22.2191 25.1544 22.3826C25.9441 22.6676 26.6944 22.9277 27.3082 23.4559C28.4881 24.471 29.1412 25.7342 29.1444 27.3038C29.1502 30.0913 29.1493 32.8788 29.1449 35.6664C29.143 36.8701 28.7177 37.3003 27.5189 37.3008C19.4661 37.304 11.4132 37.3043 3.36027 37.3012C2.20555 37.3007 1.7821 36.8699 1.78027 35.7081C1.77599 32.998 1.77762 30.2879 1.77974 27.5778C1.78168 25.1051 2.95327 23.4222 5.26336 22.5647C5.40448 22.5124 5.54389 22.4554 5.67109 22.4057C5.71588 22.0868 5.47429 21.9649 5.34206 21.7917C3.29011 19.1046 4.18715 15.4442 7.26597 14.0763C7.75635 13.8585 7.93293 13.6018 8.00937 13.0632C8.28493 11.1215 9.36543 9.76302 11.1994 9.02359C11.4313 8.93009 11.7051 8.92119 11.877 8.72239C11.9 8.52285 11.7586 8.42928 11.6661 8.31232C10.2837 6.56565 9.99792 4.64661 11.015 2.67117C12.023 0.71347 13.7372 -0.16898 15.9377 0.0266189C18.1198 0.220585 19.52 1.45035 20.2807 3.53826ZM18.3104 25.1102C17.3217 25.5189 16.7979 26.3018 16.7757 27.327C16.7268 29.593 16.7633 31.8607 16.7528 34.1277C16.7508 34.5574 16.9258 34.7228 17.3524 34.7215C20.2119 34.7125 23.0715 34.7117 25.931 34.7212C26.3997 34.7227 26.5671 34.5225 26.5648 34.0691C26.5534 31.8279 26.5924 29.5859 26.5444 27.3457C26.514 25.9266 25.4736 24.9628 24.0508 24.9166C23.4075 24.8957 22.762 24.8895 22.119 24.916C20.8884 24.9666 19.6463 24.7568 18.3104 25.1102ZM6.03499 25.0751C4.95471 25.4576 4.40703 26.2765 4.38302 27.3677C4.33362 29.6115 4.37107 31.8572 4.36143 34.1021C4.35967 34.513 4.49073 34.7223 4.9373 34.721C7.80151 34.7124 10.6658 34.7123 13.53 34.7218C13.9917 34.7233 14.176 34.5378 14.1737 34.0767C14.1621 31.8318 14.2 29.5862 14.1526 27.3422C14.126 26.0813 13.3379 25.1002 12.0958 24.9971C10.1238 24.8333 8.13432 24.7898 6.03499 25.0751ZM12.1838 14.5647C13.1431 15.283 13.8172 16.2019 14.1207 17.3694C14.6137 19.2655 14.0208 20.8973 12.7369 22.3839C13.7013 22.6821 14.497 23.0343 15.148 23.6493C15.2806 23.7746 15.4446 23.9262 15.6181 23.7696C16.345 23.1139 17.1908 22.6629 18.1125 22.4171C18.0766 22.2594 18.0781 22.2292 18.0642 22.2101C15.596 18.8084 16.2638 15.9496 20.0067 13.9363C20.2795 13.7896 20.3559 13.6298 20.3013 13.3208C20.0996 12.1786 19.1644 11.3286 17.905 11.2969C16.2827 11.256 14.6578 11.2548 13.0356 11.2984C12.0101 11.3259 11.2135 11.805 10.7827 12.7862C10.524 13.3753 10.4741 13.8648 11.2705 14.0768C11.5614 14.1542 11.8198 14.3536 12.1838 14.5647ZM23.4535 20.2205C24.1974 19.2047 24.2626 18.3009 23.6598 17.3618C23.168 16.5955 22.1567 16.1286 21.3362 16.2889C20.1824 16.5143 19.4613 17.2518 19.2691 18.4031C19.1234 19.2762 19.6809 20.3033 20.5538 20.7698C21.5316 21.2924 22.4207 21.1462 23.4535 20.2205ZM7.97734 16.6583C6.88364 17.5009 6.57744 18.5927 7.1229 19.7049C7.58733 20.6518 8.72572 21.2306 9.68208 21.0137C10.7123 20.7801 11.3605 20.1586 11.5994 19.128C11.8129 18.2064 11.4972 17.432 10.8043 16.8525C9.97715 16.1605 9.04119 16.0662 7.97734 16.6583ZM15.16 7.41511C15.558 7.52617 15.9319 7.38716 16.2911 7.26426C17.463 6.8632 18.1044 5.53085 17.7329 4.32238C17.36 3.10892 16.0808 2.39681 14.8757 2.73176C13.7976 3.03142 13.0442 3.98177 13.0467 5.03899C13.0492 6.13146 13.8015 7.01307 15.16 7.41511Z" fill="url(#paint0_linear_57_290)"/>
<path d="M70.3957 43.8873C63.9916 46.5396 57.2122 42.7127 56.3491 35.9517C56.0127 33.3167 56.7002 30.8803 58.3314 28.754C58.6483 28.3408 58.7929 27.9304 58.7871 27.41C58.7649 25.4235 58.7775 23.4366 58.7786 21.4499C58.78 18.9236 59.9328 17.2524 62.2819 16.366C62.4209 16.3135 62.5563 16.2516 62.7807 16.1574C61.5721 14.7352 60.9594 13.1855 61.3691 11.3518C61.6393 10.1422 62.2701 9.16629 63.2538 8.42524C65.1766 6.97685 68.0048 7.14885 69.7272 8.80574C71.7578 10.7591 71.7903 13.2064 69.8166 16.1284C69.9659 16.3812 70.2571 16.3545 70.4833 16.439C72.4375 17.169 73.743 18.9963 73.7526 21.0698C73.7625 23.2113 73.7626 25.3529 73.7492 27.4943C73.7465 27.9273 73.8542 28.2746 74.1228 28.628C78.0878 33.8458 76.358 40.9937 70.3957 43.8873ZM73.1435 32.1674C71.95 29.097 69.1417 27.3527 66.1067 27.4127C61.5412 27.5029 58.2205 31.6291 59.0496 36.1151C59.7455 39.8805 63.0476 42.3271 66.5894 42.1194C71.8181 41.8128 74.8006 36.7387 73.1435 32.1674ZM69.312 25.2657C69.9025 25.486 70.4931 25.7064 71.1545 25.9532C71.1545 24.2333 71.2225 22.6074 71.1335 20.9901C71.0591 19.6384 70.0113 18.7456 68.6407 18.7231C67.0669 18.6973 65.4918 18.6923 63.9183 18.7264C62.3527 18.7603 61.3916 19.7613 61.3691 21.3437C61.3497 22.7112 61.3626 24.0792 61.3675 25.447C61.3682 25.6155 61.3078 25.8188 61.5909 25.9473C63.9957 24.7099 66.5464 24.4427 69.312 25.2657ZM68.2119 11.0789C68.0051 10.7724 67.7254 10.5471 67.4037 10.3752C66.4902 9.88699 65.5988 9.96777 64.7991 10.5927C64.0839 11.1516 63.7369 11.9248 63.9087 12.8396C64.1089 13.906 64.7734 14.5801 65.8375 14.8073C66.788 15.0102 67.5662 14.6579 68.1453 13.911C68.8177 13.0436 68.8322 12.116 68.2119 11.0789Z" fill="url(#paint1_linear_57_290)"/>
<path d="M8.79029 40.9308C11.7473 41.291 14.6347 41.6473 17.5225 42.0006C20.7675 42.3975 24.0127 42.794 27.2583 43.1864C29.9931 43.5171 32.7291 43.8388 35.4639 44.1696C38.7098 44.5622 41.9544 44.9648 45.2005 45.3549C48.4218 45.7419 51.6448 46.1151 54.8662 46.5012C57.6019 46.8292 60.336 47.1698 63.0714 47.4998C66.3179 47.8915 69.5651 48.2774 72.8119 48.6666C74.1412 48.8259 75.4704 48.9861 76.7994 49.1485C77.0409 49.178 77.27 49.2459 77.2944 49.5408C77.3501 50.2168 77.1674 50.8705 77.0734 51.5305C77.0336 51.8106 76.7612 51.818 76.5098 51.7872C73.5707 51.4268 70.6312 51.0702 67.6916 50.7141C64.4441 50.3206 61.1964 49.9286 57.9488 49.5363C54.344 49.101 50.7391 48.6663 47.1343 48.2309C43.8872 47.8388 40.64 47.4476 37.3931 47.0533C33.7377 46.6094 30.083 46.1589 26.4273 45.7178C23.2316 45.3322 20.0342 44.9599 16.8385 44.5739C13.1835 44.1324 9.52979 43.6799 5.87494 43.2369C4.39211 43.0572 2.90987 42.8676 1.42303 42.7288C0.85675 42.6759 0.669189 42.4484 0.69825 41.8956C0.798202 39.9942 0.925478 39.9221 2.81884 40.2037C4.77857 40.4953 6.75286 40.6891 8.79029 40.9308Z" fill="url(#paint2_linear_57_290)"/>
<path d="M36.2175 71.9988C33.5073 71.9987 30.8745 72.0028 28.2417 71.9967C26.6956 71.9931 26.1453 71.0678 26.9077 69.707C30.1614 63.8994 33.4294 58.0997 36.6921 52.2971C37.0082 51.7348 37.3152 51.1673 37.6412 50.6109C38.4226 49.2776 39.6132 49.2727 40.3673 50.6084C42.4731 54.3382 44.5702 58.0729 46.6689 61.8067C48.1354 64.4158 49.6013 67.0252 51.0612 69.638C51.2868 70.0417 51.5242 70.45 51.4271 70.9499C51.298 71.6137 50.7794 71.993 49.9234 71.9948C46.5163 72.0018 43.1092 71.9984 39.7021 71.9988C38.5664 71.9989 37.4306 71.9987 36.2175 71.9988ZM38.7608 54.0215C35.9089 59.0886 33.057 64.1557 30.1408 69.337C36.1159 69.337 41.9151 69.337 47.7093 69.337C47.7558 68.9737 47.5576 68.7778 47.4367 68.5611C46.1797 66.3088 44.914 64.0613 43.6501 61.8129C42.2598 59.3396 40.8762 56.8624 39.4653 54.401C39.3461 54.1931 39.3416 53.6532 38.7608 54.0215Z" fill="url(#paint3_linear_57_290)"/>
<path d="M62.6668 31.8742C63.0056 30.9789 63.5635 30.3551 64.3935 30.0195C64.8099 29.8511 65.0298 29.6194 64.9771 29.1575C64.9243 28.6947 65.1448 28.4975 65.6063 28.5222C65.9404 28.54 66.2784 28.5464 66.6111 28.5173C67.253 28.4611 67.6793 28.6004 67.5665 29.3803C67.5083 29.7827 67.8272 29.8712 68.1179 30.0058C69.3805 30.5906 70.065 31.664 69.9422 32.9318C69.0011 32.8259 68.0279 33.3204 67.1177 32.5229C66.6858 32.1446 66.0317 32.3071 65.4798 32.434C65.2377 32.4896 65.0944 32.7185 65.1313 32.9725C65.1728 33.2582 65.3918 33.4286 65.6677 33.4513C66.0777 33.4849 66.4914 33.4737 66.9035 33.4797C68.4185 33.5015 69.6107 34.4558 69.9702 35.9351C70.311 37.3377 69.6164 38.8172 68.2523 39.4639C67.7791 39.6882 67.4623 39.9275 67.553 40.4934C67.5609 40.543 67.5648 40.6067 67.541 40.6458C67.0539 41.4446 66.2884 40.8621 65.6661 41.007C65.3456 41.0815 64.9329 41.0401 64.9895 40.5337C65.057 39.9292 64.7341 39.6767 64.2398 39.453C63.3062 39.0304 62.7951 38.2449 62.5522 37.27C62.4439 36.8354 62.546 36.5389 63.0619 36.5854C63.8696 36.6582 64.7128 36.3333 65.4586 37.0527C65.8245 37.4056 66.4954 37.246 67.0229 37.1137C67.2553 37.0554 67.4366 36.8587 67.3941 36.5928C67.3492 36.3125 67.1352 36.1308 66.8637 36.0991C66.5072 36.0574 66.144 36.0688 65.7836 36.0666C63.4714 36.0522 62.0395 34.1652 62.6668 31.8742Z" fill="url(#paint4_linear_57_290)"/>
<defs>
<linearGradient id="paint0_linear_57_290" x1="15.463" y1="0" x2="15.463" y2="37.3034" gradientUnits="userSpaceOnUse">
<stop stop-color="#70DFFD"/>
<stop offset="1" stop-color="#70DFFD" stop-opacity="0.3"/>
</linearGradient>
<linearGradient id="paint1_linear_57_290" x1="66.2627" y1="7.4418" x2="66.2627" y2="44.7349" gradientUnits="userSpaceOnUse">
<stop stop-color="#70DFFD"/>
<stop offset="1" stop-color="#70DFFD" stop-opacity="0.3"/>
</linearGradient>
<linearGradient id="paint2_linear_57_290" x1="39.0001" y1="40.0817" x2="39.0001" y2="51.7995" gradientUnits="userSpaceOnUse">
<stop stop-color="#70DFFD"/>
<stop offset="1" stop-color="#70DFFD" stop-opacity="0.3"/>
</linearGradient>
<linearGradient id="paint3_linear_57_290" x1="39.0084" y1="49.6088" x2="39.0084" y2="72" gradientUnits="userSpaceOnUse">
<stop stop-color="#70DFFD"/>
<stop offset="1" stop-color="#70DFFD" stop-opacity="0.3"/>
</linearGradient>
<linearGradient id="paint4_linear_57_290" x1="66.2847" y1="28.5063" x2="66.2847" y2="41.0777" gradientUnits="userSpaceOnUse">
<stop stop-color="#70DFFD"/>
<stop offset="1" stop-color="#70DFFD" stop-opacity="0.3"/>
</linearGradient>
</defs>
</svg>
