<svg width="705" height="627" viewBox="0 0 705 627" fill="none" xmlns="http://www.w3.org/2000/svg">
<circle cx="293" cy="132" r="45" fill="white" fill-opacity="0.69"/>
<circle cx="293.5" cy="131.5" r="52.5" fill="white" fill-opacity="0.35"/>
<g clip-path="url(#clip0_40_7)">
<path d="M304.474 124.57C303.69 124.116 302.682 124.116 301.786 124.57L295.516 128.313L291.26 130.696L285.102 134.439C284.318 134.893 283.31 134.893 282.414 134.439L277.599 131.49C276.815 131.036 276.255 130.128 276.255 129.107V123.436C276.255 122.528 276.703 121.621 277.599 121.054L282.414 118.218C283.198 117.764 284.206 117.764 285.102 118.218L289.917 121.167C290.701 121.621 291.26 122.528 291.26 123.549V127.293L295.516 124.797V120.94C295.516 120.033 295.068 119.125 294.172 118.558L285.214 113.227C284.43 112.773 283.422 112.773 282.526 113.227L273.344 118.672C272.448 119.125 272 120.033 272 120.94V131.603C272 132.51 272.448 133.418 273.344 133.985L282.414 139.316C283.198 139.77 284.206 139.77 285.102 139.316L291.26 135.687L295.516 133.191L301.674 129.561C302.458 129.107 303.466 129.107 304.362 129.561L309.177 132.397C309.961 132.851 310.521 133.758 310.521 134.779V140.451C310.521 141.358 310.073 142.266 309.177 142.833L304.474 145.669C303.69 146.122 302.682 146.122 301.786 145.669L296.971 142.833C296.187 142.379 295.628 141.472 295.628 140.451V136.821L291.372 139.316V143.06C291.372 143.967 291.82 144.875 292.716 145.442L301.786 150.773C302.57 151.227 303.578 151.227 304.474 150.773L313.544 145.442C314.328 144.988 314.888 144.081 314.888 143.06V132.284C314.888 131.376 314.44 130.469 313.544 129.901L304.474 124.57Z" fill="#B6CEFE"/>
</g>
<circle cx="410.143" cy="28.1429" r="23.1429" fill="white" fill-opacity="0.69"/>
<circle cx="410" cy="27" r="27" fill="white" fill-opacity="0.35"/>
<path d="M416.504 33.8773L411.092 20.7928C410.787 20.1163 410.333 19.7863 409.735 19.7863H409.257C408.659 19.7863 408.205 20.1163 407.9 20.7928L405.544 26.4935H403.762C403.23 26.4976 402.797 26.9266 402.793 27.4629V27.4753C402.797 28.0074 403.23 28.4405 403.762 28.4446H404.719L402.471 33.8773C402.43 33.9969 402.405 34.1206 402.405 34.2485C402.405 34.5538 402.5 34.793 402.669 34.9786C402.838 35.1643 403.082 35.255 403.387 35.255C403.589 35.2509 403.783 35.189 403.944 35.0694C404.117 34.9498 404.237 34.7765 404.331 34.5785L406.806 28.4405H408.522C409.055 28.4364 409.488 28.0074 409.492 27.4711V27.4464C409.488 26.9143 409.055 26.4811 408.522 26.477H407.607L409.496 21.7704L414.644 34.5744C414.739 34.7724 414.858 34.9456 415.032 35.0653C415.193 35.1849 415.391 35.2468 415.589 35.2509C415.894 35.2509 416.133 35.1601 416.306 34.9745C416.48 34.7889 416.57 34.5496 416.57 34.2444C416.574 34.1206 416.554 33.9928 416.504 33.8773Z" fill="#C5DDFC"/>
<path d="M416.504 33.8773L411.092 20.7928C410.787 20.1163 410.333 19.7863 409.735 19.7863H409.257C408.659 19.7863 408.205 20.1163 407.9 20.7928L405.544 26.4935H403.762C403.23 26.4976 402.797 26.9266 402.793 27.4629V27.4753C402.797 28.0074 403.23 28.4405 403.762 28.4446H404.719L402.471 33.8773C402.43 33.9969 402.405 34.1206 402.405 34.2485C402.405 34.5538 402.5 34.793 402.669 34.9786C402.838 35.1643 403.082 35.255 403.387 35.255C403.589 35.2509 403.783 35.189 403.944 35.0694C404.117 34.9498 404.237 34.7765 404.331 34.5785L406.806 28.4405H408.522C409.055 28.4364 409.488 28.0074 409.492 27.4711V27.4464C409.488 26.9143 409.055 26.4811 408.522 26.477H407.607L409.496 21.7704L414.644 34.5744C414.739 34.7724 414.858 34.9456 415.032 35.0653C415.193 35.1849 415.391 35.2468 415.589 35.2509C415.894 35.2509 416.133 35.1601 416.306 34.9745C416.48 34.7889 416.57 34.5496 416.57 34.2444C416.574 34.1206 416.554 33.9928 416.504 33.8773Z" fill="#B6CEFE"/>
<circle cx="454.143" cy="104.143" r="32.1429" fill="white" fill-opacity="0.69"/>
<circle cx="454.5" cy="103.5" r="37.5" fill="white" fill-opacity="0.35"/>
<path fill-rule="evenodd" clip-rule="evenodd" d="M455.5 102.307L454.9 105.507L460.6 106.307L460.2 107.807L454.6 107.007C454.2 108.307 454 109.707 453.5 110.907C453 112.307 452.5 113.707 451.9 115.007C451.1 116.707 449.7 117.907 447.8 118.207C446.7 118.407 445.5 118.307 444.6 117.607C444.3 117.407 444 117.007 444 116.707C444 116.307 444.2 115.807 444.5 115.607C444.7 115.507 445.2 115.607 445.5 115.707C445.8 116.007 446.1 116.407 446.3 116.807C446.9 117.607 447.7 117.707 448.5 117.107C449.4 116.307 449.9 115.207 450.2 114.107C450.8 111.707 451.4 109.407 451.9 107.007V106.607L446.6 105.807L446.8 104.307L452.3 105.107L453 102.007L447.3 101.107L447.5 99.5069L453.4 100.307C453.6 99.7069 453.7 99.2069 453.9 98.7069C454.4 96.9069 454.9 95.1069 456.1 93.5069C457.3 91.9069 458.7 90.9069 460.8 91.0069C461.7 91.0069 462.6 91.3069 463.2 92.0069C463.3 92.1069 463.5 92.3069 463.5 92.5069C463.5 92.9069 463.5 93.4069 463.2 93.7069C462.8 94.0069 462.3 93.9069 461.9 93.5069C461.6 93.2069 461.4 92.9069 461.1 92.6069C460.5 91.8069 459.6 91.7069 458.9 92.4069C458.4 92.9069 457.9 93.6069 457.6 94.3069C456.9 96.4069 456.4 98.6069 455.7 100.807L461.2 101.607L460.8 103.107L455.5 102.307Z" fill="#B6CEFE"/>
<rect x="1.25" y="205.25" width="702.5" height="420.5" rx="10.75" fill="white" stroke="#302F2F" stroke-width="2.5"/>
<rect x="86" y="270" width="294" height="160" rx="11" fill="white" stroke="#302F2F" stroke-width="2"/>
<path d="M250.907 347.978C252.427 349.184 252.417 351.494 250.889 352.69L224.872 373.047C222.898 374.592 220.014 373.181 220.024 370.675L220.186 329.791C220.196 327.286 223.091 325.894 225.052 327.451L250.907 347.978Z" fill="#302F2F"/>
<rect x="479" y="270" width="148.553" height="88.535" rx="11" fill="white" stroke="#302F2F" stroke-width="2"/>
<path d="M560.825 312.225C562.202 313.427 562.194 315.57 560.809 316.761L548.003 327.771C546.054 329.446 543.038 328.055 543.047 325.485L543.127 303.374C543.136 300.803 546.162 299.434 548.099 301.124L560.825 312.225Z" fill="#302F2F"/>
<rect x="479" y="378.732" width="148.553" height="88.535" rx="11" fill="white" stroke="#302F2F" stroke-width="2"/>
<path d="M560.825 420.958C562.202 422.159 562.194 424.302 560.809 425.493L548.003 436.503C546.054 438.179 543.038 436.788 543.047 434.218L543.127 412.106C543.136 409.536 546.162 408.167 548.099 409.856L560.825 420.958Z" fill="#302F2F"/>
<rect x="479" y="487.465" width="148.553" height="88.535" rx="11" fill="white" stroke="#302F2F" stroke-width="2"/>
<path d="M560.825 529.69C562.202 530.892 562.194 533.035 560.809 534.226L548.003 545.236C546.054 546.911 543.038 545.52 543.047 542.95L543.127 520.838C543.136 518.268 546.162 516.899 548.099 518.589L560.825 529.69Z" fill="#302F2F"/>
<path d="M88.9889 466C88.9889 462.134 92.1229 459 95.9889 459H375C378.866 459 382 462.134 382 466V482C382 485.866 378.866 489 375 489H95.9889C92.1229 489 88.9889 485.866 88.9889 482V466Z" fill="#302F2F"/>
<path d="M90.2173 549.684C90.2173 545.818 93.3513 542.684 97.2173 542.684H375C378.866 542.684 382 545.818 382 549.684V564.105C382 567.971 378.866 571.105 375 571.105H97.2173C93.3513 571.105 90.2173 567.971 90.2173 564.105V549.684Z" fill="#302F2F"/>
<path d="M88.9889 507.842C88.9889 503.976 92.1229 500.842 95.9889 500.842H375C378.866 500.842 382 503.976 382 507.842V523.842C382 527.708 378.866 530.842 375 530.842H95.9889C92.1229 530.842 88.9889 527.708 88.9889 523.842V507.842Z" fill="#302F2F"/>
<g clip-path="url(#clip1_40_7)">
<path d="M131.866 471.427C131.408 471.273 130.819 471.273 130.295 471.427L126.63 472.691L124.142 473.496L120.542 474.761C120.084 474.914 119.495 474.914 118.971 474.761L116.156 473.764C115.698 473.611 115.371 473.304 115.371 472.959V471.043C115.371 470.737 115.633 470.43 116.156 470.239L118.971 469.28C119.429 469.127 120.018 469.127 120.542 469.28L123.357 470.277C123.815 470.43 124.142 470.737 124.142 471.082V472.346L126.63 471.503V470.2C126.63 469.894 126.368 469.587 125.844 469.395L120.608 467.594C120.149 467.441 119.56 467.441 119.037 467.594L113.669 469.434C113.145 469.587 112.883 469.894 112.883 470.2V473.803C112.883 474.109 113.145 474.416 113.669 474.607L118.971 476.409C119.429 476.562 120.018 476.562 120.542 476.409L124.142 475.182L126.63 474.339L130.23 473.113C130.688 472.959 131.277 472.959 131.801 473.113L134.616 474.071C135.074 474.224 135.401 474.531 135.401 474.876V476.792C135.401 477.098 135.139 477.405 134.616 477.597L131.866 478.555C131.408 478.708 130.819 478.708 130.295 478.555L127.481 477.597C127.022 477.443 126.695 477.137 126.695 476.792V475.565L124.208 476.409V477.673C124.208 477.98 124.47 478.286 124.993 478.478L130.295 480.279C130.754 480.433 131.343 480.433 131.866 480.279L137.169 478.478C137.627 478.325 137.954 478.018 137.954 477.673V474.033C137.954 473.726 137.692 473.419 137.169 473.228L131.866 471.427Z" fill="#FCFCFC"/>
</g>
<g clip-path="url(#clip2_40_7)">
<path d="M134.6 561.877L127.717 548.793C127.329 548.116 126.752 547.786 125.991 547.786H125.383C124.622 547.786 124.045 548.116 123.657 548.793L120.662 554.494H118.396C117.719 554.498 117.168 554.927 117.163 555.463V555.475C117.168 556.007 117.719 556.441 118.396 556.445H119.613L116.754 561.877C116.701 561.997 116.67 562.121 116.67 562.248C116.67 562.554 116.791 562.793 117.006 562.979C117.221 563.164 117.53 563.255 117.918 563.255C118.175 563.251 118.422 563.189 118.627 563.069C118.847 562.95 118.999 562.776 119.12 562.578L122.267 556.441H124.449C125.126 556.436 125.677 556.007 125.682 555.471V555.446C125.677 554.914 125.126 554.481 124.449 554.477H123.285L125.687 549.77L132.234 562.574C132.354 562.772 132.507 562.946 132.727 563.065C132.931 563.185 133.183 563.247 133.435 563.251C133.823 563.251 134.127 563.16 134.348 562.974C134.568 562.789 134.683 562.55 134.683 562.244C134.689 562.121 134.662 561.993 134.6 561.877Z" fill="#FDFDFD"/>
</g>
<path fill-rule="evenodd" clip-rule="evenodd" d="M127.937 514.679L127.234 516.808L133.913 517.34L133.445 518.337L126.883 517.805C126.414 518.67 126.18 519.601 125.594 520.399C125.008 521.331 124.422 522.262 123.719 523.127C122.782 524.257 121.141 525.056 118.915 525.255C117.626 525.388 116.22 525.322 115.165 524.856C114.814 524.723 114.462 524.457 114.462 524.257C114.462 523.991 114.696 523.659 115.048 523.526C115.282 523.459 115.868 523.526 116.22 523.592C116.571 523.792 116.923 524.058 117.157 524.324C117.86 524.856 118.798 524.923 119.735 524.524C120.79 523.991 121.375 523.26 121.727 522.528C122.43 520.932 123.133 519.402 123.719 517.805V517.539L117.509 517.007L117.743 516.009L124.188 516.541L125.008 514.479L118.329 513.881L118.563 512.816L125.477 513.349C125.711 512.949 125.828 512.617 126.063 512.284C126.648 511.087 127.234 509.89 128.64 508.825C130.047 507.761 131.687 507.096 134.148 507.162C135.202 507.162 136.257 507.362 136.96 507.828C137.077 507.894 137.312 508.027 137.312 508.16C137.312 508.426 137.312 508.759 136.96 508.958C136.491 509.158 135.905 509.091 135.437 508.825C135.085 508.626 134.851 508.426 134.499 508.227C133.796 507.695 132.742 507.628 131.921 508.094C131.336 508.426 130.75 508.892 130.398 509.358C129.578 510.754 128.992 512.218 128.172 513.681L134.616 514.213L134.148 515.211L127.937 514.679Z" fill="white"/>
<line x1="164.505" y1="462.947" x2="164.505" y2="482.684" stroke="white" stroke-width="2"/>
<line x1="163.161" y1="507.158" x2="163.161" y2="526.895" stroke="white" stroke-width="2"/>
<line x1="161.817" y1="549" x2="161.817" y2="568.737" stroke="white" stroke-width="2"/>
<path d="M195.624 467.747C195.448 467.747 195.288 467.811 195.176 467.939L193.816 469.283C193.688 469.443 193.624 469.603 193.624 469.763V471.987C193.624 472.163 193.688 472.323 193.816 472.451L195.16 473.811C195.288 473.939 195.448 474.003 195.624 474.003H196.184C196.392 474.003 196.504 474.115 196.504 474.323V477.315C196.504 477.523 196.392 477.635 196.184 477.635C195.992 477.635 195.848 477.571 195.736 477.443L195.128 476.835C195 476.723 194.936 476.579 194.936 476.387V476.179C194.936 475.811 194.648 475.539 194.28 475.539C193.912 475.539 193.624 475.811 193.624 476.179V476.915C193.624 477.091 193.688 477.251 193.816 477.411L195.176 478.755C195.288 478.883 195.448 478.947 195.624 478.947H196.184C196.392 478.947 196.504 479.059 196.504 479.267V479.491C196.504 479.859 196.792 480.147 197.16 480.147C197.528 480.147 197.816 479.859 197.816 479.491V479.267C197.816 479.059 197.928 478.947 198.136 478.947H198.68C198.872 478.947 199.016 478.883 199.128 478.755L200.52 477.411C200.632 477.267 200.696 477.091 200.696 476.915V474.707C200.696 474.515 200.632 474.355 200.52 474.243L199.144 472.883C199 472.739 198.856 472.675 198.68 472.675H198.136C197.928 472.675 197.816 472.563 197.816 472.355V469.363C197.816 469.155 197.928 469.059 198.136 469.059C198.328 469.059 198.472 469.123 198.584 469.251L199.176 469.859C199.288 469.971 199.384 470.131 199.384 470.307V470.499C199.384 470.867 199.672 471.155 200.04 471.155C200.408 471.155 200.696 470.867 200.696 470.499V469.763C200.696 469.587 200.632 469.427 200.52 469.283L199.128 467.939C199.016 467.811 198.872 467.747 198.68 467.747H198.136C197.928 467.747 197.816 467.635 197.816 467.427V467.203C197.816 466.835 197.528 466.547 197.16 466.547C196.792 466.547 196.504 466.835 196.504 467.203V467.427C196.504 467.635 196.392 467.747 196.184 467.747H195.624ZM196.504 472.371C196.504 472.579 196.392 472.675 196.184 472.675C195.992 472.675 195.848 472.611 195.736 472.483L195.128 471.891C195.016 471.779 194.936 471.603 194.936 471.427V470.307C194.936 470.115 195 469.971 195.128 469.859L195.736 469.251C195.848 469.139 196.024 469.059 196.2 469.059C196.408 469.059 196.504 469.155 196.504 469.363V472.371ZM197.816 474.307C197.816 474.099 197.928 474.003 198.136 474.003C198.312 474.003 198.472 474.067 198.6 474.195L199.176 474.803C199.288 474.915 199.384 475.091 199.384 475.267V476.387C199.384 476.563 199.288 476.723 199.176 476.835L198.584 477.443C198.472 477.571 198.328 477.635 198.12 477.635C197.912 477.635 197.816 477.523 197.816 477.315V474.307ZM216.972 476.819C216.972 477.267 216.62 477.635 216.156 477.635H215.484C215.116 477.635 214.828 477.923 214.828 478.291C214.828 478.659 215.116 478.947 215.484 478.947H219.772C220.14 478.947 220.428 478.659 220.428 478.291C220.428 477.923 220.14 477.635 219.772 477.635H219.1C218.636 477.635 218.284 477.267 218.284 476.819V468.403C218.284 468.035 218.012 467.747 217.644 467.747C217.436 467.747 217.26 467.811 217.148 467.923L215.004 470.067C214.892 470.179 214.828 470.355 214.828 470.563C214.828 470.931 215.116 471.203 215.484 471.203C215.66 471.203 215.82 471.139 215.964 471.011L216.668 470.291C216.716 470.243 216.78 470.211 216.828 470.211C216.924 470.211 216.972 470.275 216.972 470.419V476.819ZM229.383 478.947C229.575 478.947 229.719 478.883 229.831 478.755L231.223 477.411C231.335 477.267 231.399 477.107 231.399 476.931V474.707C231.399 474.515 231.335 474.355 231.223 474.243L230.887 473.923C230.727 473.747 230.647 473.555 230.647 473.347C230.647 473.139 230.727 472.947 230.887 472.771L231.223 472.451C231.335 472.339 231.399 472.179 231.399 471.987V469.763C231.399 469.587 231.335 469.427 231.223 469.283L229.831 467.939C229.719 467.811 229.575 467.747 229.383 467.747H226.327C226.151 467.747 225.991 467.811 225.879 467.939L224.519 469.283C224.391 469.443 224.327 469.603 224.327 469.763V471.987C224.327 472.163 224.391 472.323 224.519 472.451L224.839 472.771C224.983 472.931 225.063 473.123 225.063 473.347C225.063 473.571 224.983 473.763 224.839 473.923L224.519 474.243C224.391 474.371 224.327 474.531 224.327 474.707V476.931C224.327 477.091 224.391 477.251 224.519 477.411L225.879 478.755C225.991 478.883 226.151 478.947 226.327 478.947H229.383ZM229.879 469.859C229.991 469.971 230.087 470.131 230.087 470.307V471.427C230.087 471.603 230.007 471.779 229.895 471.891L229.303 472.499C229.175 472.627 229.015 472.691 228.823 472.691H226.887C226.711 472.691 226.519 472.611 226.407 472.499L225.831 471.891C225.719 471.779 225.639 471.603 225.639 471.427V470.307C225.639 470.115 225.703 469.971 225.831 469.859L226.423 469.251C226.535 469.139 226.711 469.059 226.887 469.059H228.823C229.031 469.059 229.175 469.123 229.287 469.251L229.879 469.859ZM229.879 474.803C229.991 474.915 230.087 475.091 230.087 475.267V476.387C230.087 476.563 229.991 476.723 229.879 476.835L229.287 477.443C229.175 477.571 229.031 477.635 228.823 477.635H226.887C226.711 477.635 226.535 477.555 226.423 477.443L225.831 476.835C225.703 476.723 225.639 476.579 225.639 476.387V475.267C225.639 475.091 225.703 474.915 225.815 474.803L226.407 474.195C226.519 474.083 226.711 474.003 226.887 474.003H228.823C229.015 474.003 229.175 474.067 229.303 474.195L229.879 474.803ZM237.761 476.995C237.393 476.995 237.121 477.299 237.121 477.667V478.291C237.121 478.659 237.393 478.947 237.761 478.947H238.129L237.441 479.635C237.329 479.763 237.281 479.891 237.281 480.019C237.281 480.323 237.489 480.531 237.793 480.531C237.953 480.531 238.081 480.483 238.177 480.387L238.865 479.715C238.993 479.555 239.057 479.395 239.057 479.235V477.667C239.057 477.299 238.769 476.995 238.401 476.995H237.761ZM249.851 478.947C250.043 478.947 250.187 478.883 250.299 478.755L251.691 477.411C251.803 477.267 251.867 477.107 251.867 476.931V474.707C251.867 474.515 251.803 474.355 251.691 474.243L251.355 473.923C251.195 473.747 251.115 473.555 251.115 473.347C251.115 473.139 251.195 472.947 251.355 472.771L251.691 472.451C251.803 472.339 251.867 472.179 251.867 471.987V469.763C251.867 469.587 251.803 469.427 251.691 469.283L250.299 467.939C250.187 467.811 250.043 467.747 249.851 467.747H246.795C246.619 467.747 246.459 467.811 246.347 467.939L244.987 469.283C244.859 469.443 244.795 469.603 244.795 469.763V471.987C244.795 472.163 244.859 472.323 244.987 472.451L245.307 472.771C245.451 472.931 245.531 473.123 245.531 473.347C245.531 473.571 245.451 473.763 245.307 473.923L244.987 474.243C244.859 474.371 244.795 474.531 244.795 474.707V476.931C244.795 477.091 244.859 477.251 244.987 477.411L246.347 478.755C246.459 478.883 246.619 478.947 246.795 478.947H249.851ZM250.347 469.859C250.459 469.971 250.555 470.131 250.555 470.307V471.427C250.555 471.603 250.475 471.779 250.363 471.891L249.771 472.499C249.643 472.627 249.483 472.691 249.291 472.691H247.355C247.179 472.691 246.987 472.611 246.875 472.499L246.299 471.891C246.187 471.779 246.107 471.603 246.107 471.427V470.307C246.107 470.115 246.171 469.971 246.299 469.859L246.891 469.251C247.003 469.139 247.179 469.059 247.355 469.059H249.291C249.499 469.059 249.643 469.123 249.755 469.251L250.347 469.859ZM250.347 474.803C250.459 474.915 250.555 475.091 250.555 475.267V476.387C250.555 476.563 250.459 476.723 250.347 476.835L249.755 477.443C249.643 477.571 249.499 477.635 249.291 477.635H247.355C247.179 477.635 247.003 477.555 246.891 477.443L246.299 476.835C246.171 476.723 246.107 476.579 246.107 476.387V475.267C246.107 475.091 246.171 474.915 246.283 474.803L246.875 474.195C246.987 474.083 247.179 474.003 247.355 474.003H249.291C249.483 474.003 249.643 474.067 249.771 474.195L250.347 474.803ZM260.086 478.947C260.278 478.947 260.422 478.883 260.534 478.755L261.926 477.411C262.038 477.267 262.102 477.107 262.102 476.931V474.707C262.102 474.515 262.038 474.355 261.926 474.243L261.59 473.923C261.43 473.747 261.35 473.555 261.35 473.347C261.35 473.139 261.43 472.947 261.59 472.771L261.926 472.451C262.038 472.339 262.102 472.179 262.102 471.987V469.763C262.102 469.587 262.038 469.427 261.926 469.283L260.534 467.939C260.422 467.811 260.278 467.747 260.086 467.747H257.03C256.854 467.747 256.694 467.811 256.582 467.939L255.222 469.283C255.094 469.443 255.03 469.603 255.03 469.763V471.987C255.03 472.163 255.094 472.323 255.222 472.451L255.542 472.771C255.686 472.931 255.766 473.123 255.766 473.347C255.766 473.571 255.686 473.763 255.542 473.923L255.222 474.243C255.094 474.371 255.03 474.531 255.03 474.707V476.931C255.03 477.091 255.094 477.251 255.222 477.411L256.582 478.755C256.694 478.883 256.854 478.947 257.03 478.947H260.086ZM260.582 469.859C260.694 469.971 260.79 470.131 260.79 470.307V471.427C260.79 471.603 260.71 471.779 260.598 471.891L260.006 472.499C259.878 472.627 259.718 472.691 259.526 472.691H257.59C257.414 472.691 257.222 472.611 257.11 472.499L256.534 471.891C256.422 471.779 256.342 471.603 256.342 471.427V470.307C256.342 470.115 256.406 469.971 256.534 469.859L257.126 469.251C257.238 469.139 257.414 469.059 257.59 469.059H259.526C259.734 469.059 259.878 469.123 259.99 469.251L260.582 469.859ZM260.582 474.803C260.694 474.915 260.79 475.091 260.79 475.267V476.387C260.79 476.563 260.694 476.723 260.582 476.835L259.99 477.443C259.878 477.571 259.734 477.635 259.526 477.635H257.59C257.414 477.635 257.238 477.555 257.126 477.443L256.534 476.835C256.406 476.723 256.342 476.579 256.342 476.387V475.267C256.342 475.091 256.406 474.915 256.518 474.803L257.11 474.195C257.222 474.083 257.414 474.003 257.59 474.003H259.526C259.718 474.003 259.878 474.067 260.006 474.195L260.582 474.803ZM270.32 478.947C270.512 478.947 270.656 478.883 270.768 478.755L272.16 477.411C272.272 477.267 272.336 477.107 272.336 476.931V474.707C272.336 474.515 272.272 474.355 272.16 474.243L271.824 473.923C271.664 473.747 271.584 473.555 271.584 473.347C271.584 473.139 271.664 472.947 271.824 472.771L272.16 472.451C272.272 472.339 272.336 472.179 272.336 471.987V469.763C272.336 469.587 272.272 469.427 272.16 469.283L270.768 467.939C270.656 467.811 270.512 467.747 270.32 467.747H267.264C267.088 467.747 266.928 467.811 266.816 467.939L265.456 469.283C265.328 469.443 265.264 469.603 265.264 469.763V471.987C265.264 472.163 265.328 472.323 265.456 472.451L265.776 472.771C265.92 472.931 266 473.123 266 473.347C266 473.571 265.92 473.763 265.776 473.923L265.456 474.243C265.328 474.371 265.264 474.531 265.264 474.707V476.931C265.264 477.091 265.328 477.251 265.456 477.411L266.816 478.755C266.928 478.883 267.088 478.947 267.264 478.947H270.32ZM270.816 469.859C270.928 469.971 271.024 470.131 271.024 470.307V471.427C271.024 471.603 270.944 471.779 270.832 471.891L270.24 472.499C270.112 472.627 269.952 472.691 269.76 472.691H267.824C267.648 472.691 267.456 472.611 267.344 472.499L266.768 471.891C266.656 471.779 266.576 471.603 266.576 471.427V470.307C266.576 470.115 266.64 469.971 266.768 469.859L267.36 469.251C267.472 469.139 267.648 469.059 267.824 469.059H269.76C269.968 469.059 270.112 469.123 270.224 469.251L270.816 469.859ZM270.816 474.803C270.928 474.915 271.024 475.091 271.024 475.267V476.387C271.024 476.563 270.928 476.723 270.816 476.835L270.224 477.443C270.112 477.571 269.968 477.635 269.76 477.635H267.824C267.648 477.635 267.472 477.555 267.36 477.443L266.768 476.835C266.64 476.723 266.576 476.579 266.576 476.387V475.267C266.576 475.091 266.64 474.915 266.752 474.803L267.344 474.195C267.456 474.083 267.648 474.003 267.824 474.003H269.76C269.952 474.003 270.112 474.067 270.24 474.195L270.816 474.803ZM279.435 478.947C279.803 478.947 280.091 478.659 280.091 478.291V477.491C280.091 477.123 279.803 476.835 279.435 476.835H278.619C278.251 476.835 277.979 477.123 277.979 477.491V478.291C277.979 478.659 278.251 478.947 278.619 478.947H279.435ZM287.061 470.307C287.061 470.115 287.125 469.971 287.253 469.859L287.845 469.251C287.957 469.139 288.133 469.059 288.309 469.059H290.229C290.437 469.059 290.581 469.123 290.693 469.251L291.317 469.891C291.429 469.987 291.493 470.115 291.493 470.259C291.493 470.387 291.429 470.563 291.317 470.643L285.925 476.035C285.797 476.163 285.733 476.323 285.733 476.515V478.291C285.733 478.659 286.021 478.947 286.389 478.947H292.149C292.517 478.947 292.805 478.659 292.805 478.291C292.805 477.923 292.517 477.635 292.149 477.635H287.861C287.493 477.635 287.093 477.363 287.093 476.963C287.093 476.819 287.141 476.691 287.253 476.611L292.629 471.235C292.757 471.107 292.805 470.947 292.805 470.771V469.763C292.805 469.603 292.741 469.443 292.613 469.283L291.237 467.939C291.125 467.811 290.981 467.747 290.789 467.747H287.749C287.573 467.747 287.413 467.811 287.301 467.939L285.925 469.283C285.797 469.443 285.733 469.603 285.733 469.763V470.499C285.733 470.867 286.021 471.155 286.389 471.155C286.757 471.155 287.061 470.867 287.061 470.499V470.307ZM297.295 470.307C297.295 470.115 297.359 469.971 297.487 469.859L298.079 469.251C298.191 469.139 298.367 469.059 298.543 469.059H300.463C300.671 469.059 300.815 469.123 300.927 469.251L301.519 469.859C301.631 469.971 301.727 470.131 301.727 470.307V471.427C301.727 471.603 301.647 471.779 301.535 471.891L300.943 472.499C300.815 472.627 300.655 472.691 300.463 472.691H298.623C298.239 472.691 297.951 472.979 297.951 473.347C297.951 473.715 298.239 474.003 298.623 474.003H300.463C300.655 474.003 300.815 474.067 300.943 474.195L301.519 474.803C301.631 474.915 301.727 475.091 301.727 475.267V476.387C301.727 476.563 301.631 476.723 301.519 476.835L300.927 477.443C300.815 477.571 300.671 477.635 300.463 477.635H298.543C298.367 477.635 298.191 477.555 298.079 477.443L297.487 476.835C297.359 476.723 297.295 476.579 297.295 476.387V476.179C297.295 475.811 296.991 475.539 296.623 475.539C296.255 475.539 295.967 475.811 295.967 476.179V476.931C295.967 477.091 296.031 477.251 296.159 477.411L297.535 478.755C297.647 478.883 297.807 478.947 297.983 478.947H301.023C301.215 478.947 301.359 478.883 301.471 478.755L302.863 477.411C302.975 477.267 303.039 477.107 303.039 476.931V474.707C303.039 474.515 302.975 474.355 302.863 474.243L302.527 473.923C302.367 473.747 302.287 473.555 302.287 473.347C302.287 473.139 302.367 472.947 302.527 472.771L302.863 472.451C302.975 472.339 303.039 472.179 303.039 471.987V469.763C303.039 469.587 302.975 469.427 302.863 469.283L301.471 467.939C301.359 467.811 301.215 467.747 301.023 467.747H297.983C297.807 467.747 297.647 467.811 297.535 467.939L296.159 469.283C296.031 469.443 295.967 469.603 295.967 469.763V470.499C295.967 470.867 296.255 471.155 296.623 471.155C296.991 471.155 297.295 470.867 297.295 470.499V470.307Z" fill="white"/>
<path d="M195.624 509.168C195.448 509.168 195.288 509.232 195.176 509.36L193.816 510.704C193.688 510.864 193.624 511.024 193.624 511.184V513.408C193.624 513.584 193.688 513.744 193.816 513.872L195.16 515.232C195.288 515.36 195.448 515.424 195.624 515.424H196.184C196.392 515.424 196.504 515.536 196.504 515.744V518.736C196.504 518.944 196.392 519.056 196.184 519.056C195.992 519.056 195.848 518.992 195.736 518.864L195.128 518.256C195 518.144 194.936 518 194.936 517.808V517.6C194.936 517.232 194.648 516.96 194.28 516.96C193.912 516.96 193.624 517.232 193.624 517.6V518.336C193.624 518.512 193.688 518.672 193.816 518.832L195.176 520.176C195.288 520.304 195.448 520.368 195.624 520.368H196.184C196.392 520.368 196.504 520.48 196.504 520.688V520.912C196.504 521.28 196.792 521.568 197.16 521.568C197.528 521.568 197.816 521.28 197.816 520.912V520.688C197.816 520.48 197.928 520.368 198.136 520.368H198.68C198.872 520.368 199.016 520.304 199.128 520.176L200.52 518.832C200.632 518.688 200.696 518.512 200.696 518.336V516.128C200.696 515.936 200.632 515.776 200.52 515.664L199.144 514.304C199 514.16 198.856 514.096 198.68 514.096H198.136C197.928 514.096 197.816 513.984 197.816 513.776V510.784C197.816 510.576 197.928 510.48 198.136 510.48C198.328 510.48 198.472 510.544 198.584 510.672L199.176 511.28C199.288 511.392 199.384 511.552 199.384 511.728V511.92C199.384 512.288 199.672 512.576 200.04 512.576C200.408 512.576 200.696 512.288 200.696 511.92V511.184C200.696 511.008 200.632 510.848 200.52 510.704L199.128 509.36C199.016 509.232 198.872 509.168 198.68 509.168H198.136C197.928 509.168 197.816 509.056 197.816 508.848V508.624C197.816 508.256 197.528 507.968 197.16 507.968C196.792 507.968 196.504 508.256 196.504 508.624V508.848C196.504 509.056 196.392 509.168 196.184 509.168H195.624ZM196.504 513.792C196.504 514 196.392 514.096 196.184 514.096C195.992 514.096 195.848 514.032 195.736 513.904L195.128 513.312C195.016 513.2 194.936 513.024 194.936 512.848V511.728C194.936 511.536 195 511.392 195.128 511.28L195.736 510.672C195.848 510.56 196.024 510.48 196.2 510.48C196.408 510.48 196.504 510.576 196.504 510.784V513.792ZM197.816 515.728C197.816 515.52 197.928 515.424 198.136 515.424C198.312 515.424 198.472 515.488 198.6 515.616L199.176 516.224C199.288 516.336 199.384 516.512 199.384 516.688V517.808C199.384 517.984 199.288 518.144 199.176 518.256L198.584 518.864C198.472 518.992 198.328 519.056 198.12 519.056C197.912 519.056 197.816 518.944 197.816 518.736V515.728ZM215.42 511.728C215.42 511.536 215.484 511.392 215.612 511.28L216.204 510.672C216.316 510.56 216.492 510.48 216.668 510.48H218.588C218.796 510.48 218.94 510.544 219.052 510.672L219.676 511.312C219.788 511.408 219.852 511.536 219.852 511.68C219.852 511.808 219.788 511.984 219.676 512.064L214.284 517.456C214.156 517.584 214.092 517.744 214.092 517.936V519.712C214.092 520.08 214.38 520.368 214.748 520.368H220.508C220.876 520.368 221.164 520.08 221.164 519.712C221.164 519.344 220.876 519.056 220.508 519.056H216.22C215.852 519.056 215.452 518.784 215.452 518.384C215.452 518.24 215.5 518.112 215.612 518.032L220.988 512.656C221.116 512.528 221.164 512.368 221.164 512.192V511.184C221.164 511.024 221.1 510.864 220.972 510.704L219.596 509.36C219.484 509.232 219.34 509.168 219.148 509.168H216.108C215.932 509.168 215.772 509.232 215.66 509.36L214.284 510.704C214.156 510.864 214.092 511.024 214.092 511.184V511.92C214.092 512.288 214.38 512.576 214.748 512.576C215.116 512.576 215.42 512.288 215.42 511.92V511.728ZM225.655 511.728C225.655 511.536 225.719 511.392 225.847 511.28L226.439 510.672C226.551 510.56 226.727 510.48 226.903 510.48H228.823C229.031 510.48 229.175 510.544 229.287 510.672L229.879 511.28C229.991 511.392 230.087 511.552 230.087 511.728V512.848C230.087 513.024 230.007 513.2 229.895 513.312L229.303 513.92C229.175 514.048 229.015 514.112 228.823 514.112H226.983C226.599 514.112 226.311 514.4 226.311 514.768C226.311 515.136 226.599 515.424 226.983 515.424H228.823C229.015 515.424 229.175 515.488 229.303 515.616L229.879 516.224C229.991 516.336 230.087 516.512 230.087 516.688V517.808C230.087 517.984 229.991 518.144 229.879 518.256L229.287 518.864C229.175 518.992 229.031 519.056 228.823 519.056H226.903C226.727 519.056 226.551 518.976 226.439 518.864L225.847 518.256C225.719 518.144 225.655 518 225.655 517.808V517.6C225.655 517.232 225.351 516.96 224.983 516.96C224.615 516.96 224.327 517.232 224.327 517.6V518.352C224.327 518.512 224.391 518.672 224.519 518.832L225.895 520.176C226.007 520.304 226.167 520.368 226.343 520.368H229.383C229.575 520.368 229.719 520.304 229.831 520.176L231.223 518.832C231.335 518.688 231.399 518.528 231.399 518.352V516.128C231.399 515.936 231.335 515.776 231.223 515.664L230.887 515.344C230.727 515.168 230.647 514.976 230.647 514.768C230.647 514.56 230.727 514.368 230.887 514.192L231.223 513.872C231.335 513.76 231.399 513.6 231.399 513.408V511.184C231.399 511.008 231.335 510.848 231.223 510.704L229.831 509.36C229.719 509.232 229.575 509.168 229.383 509.168H226.343C226.167 509.168 226.007 509.232 225.895 509.36L224.519 510.704C224.391 510.864 224.327 511.024 224.327 511.184V511.92C224.327 512.288 224.615 512.576 224.983 512.576C225.351 512.576 225.655 512.288 225.655 511.92V511.728ZM237.761 518.416C237.393 518.416 237.121 518.72 237.121 519.088V519.712C237.121 520.08 237.393 520.368 237.761 520.368H238.129L237.441 521.056C237.329 521.184 237.281 521.312 237.281 521.44C237.281 521.744 237.489 521.952 237.793 521.952C237.953 521.952 238.081 521.904 238.177 521.808L238.865 521.136C238.993 520.976 239.057 520.816 239.057 520.656V519.088C239.057 518.72 238.769 518.416 238.401 518.416H237.761ZM247.355 514.48C247.179 514.48 247.003 514.4 246.891 514.288L246.299 513.68C246.171 513.568 246.107 513.424 246.107 513.232V509.824C246.107 509.456 245.819 509.168 245.451 509.168C245.083 509.168 244.795 509.456 244.795 509.824V513.76C244.795 513.936 244.859 514.096 244.987 514.256L246.347 515.6C246.459 515.728 246.619 515.792 246.795 515.792H249.739C250.187 515.792 250.555 516.144 250.555 516.608V519.712C250.555 520.08 250.843 520.368 251.211 520.368C251.579 520.368 251.867 520.08 251.867 519.712V509.824C251.867 509.456 251.579 509.168 251.211 509.168C250.843 509.168 250.555 509.456 250.555 509.824V513.664C250.555 514.112 250.187 514.48 249.739 514.48H247.355ZM256.342 517.6C256.342 517.232 256.054 516.96 255.686 516.96C255.318 516.96 255.03 517.232 255.03 517.6V518.352C255.03 518.512 255.094 518.672 255.222 518.832L256.582 520.176C256.694 520.304 256.854 520.368 257.03 520.368H260.086C260.278 520.368 260.422 520.304 260.534 520.176L261.926 518.832C262.038 518.688 262.102 518.528 262.102 518.352V511.184C262.102 511.008 262.038 510.848 261.926 510.704L260.534 509.36C260.422 509.232 260.278 509.168 260.086 509.168H257.03C256.854 509.168 256.694 509.232 256.582 509.36L255.222 510.704C255.094 510.864 255.03 511.024 255.03 511.184V513.408C255.03 513.584 255.094 513.744 255.222 513.872L256.566 515.232C256.71 515.36 256.87 515.424 257.03 515.424H259.974C260.422 515.424 260.79 515.792 260.79 516.24V517.808C260.79 517.984 260.694 518.144 260.582 518.256L259.99 518.864C259.878 518.992 259.734 519.056 259.526 519.056H257.59C257.414 519.056 257.238 518.976 257.126 518.864L256.534 518.256C256.406 518.144 256.342 518 256.342 517.808V517.6ZM260.79 513.296C260.79 513.744 260.422 514.112 259.974 514.112H257.59C257.414 514.112 257.222 514.032 257.11 513.92L256.534 513.312C256.422 513.2 256.342 513.024 256.342 512.848V511.728C256.342 511.536 256.406 511.392 256.534 511.28L257.126 510.672C257.238 510.56 257.414 510.48 257.59 510.48H259.526C259.734 510.48 259.878 510.544 259.99 510.672L260.582 511.28C260.694 511.392 260.79 511.552 260.79 511.728V513.296ZM270.32 520.368C270.512 520.368 270.656 520.304 270.768 520.176L272.16 518.832C272.272 518.688 272.336 518.528 272.336 518.352V516.128C272.336 515.936 272.272 515.776 272.16 515.664L271.824 515.344C271.664 515.168 271.584 514.976 271.584 514.768C271.584 514.56 271.664 514.368 271.824 514.192L272.16 513.872C272.272 513.76 272.336 513.6 272.336 513.408V511.184C272.336 511.008 272.272 510.848 272.16 510.704L270.768 509.36C270.656 509.232 270.512 509.168 270.32 509.168H267.264C267.088 509.168 266.928 509.232 266.816 509.36L265.456 510.704C265.328 510.864 265.264 511.024 265.264 511.184V513.408C265.264 513.584 265.328 513.744 265.456 513.872L265.776 514.192C265.92 514.352 266 514.544 266 514.768C266 514.992 265.92 515.184 265.776 515.344L265.456 515.664C265.328 515.792 265.264 515.952 265.264 516.128V518.352C265.264 518.512 265.328 518.672 265.456 518.832L266.816 520.176C266.928 520.304 267.088 520.368 267.264 520.368H270.32ZM270.816 511.28C270.928 511.392 271.024 511.552 271.024 511.728V512.848C271.024 513.024 270.944 513.2 270.832 513.312L270.24 513.92C270.112 514.048 269.952 514.112 269.76 514.112H267.824C267.648 514.112 267.456 514.032 267.344 513.92L266.768 513.312C266.656 513.2 266.576 513.024 266.576 512.848V511.728C266.576 511.536 266.64 511.392 266.768 511.28L267.36 510.672C267.472 510.56 267.648 510.48 267.824 510.48H269.76C269.968 510.48 270.112 510.544 270.224 510.672L270.816 511.28ZM270.816 516.224C270.928 516.336 271.024 516.512 271.024 516.688V517.808C271.024 517.984 270.928 518.144 270.816 518.256L270.224 518.864C270.112 518.992 269.968 519.056 269.76 519.056H267.824C267.648 519.056 267.472 518.976 267.36 518.864L266.768 518.256C266.64 518.144 266.576 518 266.576 517.808V516.688C266.576 516.512 266.64 516.336 266.752 516.224L267.344 515.616C267.456 515.504 267.648 515.424 267.824 515.424H269.76C269.952 515.424 270.112 515.488 270.24 515.616L270.816 516.224ZM279.435 520.368C279.803 520.368 280.091 520.08 280.091 519.712V518.912C280.091 518.544 279.803 518.256 279.435 518.256H278.619C278.251 518.256 277.979 518.544 277.979 518.912V519.712C277.979 520.08 278.251 520.368 278.619 520.368H279.435ZM288.613 518.24C288.613 518.688 288.261 519.056 287.797 519.056H287.125C286.757 519.056 286.469 519.344 286.469 519.712C286.469 520.08 286.757 520.368 287.125 520.368H291.413C291.781 520.368 292.069 520.08 292.069 519.712C292.069 519.344 291.781 519.056 291.413 519.056H290.741C290.277 519.056 289.925 518.688 289.925 518.24V509.824C289.925 509.456 289.653 509.168 289.285 509.168C289.077 509.168 288.901 509.232 288.789 509.344L286.645 511.488C286.533 511.6 286.469 511.776 286.469 511.984C286.469 512.352 286.757 512.624 287.125 512.624C287.301 512.624 287.461 512.56 287.605 512.432L288.309 511.712C288.357 511.664 288.421 511.632 288.469 511.632C288.565 511.632 288.613 511.696 288.613 511.84V518.24ZM298.527 514.48C298.351 514.48 298.175 514.4 298.063 514.288L297.471 513.68C297.343 513.568 297.279 513.424 297.279 513.232V509.824C297.279 509.456 296.991 509.168 296.623 509.168C296.255 509.168 295.967 509.456 295.967 509.824V513.76C295.967 513.936 296.031 514.096 296.159 514.256L297.519 515.6C297.631 515.728 297.791 515.792 297.967 515.792H300.911C301.359 515.792 301.727 516.144 301.727 516.608V519.712C301.727 520.08 302.015 520.368 302.383 520.368C302.751 520.368 303.039 520.08 303.039 519.712V509.824C303.039 509.456 302.751 509.168 302.383 509.168C302.015 509.168 301.727 509.456 301.727 509.824V513.664C301.727 514.112 301.359 514.48 300.911 514.48H298.527Z" fill="white"/>
<path d="M197.277 551.01C197.101 551.01 196.941 551.074 196.829 551.202L195.469 552.546C195.341 552.706 195.277 552.866 195.277 553.026V555.25C195.277 555.426 195.341 555.586 195.469 555.714L196.813 557.074C196.941 557.202 197.101 557.266 197.277 557.266H197.837C198.045 557.266 198.157 557.378 198.157 557.586V560.578C198.157 560.786 198.045 560.898 197.837 560.898C197.645 560.898 197.501 560.834 197.389 560.706L196.781 560.098C196.653 559.986 196.589 559.842 196.589 559.65V559.442C196.589 559.074 196.301 558.802 195.933 558.802C195.565 558.802 195.277 559.074 195.277 559.442V560.178C195.277 560.354 195.341 560.514 195.469 560.674L196.829 562.018C196.941 562.146 197.101 562.21 197.277 562.21H197.837C198.045 562.21 198.157 562.322 198.157 562.53V562.754C198.157 563.122 198.445 563.41 198.813 563.41C199.181 563.41 199.469 563.122 199.469 562.754V562.53C199.469 562.322 199.581 562.21 199.789 562.21H200.333C200.525 562.21 200.669 562.146 200.781 562.018L202.173 560.674C202.285 560.53 202.349 560.354 202.349 560.178V557.97C202.349 557.778 202.285 557.618 202.173 557.506L200.797 556.146C200.653 556.002 200.509 555.938 200.333 555.938H199.789C199.581 555.938 199.469 555.826 199.469 555.618V552.626C199.469 552.418 199.581 552.322 199.789 552.322C199.981 552.322 200.125 552.386 200.237 552.514L200.829 553.122C200.941 553.234 201.037 553.394 201.037 553.57V553.762C201.037 554.13 201.325 554.418 201.693 554.418C202.061 554.418 202.349 554.13 202.349 553.762V553.026C202.349 552.85 202.285 552.69 202.173 552.546L200.781 551.202C200.669 551.074 200.525 551.01 200.333 551.01H199.789C199.581 551.01 199.469 550.898 199.469 550.69V550.466C199.469 550.098 199.181 549.81 198.813 549.81C198.445 549.81 198.157 550.098 198.157 550.466V550.69C198.157 550.898 198.045 551.01 197.837 551.01H197.277ZM198.157 555.634C198.157 555.842 198.045 555.938 197.837 555.938C197.645 555.938 197.501 555.874 197.389 555.746L196.781 555.154C196.669 555.042 196.589 554.866 196.589 554.69V553.57C196.589 553.378 196.653 553.234 196.781 553.122L197.389 552.514C197.501 552.402 197.677 552.322 197.853 552.322C198.061 552.322 198.157 552.418 198.157 552.626V555.634ZM199.469 557.57C199.469 557.362 199.581 557.266 199.789 557.266C199.965 557.266 200.125 557.33 200.253 557.458L200.829 558.066C200.941 558.178 201.037 558.354 201.037 558.53V559.65C201.037 559.826 200.941 559.986 200.829 560.098L200.237 560.706C200.125 560.834 199.981 560.898 199.773 560.898C199.565 560.898 199.469 560.786 199.469 560.578V557.57ZM218.626 560.082C218.626 560.53 218.274 560.898 217.81 560.898H217.138C216.77 560.898 216.482 561.186 216.482 561.554C216.482 561.922 216.77 562.21 217.138 562.21H221.426C221.794 562.21 222.082 561.922 222.082 561.554C222.082 561.186 221.794 560.898 221.426 560.898H220.754C220.29 560.898 219.938 560.53 219.938 560.082V551.666C219.938 551.298 219.666 551.01 219.298 551.01C219.09 551.01 218.914 551.074 218.802 551.186L216.658 553.33C216.546 553.442 216.482 553.618 216.482 553.826C216.482 554.194 216.77 554.466 217.138 554.466C217.314 554.466 217.474 554.402 217.618 554.274L218.322 553.554C218.37 553.506 218.434 553.474 218.482 553.474C218.578 553.474 218.626 553.538 218.626 553.682V560.082ZM228.86 560.082C228.86 560.53 228.508 560.898 228.044 560.898H227.372C227.004 560.898 226.716 561.186 226.716 561.554C226.716 561.922 227.004 562.21 227.372 562.21H231.66C232.028 562.21 232.316 561.922 232.316 561.554C232.316 561.186 232.028 560.898 231.66 560.898H230.988C230.524 560.898 230.172 560.53 230.172 560.082V551.666C230.172 551.298 229.9 551.01 229.532 551.01C229.324 551.01 229.148 551.074 229.036 551.186L226.892 553.33C226.78 553.442 226.716 553.618 226.716 553.826C226.716 554.194 227.004 554.466 227.372 554.466C227.548 554.466 227.708 554.402 227.852 554.274L228.556 553.554C228.604 553.506 228.668 553.474 228.716 553.474C228.812 553.474 228.86 553.538 228.86 553.682V560.082ZM239.414 560.258C239.046 560.258 238.774 560.562 238.774 560.93V561.554C238.774 561.922 239.046 562.21 239.414 562.21H239.782L239.094 562.898C238.982 563.026 238.934 563.154 238.934 563.282C238.934 563.586 239.142 563.794 239.446 563.794C239.606 563.794 239.734 563.746 239.83 563.65L240.518 562.978C240.646 562.818 240.71 562.658 240.71 562.498V560.93C240.71 560.562 240.422 560.258 240.054 560.258H239.414ZM247.777 553.57C247.777 553.378 247.841 553.234 247.969 553.122L248.561 552.514C248.673 552.402 248.849 552.322 249.025 552.322H250.945C251.153 552.322 251.297 552.386 251.409 552.514L252.033 553.154C252.145 553.25 252.209 553.378 252.209 553.522C252.209 553.65 252.145 553.826 252.033 553.906L246.641 559.298C246.513 559.426 246.449 559.586 246.449 559.778V561.554C246.449 561.922 246.737 562.21 247.105 562.21H252.865C253.233 562.21 253.521 561.922 253.521 561.554C253.521 561.186 253.233 560.898 252.865 560.898H248.577C248.209 560.898 247.809 560.626 247.809 560.226C247.809 560.082 247.857 559.954 247.969 559.874L253.345 554.498C253.473 554.37 253.521 554.21 253.521 554.034V553.026C253.521 552.866 253.457 552.706 253.329 552.546L251.953 551.202C251.841 551.074 251.697 551.01 251.505 551.01H248.465C248.289 551.01 248.129 551.074 248.017 551.202L246.641 552.546C246.513 552.706 246.449 552.866 246.449 553.026V553.762C246.449 554.13 246.737 554.418 247.105 554.418C247.473 554.418 247.777 554.13 247.777 553.762V553.57ZM258.011 553.57C258.011 553.378 258.075 553.234 258.203 553.122L258.795 552.514C258.907 552.402 259.083 552.322 259.259 552.322H261.179C261.387 552.322 261.531 552.386 261.643 552.514L262.235 553.122C262.347 553.234 262.443 553.394 262.443 553.57V554.69C262.443 554.866 262.363 555.042 262.251 555.154L261.659 555.762C261.531 555.89 261.371 555.954 261.179 555.954H259.339C258.955 555.954 258.667 556.242 258.667 556.61C258.667 556.978 258.955 557.266 259.339 557.266H261.179C261.371 557.266 261.531 557.33 261.659 557.458L262.235 558.066C262.347 558.178 262.443 558.354 262.443 558.53V559.65C262.443 559.826 262.347 559.986 262.235 560.098L261.643 560.706C261.531 560.834 261.387 560.898 261.179 560.898H259.259C259.083 560.898 258.907 560.818 258.795 560.706L258.203 560.098C258.075 559.986 258.011 559.842 258.011 559.65V559.442C258.011 559.074 257.707 558.802 257.339 558.802C256.971 558.802 256.683 559.074 256.683 559.442V560.194C256.683 560.354 256.747 560.514 256.875 560.674L258.251 562.018C258.363 562.146 258.523 562.21 258.699 562.21H261.739C261.931 562.21 262.075 562.146 262.187 562.018L263.579 560.674C263.691 560.53 263.755 560.37 263.755 560.194V557.97C263.755 557.778 263.691 557.618 263.579 557.506L263.243 557.186C263.083 557.01 263.003 556.818 263.003 556.61C263.003 556.402 263.083 556.21 263.243 556.034L263.579 555.714C263.691 555.602 263.755 555.442 263.755 555.25V553.026C263.755 552.85 263.691 552.69 263.579 552.546L262.187 551.202C262.075 551.074 261.931 551.01 261.739 551.01H258.699C258.523 551.01 258.363 551.074 258.251 551.202L256.875 552.546C256.747 552.706 256.683 552.866 256.683 553.026V553.762C256.683 554.13 256.971 554.418 257.339 554.418C257.707 554.418 258.011 554.13 258.011 553.762V553.57ZM272.677 553.762C272.677 554.13 272.965 554.418 273.333 554.418C273.701 554.418 273.989 554.13 273.989 553.762V553.026C273.989 552.85 273.925 552.69 273.813 552.546L272.421 551.202C272.309 551.074 272.165 551.01 271.957 551.01H268.917C268.741 551.01 268.581 551.074 268.469 551.202L267.109 552.546C266.981 552.706 266.917 552.866 266.917 553.026V560.194C266.917 560.354 266.981 560.514 267.109 560.674L268.469 562.018C268.581 562.146 268.741 562.21 268.917 562.21H271.957C272.165 562.21 272.309 562.146 272.421 562.018L273.813 560.674C273.925 560.53 273.989 560.37 273.989 560.194V557.97C273.989 557.778 273.925 557.618 273.813 557.506L272.437 556.146C272.293 556.018 272.133 555.954 271.957 555.954H269.029C268.581 555.954 268.229 555.586 268.229 555.138V553.57C268.229 553.378 268.293 553.234 268.421 553.122L269.013 552.514C269.125 552.402 269.301 552.322 269.477 552.322H271.413C271.621 552.322 271.765 552.386 271.877 552.514L272.469 553.122C272.581 553.234 272.677 553.394 272.677 553.57V553.762ZM268.229 558.082C268.229 557.634 268.581 557.266 269.029 557.266H271.413C271.605 557.266 271.765 557.33 271.893 557.458L272.469 558.066C272.581 558.178 272.677 558.354 272.677 558.53V559.65C272.677 559.826 272.581 559.986 272.469 560.098L271.877 560.706C271.765 560.834 271.621 560.898 271.413 560.898H269.477C269.301 560.898 269.125 560.818 269.013 560.706L268.421 560.098C268.293 559.986 268.229 559.842 268.229 559.65V558.082ZM281.088 562.21C281.456 562.21 281.744 561.922 281.744 561.554V560.754C281.744 560.386 281.456 560.098 281.088 560.098H280.272C279.904 560.098 279.632 560.386 279.632 560.754V561.554C279.632 561.922 279.904 562.21 280.272 562.21H281.088ZM291.578 557.154C291.578 556.962 291.642 556.818 291.77 556.706L294.282 554.21C294.394 554.098 294.458 553.938 294.458 553.73V551.666C294.458 551.298 294.17 551.01 293.802 551.01H288.042C287.674 551.01 287.386 551.298 287.386 551.666C287.386 552.034 287.674 552.322 288.042 552.322H292.33C292.778 552.322 293.146 552.69 293.146 553.138V553.186C293.146 553.362 293.05 553.522 292.938 553.634L290.442 556.146C290.33 556.258 290.266 556.418 290.266 556.61V561.554C290.266 561.922 290.554 562.21 290.938 562.21C291.306 562.21 291.578 561.922 291.578 561.554V557.154ZM303.381 553.762C303.381 554.13 303.669 554.418 304.037 554.418C304.405 554.418 304.693 554.13 304.693 553.762V553.026C304.693 552.85 304.629 552.69 304.517 552.546L303.125 551.202C303.013 551.074 302.869 551.01 302.661 551.01H299.621C299.445 551.01 299.285 551.074 299.173 551.202L297.813 552.546C297.685 552.706 297.621 552.866 297.621 553.026V560.194C297.621 560.354 297.685 560.514 297.813 560.674L299.173 562.018C299.285 562.146 299.445 562.21 299.621 562.21H302.661C302.869 562.21 303.013 562.146 303.125 562.018L304.517 560.674C304.629 560.53 304.693 560.37 304.693 560.194V557.97C304.693 557.778 304.629 557.618 304.517 557.506L303.141 556.146C302.997 556.018 302.837 555.954 302.661 555.954H299.733C299.285 555.954 298.933 555.586 298.933 555.138V553.57C298.933 553.378 298.997 553.234 299.125 553.122L299.717 552.514C299.829 552.402 300.005 552.322 300.181 552.322H302.117C302.325 552.322 302.469 552.386 302.581 552.514L303.173 553.122C303.285 553.234 303.381 553.394 303.381 553.57V553.762ZM298.933 558.082C298.933 557.634 299.285 557.266 299.733 557.266H302.117C302.309 557.266 302.469 557.33 302.597 557.458L303.173 558.066C303.285 558.178 303.381 558.354 303.381 558.53V559.65C303.381 559.826 303.285 559.986 303.173 560.098L302.581 560.706C302.469 560.834 302.325 560.898 302.117 560.898H300.181C300.005 560.898 299.829 560.818 299.717 560.706L299.125 560.098C298.997 559.986 298.933 559.842 298.933 559.65V558.082Z" fill="white"/>
<mask id="path-32-inside-1_40_7" fill="white">
<path d="M3 215C3 210.582 6.58172 207 11 207H694C698.418 207 702 210.582 702 215V229H3V215Z"/>
</mask>
<path d="M3 215C3 210.582 6.58172 207 11 207H694C698.418 207 702 210.582 702 215V229H3V215Z" fill="#C2DFFD"/>
<path d="M3 207H702H3ZM702 230H3V228H702V230ZM3 229V207V229ZM702 207V229V207Z" fill="#232323" mask="url(#path-32-inside-1_40_7)"/>
<circle cx="18.5" cy="217.5" r="4.5" fill="#FF6161"/>
<circle cx="34.5" cy="217.5" r="4.5" fill="#FFD361"/>
<circle cx="50.5" cy="217.5" r="4.5" fill="#0DF083"/>
<defs>
<clipPath id="clip0_40_7">
<rect width="43" height="38" fill="white" transform="translate(272 113)"/>
</clipPath>
<clipPath id="clip1_40_7">
<rect width="30.914" height="15.7895" fill="white" transform="translate(112.883 467.526)"/>
</clipPath>
<clipPath id="clip2_40_7">
<rect width="41.9651" height="33" fill="white" transform="translate(105.981 548)"/>
</clipPath>
</defs>
</svg>
