<svg width="705" height="423" viewBox="0 0 705 423" fill="none" xmlns="http://www.w3.org/2000/svg">
<rect x="1.25" y="1.25" width="702.5" height="420.5" rx="10.75" fill="white" stroke="#302F2F" stroke-width="2.5"/>
<rect x="86" y="66" width="294" height="160" rx="11" fill="white" stroke="#302F2F" stroke-width="2"/>
<path d="M250.907 143.978C252.427 145.184 252.417 147.494 250.889 148.69L224.872 169.047C222.898 170.592 220.014 169.181 220.024 166.675L220.186 125.791C220.196 123.286 223.091 121.894 225.052 123.451L250.907 143.978Z" fill="#302F2F"/>
<rect x="479" y="66" width="148.553" height="88.535" rx="11" fill="white" stroke="#302F2F" stroke-width="2"/>
<path d="M560.825 108.225C562.202 109.427 562.194 111.57 560.809 112.761L548.003 123.771C546.054 125.446 543.038 124.055 543.047 121.485L543.127 99.3735C543.136 96.8033 546.162 95.434 548.099 97.1236L560.825 108.225Z" fill="#302F2F"/>
<rect x="479" y="174.732" width="148.553" height="88.535" rx="11" fill="white" stroke="#302F2F" stroke-width="2"/>
<path d="M560.825 216.958C562.202 218.159 562.194 220.302 560.809 221.493L548.003 232.503C546.054 234.179 543.038 232.788 543.047 230.218L543.127 208.106C543.136 205.536 546.162 204.167 548.099 205.856L560.825 216.958Z" fill="#302F2F"/>
<rect x="479" y="283.465" width="148.553" height="88.535" rx="11" fill="white" stroke="#302F2F" stroke-width="2"/>
<path d="M560.825 325.69C562.202 326.892 562.194 329.035 560.809 330.226L548.003 341.236C546.054 342.911 543.038 341.52 543.047 338.95L543.127 316.838C543.136 314.268 546.162 312.899 548.099 314.589L560.825 325.69Z" fill="#302F2F"/>
<path d="M88.9889 262C88.9889 258.134 92.1229 255 95.9889 255H375C378.866 255 382 258.134 382 262V278C382 281.866 378.866 285 375 285H95.9889C92.1229 285 88.9889 281.866 88.9889 278V262Z" fill="#302F2F"/>
<path d="M90.2173 345.684C90.2173 341.818 93.3513 338.684 97.2173 338.684H375C378.866 338.684 382 341.818 382 345.684V360.105C382 363.971 378.866 367.105 375 367.105H97.2173C93.3513 367.105 90.2173 363.971 90.2173 360.105V345.684Z" fill="#302F2F"/>
<path d="M88.9889 303.842C88.9889 299.976 92.1229 296.842 95.9889 296.842H375C378.866 296.842 382 299.976 382 303.842V319.842C382 323.708 378.866 326.842 375 326.842H95.9889C92.1229 326.842 88.9889 323.708 88.9889 319.842V303.842Z" fill="#302F2F"/>
<g clip-path="url(#clip0_15_63)">
<path d="M131.866 267.427C131.408 267.273 130.819 267.273 130.295 267.427L126.63 268.691L124.142 269.496L120.542 270.761C120.084 270.914 119.495 270.914 118.971 270.761L116.156 269.764C115.698 269.611 115.371 269.304 115.371 268.959V267.043C115.371 266.737 115.633 266.43 116.156 266.239L118.971 265.28C119.429 265.127 120.018 265.127 120.542 265.28L123.357 266.277C123.815 266.43 124.142 266.737 124.142 267.082V268.346L126.63 267.503V266.2C126.63 265.894 126.368 265.587 125.844 265.395L120.608 263.594C120.149 263.441 119.56 263.441 119.037 263.594L113.669 265.434C113.145 265.587 112.883 265.894 112.883 266.2V269.803C112.883 270.109 113.145 270.416 113.669 270.607L118.971 272.409C119.429 272.562 120.018 272.562 120.542 272.409L124.142 271.182L126.63 270.339L130.23 269.113C130.688 268.959 131.277 268.959 131.801 269.113L134.616 270.071C135.074 270.224 135.401 270.531 135.401 270.876V272.792C135.401 273.098 135.139 273.405 134.616 273.597L131.866 274.555C131.408 274.708 130.819 274.708 130.295 274.555L127.481 273.597C127.022 273.443 126.695 273.137 126.695 272.792V271.565L124.208 272.409V273.673C124.208 273.98 124.47 274.286 124.993 274.478L130.295 276.279C130.754 276.433 131.343 276.433 131.866 276.279L137.169 274.478C137.627 274.325 137.954 274.018 137.954 273.673V270.033C137.954 269.726 137.692 269.419 137.169 269.228L131.866 267.427Z" fill="#FCFCFC"/>
</g>
<g clip-path="url(#clip1_15_63)">
<path d="M134.6 357.877L127.717 344.793C127.329 344.116 126.752 343.786 125.991 343.786H125.383C124.622 343.786 124.045 344.116 123.657 344.793L120.662 350.494H118.396C117.719 350.498 117.168 350.927 117.163 351.463V351.475C117.168 352.007 117.719 352.441 118.396 352.445H119.613L116.754 357.877C116.701 357.997 116.67 358.121 116.67 358.248C116.67 358.554 116.791 358.793 117.006 358.979C117.221 359.164 117.53 359.255 117.918 359.255C118.175 359.251 118.422 359.189 118.627 359.069C118.847 358.95 118.999 358.776 119.12 358.578L122.267 352.441H124.449C125.126 352.436 125.677 352.007 125.682 351.471V351.446C125.677 350.914 125.126 350.481 124.449 350.477H123.285L125.687 345.77L132.234 358.574C132.354 358.772 132.507 358.946 132.727 359.065C132.931 359.185 133.183 359.247 133.435 359.251C133.823 359.251 134.127 359.16 134.348 358.974C134.568 358.789 134.683 358.55 134.683 358.244C134.689 358.121 134.662 357.993 134.6 357.877Z" fill="#FDFDFD"/>
</g>
<path fill-rule="evenodd" clip-rule="evenodd" d="M127.937 310.679L127.234 312.808L133.913 313.34L133.445 314.337L126.883 313.805C126.414 314.67 126.18 315.601 125.594 316.399C125.008 317.331 124.422 318.262 123.719 319.127C122.782 320.257 121.141 321.056 118.915 321.255C117.626 321.388 116.22 321.322 115.165 320.856C114.814 320.723 114.462 320.457 114.462 320.257C114.462 319.991 114.696 319.659 115.048 319.526C115.282 319.459 115.868 319.526 116.22 319.592C116.571 319.792 116.923 320.058 117.157 320.324C117.86 320.856 118.798 320.923 119.735 320.524C120.79 319.991 121.375 319.26 121.727 318.528C122.43 316.932 123.133 315.402 123.719 313.805V313.539L117.509 313.007L117.743 312.009L124.188 312.541L125.008 310.479L118.329 309.881L118.563 308.816L125.477 309.349C125.711 308.949 125.828 308.617 126.063 308.284C126.648 307.087 127.234 305.89 128.64 304.825C130.047 303.761 131.687 303.096 134.148 303.162C135.202 303.162 136.257 303.362 136.96 303.828C137.077 303.894 137.312 304.027 137.312 304.16C137.312 304.426 137.312 304.759 136.96 304.958C136.491 305.158 135.905 305.091 135.437 304.825C135.085 304.626 134.851 304.426 134.499 304.227C133.796 303.695 132.742 303.628 131.921 304.094C131.336 304.426 130.75 304.892 130.398 305.358C129.578 306.754 128.992 308.218 128.172 309.681L134.616 310.213L134.148 311.211L127.937 310.679Z" fill="white"/>
<line x1="164.505" y1="258.947" x2="164.505" y2="278.684" stroke="white" stroke-width="2"/>
<line x1="163.161" y1="303.158" x2="163.161" y2="322.895" stroke="white" stroke-width="2"/>
<line x1="161.817" y1="345" x2="161.817" y2="364.737" stroke="white" stroke-width="2"/>
<path d="M195.624 263.747C195.448 263.747 195.288 263.811 195.176 263.939L193.816 265.283C193.688 265.443 193.624 265.603 193.624 265.763V267.987C193.624 268.163 193.688 268.323 193.816 268.451L195.16 269.811C195.288 269.939 195.448 270.003 195.624 270.003H196.184C196.392 270.003 196.504 270.115 196.504 270.323V273.315C196.504 273.523 196.392 273.635 196.184 273.635C195.992 273.635 195.848 273.571 195.736 273.443L195.128 272.835C195 272.723 194.936 272.579 194.936 272.387V272.179C194.936 271.811 194.648 271.539 194.28 271.539C193.912 271.539 193.624 271.811 193.624 272.179V272.915C193.624 273.091 193.688 273.251 193.816 273.411L195.176 274.755C195.288 274.883 195.448 274.947 195.624 274.947H196.184C196.392 274.947 196.504 275.059 196.504 275.267V275.491C196.504 275.859 196.792 276.147 197.16 276.147C197.528 276.147 197.816 275.859 197.816 275.491V275.267C197.816 275.059 197.928 274.947 198.136 274.947H198.68C198.872 274.947 199.016 274.883 199.128 274.755L200.52 273.411C200.632 273.267 200.696 273.091 200.696 272.915V270.707C200.696 270.515 200.632 270.355 200.52 270.243L199.144 268.883C199 268.739 198.856 268.675 198.68 268.675H198.136C197.928 268.675 197.816 268.563 197.816 268.355V265.363C197.816 265.155 197.928 265.059 198.136 265.059C198.328 265.059 198.472 265.123 198.584 265.251L199.176 265.859C199.288 265.971 199.384 266.131 199.384 266.307V266.499C199.384 266.867 199.672 267.155 200.04 267.155C200.408 267.155 200.696 266.867 200.696 266.499V265.763C200.696 265.587 200.632 265.427 200.52 265.283L199.128 263.939C199.016 263.811 198.872 263.747 198.68 263.747H198.136C197.928 263.747 197.816 263.635 197.816 263.427V263.203C197.816 262.835 197.528 262.547 197.16 262.547C196.792 262.547 196.504 262.835 196.504 263.203V263.427C196.504 263.635 196.392 263.747 196.184 263.747H195.624ZM196.504 268.371C196.504 268.579 196.392 268.675 196.184 268.675C195.992 268.675 195.848 268.611 195.736 268.483L195.128 267.891C195.016 267.779 194.936 267.603 194.936 267.427V266.307C194.936 266.115 195 265.971 195.128 265.859L195.736 265.251C195.848 265.139 196.024 265.059 196.2 265.059C196.408 265.059 196.504 265.155 196.504 265.363V268.371ZM197.816 270.307C197.816 270.099 197.928 270.003 198.136 270.003C198.312 270.003 198.472 270.067 198.6 270.195L199.176 270.803C199.288 270.915 199.384 271.091 199.384 271.267V272.387C199.384 272.563 199.288 272.723 199.176 272.835L198.584 273.443C198.472 273.571 198.328 273.635 198.12 273.635C197.912 273.635 197.816 273.523 197.816 273.315V270.307ZM216.972 272.819C216.972 273.267 216.62 273.635 216.156 273.635H215.484C215.116 273.635 214.828 273.923 214.828 274.291C214.828 274.659 215.116 274.947 215.484 274.947H219.772C220.14 274.947 220.428 274.659 220.428 274.291C220.428 273.923 220.14 273.635 219.772 273.635H219.1C218.636 273.635 218.284 273.267 218.284 272.819V264.403C218.284 264.035 218.012 263.747 217.644 263.747C217.436 263.747 217.26 263.811 217.148 263.923L215.004 266.067C214.892 266.179 214.828 266.355 214.828 266.563C214.828 266.931 215.116 267.203 215.484 267.203C215.66 267.203 215.82 267.139 215.964 267.011L216.668 266.291C216.716 266.243 216.78 266.211 216.828 266.211C216.924 266.211 216.972 266.275 216.972 266.419V272.819ZM229.383 274.947C229.575 274.947 229.719 274.883 229.831 274.755L231.223 273.411C231.335 273.267 231.399 273.107 231.399 272.931V270.707C231.399 270.515 231.335 270.355 231.223 270.243L230.887 269.923C230.727 269.747 230.647 269.555 230.647 269.347C230.647 269.139 230.727 268.947 230.887 268.771L231.223 268.451C231.335 268.339 231.399 268.179 231.399 267.987V265.763C231.399 265.587 231.335 265.427 231.223 265.283L229.831 263.939C229.719 263.811 229.575 263.747 229.383 263.747H226.327C226.151 263.747 225.991 263.811 225.879 263.939L224.519 265.283C224.391 265.443 224.327 265.603 224.327 265.763V267.987C224.327 268.163 224.391 268.323 224.519 268.451L224.839 268.771C224.983 268.931 225.063 269.123 225.063 269.347C225.063 269.571 224.983 269.763 224.839 269.923L224.519 270.243C224.391 270.371 224.327 270.531 224.327 270.707V272.931C224.327 273.091 224.391 273.251 224.519 273.411L225.879 274.755C225.991 274.883 226.151 274.947 226.327 274.947H229.383ZM229.879 265.859C229.991 265.971 230.087 266.131 230.087 266.307V267.427C230.087 267.603 230.007 267.779 229.895 267.891L229.303 268.499C229.175 268.627 229.015 268.691 228.823 268.691H226.887C226.711 268.691 226.519 268.611 226.407 268.499L225.831 267.891C225.719 267.779 225.639 267.603 225.639 267.427V266.307C225.639 266.115 225.703 265.971 225.831 265.859L226.423 265.251C226.535 265.139 226.711 265.059 226.887 265.059H228.823C229.031 265.059 229.175 265.123 229.287 265.251L229.879 265.859ZM229.879 270.803C229.991 270.915 230.087 271.091 230.087 271.267V272.387C230.087 272.563 229.991 272.723 229.879 272.835L229.287 273.443C229.175 273.571 229.031 273.635 228.823 273.635H226.887C226.711 273.635 226.535 273.555 226.423 273.443L225.831 272.835C225.703 272.723 225.639 272.579 225.639 272.387V271.267C225.639 271.091 225.703 270.915 225.815 270.803L226.407 270.195C226.519 270.083 226.711 270.003 226.887 270.003H228.823C229.015 270.003 229.175 270.067 229.303 270.195L229.879 270.803ZM237.761 272.995C237.393 272.995 237.121 273.299 237.121 273.667V274.291C237.121 274.659 237.393 274.947 237.761 274.947H238.129L237.441 275.635C237.329 275.763 237.281 275.891 237.281 276.019C237.281 276.323 237.489 276.531 237.793 276.531C237.953 276.531 238.081 276.483 238.177 276.387L238.865 275.715C238.993 275.555 239.057 275.395 239.057 275.235V273.667C239.057 273.299 238.769 272.995 238.401 272.995H237.761ZM249.851 274.947C250.043 274.947 250.187 274.883 250.299 274.755L251.691 273.411C251.803 273.267 251.867 273.107 251.867 272.931V270.707C251.867 270.515 251.803 270.355 251.691 270.243L251.355 269.923C251.195 269.747 251.115 269.555 251.115 269.347C251.115 269.139 251.195 268.947 251.355 268.771L251.691 268.451C251.803 268.339 251.867 268.179 251.867 267.987V265.763C251.867 265.587 251.803 265.427 251.691 265.283L250.299 263.939C250.187 263.811 250.043 263.747 249.851 263.747H246.795C246.619 263.747 246.459 263.811 246.347 263.939L244.987 265.283C244.859 265.443 244.795 265.603 244.795 265.763V267.987C244.795 268.163 244.859 268.323 244.987 268.451L245.307 268.771C245.451 268.931 245.531 269.123 245.531 269.347C245.531 269.571 245.451 269.763 245.307 269.923L244.987 270.243C244.859 270.371 244.795 270.531 244.795 270.707V272.931C244.795 273.091 244.859 273.251 244.987 273.411L246.347 274.755C246.459 274.883 246.619 274.947 246.795 274.947H249.851ZM250.347 265.859C250.459 265.971 250.555 266.131 250.555 266.307V267.427C250.555 267.603 250.475 267.779 250.363 267.891L249.771 268.499C249.643 268.627 249.483 268.691 249.291 268.691H247.355C247.179 268.691 246.987 268.611 246.875 268.499L246.299 267.891C246.187 267.779 246.107 267.603 246.107 267.427V266.307C246.107 266.115 246.171 265.971 246.299 265.859L246.891 265.251C247.003 265.139 247.179 265.059 247.355 265.059H249.291C249.499 265.059 249.643 265.123 249.755 265.251L250.347 265.859ZM250.347 270.803C250.459 270.915 250.555 271.091 250.555 271.267V272.387C250.555 272.563 250.459 272.723 250.347 272.835L249.755 273.443C249.643 273.571 249.499 273.635 249.291 273.635H247.355C247.179 273.635 247.003 273.555 246.891 273.443L246.299 272.835C246.171 272.723 246.107 272.579 246.107 272.387V271.267C246.107 271.091 246.171 270.915 246.283 270.803L246.875 270.195C246.987 270.083 247.179 270.003 247.355 270.003H249.291C249.483 270.003 249.643 270.067 249.771 270.195L250.347 270.803ZM260.086 274.947C260.278 274.947 260.422 274.883 260.534 274.755L261.926 273.411C262.038 273.267 262.102 273.107 262.102 272.931V270.707C262.102 270.515 262.038 270.355 261.926 270.243L261.59 269.923C261.43 269.747 261.35 269.555 261.35 269.347C261.35 269.139 261.43 268.947 261.59 268.771L261.926 268.451C262.038 268.339 262.102 268.179 262.102 267.987V265.763C262.102 265.587 262.038 265.427 261.926 265.283L260.534 263.939C260.422 263.811 260.278 263.747 260.086 263.747H257.03C256.854 263.747 256.694 263.811 256.582 263.939L255.222 265.283C255.094 265.443 255.03 265.603 255.03 265.763V267.987C255.03 268.163 255.094 268.323 255.222 268.451L255.542 268.771C255.686 268.931 255.766 269.123 255.766 269.347C255.766 269.571 255.686 269.763 255.542 269.923L255.222 270.243C255.094 270.371 255.03 270.531 255.03 270.707V272.931C255.03 273.091 255.094 273.251 255.222 273.411L256.582 274.755C256.694 274.883 256.854 274.947 257.03 274.947H260.086ZM260.582 265.859C260.694 265.971 260.79 266.131 260.79 266.307V267.427C260.79 267.603 260.71 267.779 260.598 267.891L260.006 268.499C259.878 268.627 259.718 268.691 259.526 268.691H257.59C257.414 268.691 257.222 268.611 257.11 268.499L256.534 267.891C256.422 267.779 256.342 267.603 256.342 267.427V266.307C256.342 266.115 256.406 265.971 256.534 265.859L257.126 265.251C257.238 265.139 257.414 265.059 257.59 265.059H259.526C259.734 265.059 259.878 265.123 259.99 265.251L260.582 265.859ZM260.582 270.803C260.694 270.915 260.79 271.091 260.79 271.267V272.387C260.79 272.563 260.694 272.723 260.582 272.835L259.99 273.443C259.878 273.571 259.734 273.635 259.526 273.635H257.59C257.414 273.635 257.238 273.555 257.126 273.443L256.534 272.835C256.406 272.723 256.342 272.579 256.342 272.387V271.267C256.342 271.091 256.406 270.915 256.518 270.803L257.11 270.195C257.222 270.083 257.414 270.003 257.59 270.003H259.526C259.718 270.003 259.878 270.067 260.006 270.195L260.582 270.803ZM270.32 274.947C270.512 274.947 270.656 274.883 270.768 274.755L272.16 273.411C272.272 273.267 272.336 273.107 272.336 272.931V270.707C272.336 270.515 272.272 270.355 272.16 270.243L271.824 269.923C271.664 269.747 271.584 269.555 271.584 269.347C271.584 269.139 271.664 268.947 271.824 268.771L272.16 268.451C272.272 268.339 272.336 268.179 272.336 267.987V265.763C272.336 265.587 272.272 265.427 272.16 265.283L270.768 263.939C270.656 263.811 270.512 263.747 270.32 263.747H267.264C267.088 263.747 266.928 263.811 266.816 263.939L265.456 265.283C265.328 265.443 265.264 265.603 265.264 265.763V267.987C265.264 268.163 265.328 268.323 265.456 268.451L265.776 268.771C265.92 268.931 266 269.123 266 269.347C266 269.571 265.92 269.763 265.776 269.923L265.456 270.243C265.328 270.371 265.264 270.531 265.264 270.707V272.931C265.264 273.091 265.328 273.251 265.456 273.411L266.816 274.755C266.928 274.883 267.088 274.947 267.264 274.947H270.32ZM270.816 265.859C270.928 265.971 271.024 266.131 271.024 266.307V267.427C271.024 267.603 270.944 267.779 270.832 267.891L270.24 268.499C270.112 268.627 269.952 268.691 269.76 268.691H267.824C267.648 268.691 267.456 268.611 267.344 268.499L266.768 267.891C266.656 267.779 266.576 267.603 266.576 267.427V266.307C266.576 266.115 266.64 265.971 266.768 265.859L267.36 265.251C267.472 265.139 267.648 265.059 267.824 265.059H269.76C269.968 265.059 270.112 265.123 270.224 265.251L270.816 265.859ZM270.816 270.803C270.928 270.915 271.024 271.091 271.024 271.267V272.387C271.024 272.563 270.928 272.723 270.816 272.835L270.224 273.443C270.112 273.571 269.968 273.635 269.76 273.635H267.824C267.648 273.635 267.472 273.555 267.36 273.443L266.768 272.835C266.64 272.723 266.576 272.579 266.576 272.387V271.267C266.576 271.091 266.64 270.915 266.752 270.803L267.344 270.195C267.456 270.083 267.648 270.003 267.824 270.003H269.76C269.952 270.003 270.112 270.067 270.24 270.195L270.816 270.803ZM279.435 274.947C279.803 274.947 280.091 274.659 280.091 274.291V273.491C280.091 273.123 279.803 272.835 279.435 272.835H278.619C278.251 272.835 277.979 273.123 277.979 273.491V274.291C277.979 274.659 278.251 274.947 278.619 274.947H279.435ZM287.061 266.307C287.061 266.115 287.125 265.971 287.253 265.859L287.845 265.251C287.957 265.139 288.133 265.059 288.309 265.059H290.229C290.437 265.059 290.581 265.123 290.693 265.251L291.317 265.891C291.429 265.987 291.493 266.115 291.493 266.259C291.493 266.387 291.429 266.563 291.317 266.643L285.925 272.035C285.797 272.163 285.733 272.323 285.733 272.515V274.291C285.733 274.659 286.021 274.947 286.389 274.947H292.149C292.517 274.947 292.805 274.659 292.805 274.291C292.805 273.923 292.517 273.635 292.149 273.635H287.861C287.493 273.635 287.093 273.363 287.093 272.963C287.093 272.819 287.141 272.691 287.253 272.611L292.629 267.235C292.757 267.107 292.805 266.947 292.805 266.771V265.763C292.805 265.603 292.741 265.443 292.613 265.283L291.237 263.939C291.125 263.811 290.981 263.747 290.789 263.747H287.749C287.573 263.747 287.413 263.811 287.301 263.939L285.925 265.283C285.797 265.443 285.733 265.603 285.733 265.763V266.499C285.733 266.867 286.021 267.155 286.389 267.155C286.757 267.155 287.061 266.867 287.061 266.499V266.307ZM297.295 266.307C297.295 266.115 297.359 265.971 297.487 265.859L298.079 265.251C298.191 265.139 298.367 265.059 298.543 265.059H300.463C300.671 265.059 300.815 265.123 300.927 265.251L301.519 265.859C301.631 265.971 301.727 266.131 301.727 266.307V267.427C301.727 267.603 301.647 267.779 301.535 267.891L300.943 268.499C300.815 268.627 300.655 268.691 300.463 268.691H298.623C298.239 268.691 297.951 268.979 297.951 269.347C297.951 269.715 298.239 270.003 298.623 270.003H300.463C300.655 270.003 300.815 270.067 300.943 270.195L301.519 270.803C301.631 270.915 301.727 271.091 301.727 271.267V272.387C301.727 272.563 301.631 272.723 301.519 272.835L300.927 273.443C300.815 273.571 300.671 273.635 300.463 273.635H298.543C298.367 273.635 298.191 273.555 298.079 273.443L297.487 272.835C297.359 272.723 297.295 272.579 297.295 272.387V272.179C297.295 271.811 296.991 271.539 296.623 271.539C296.255 271.539 295.967 271.811 295.967 272.179V272.931C295.967 273.091 296.031 273.251 296.159 273.411L297.535 274.755C297.647 274.883 297.807 274.947 297.983 274.947H301.023C301.215 274.947 301.359 274.883 301.471 274.755L302.863 273.411C302.975 273.267 303.039 273.107 303.039 272.931V270.707C303.039 270.515 302.975 270.355 302.863 270.243L302.527 269.923C302.367 269.747 302.287 269.555 302.287 269.347C302.287 269.139 302.367 268.947 302.527 268.771L302.863 268.451C302.975 268.339 303.039 268.179 303.039 267.987V265.763C303.039 265.587 302.975 265.427 302.863 265.283L301.471 263.939C301.359 263.811 301.215 263.747 301.023 263.747H297.983C297.807 263.747 297.647 263.811 297.535 263.939L296.159 265.283C296.031 265.443 295.967 265.603 295.967 265.763V266.499C295.967 266.867 296.255 267.155 296.623 267.155C296.991 267.155 297.295 266.867 297.295 266.499V266.307Z" fill="white"/>
<path d="M195.624 305.168C195.448 305.168 195.288 305.232 195.176 305.36L193.816 306.704C193.688 306.864 193.624 307.024 193.624 307.184V309.408C193.624 309.584 193.688 309.744 193.816 309.872L195.16 311.232C195.288 311.36 195.448 311.424 195.624 311.424H196.184C196.392 311.424 196.504 311.536 196.504 311.744V314.736C196.504 314.944 196.392 315.056 196.184 315.056C195.992 315.056 195.848 314.992 195.736 314.864L195.128 314.256C195 314.144 194.936 314 194.936 313.808V313.6C194.936 313.232 194.648 312.96 194.28 312.96C193.912 312.96 193.624 313.232 193.624 313.6V314.336C193.624 314.512 193.688 314.672 193.816 314.832L195.176 316.176C195.288 316.304 195.448 316.368 195.624 316.368H196.184C196.392 316.368 196.504 316.48 196.504 316.688V316.912C196.504 317.28 196.792 317.568 197.16 317.568C197.528 317.568 197.816 317.28 197.816 316.912V316.688C197.816 316.48 197.928 316.368 198.136 316.368H198.68C198.872 316.368 199.016 316.304 199.128 316.176L200.52 314.832C200.632 314.688 200.696 314.512 200.696 314.336V312.128C200.696 311.936 200.632 311.776 200.52 311.664L199.144 310.304C199 310.16 198.856 310.096 198.68 310.096H198.136C197.928 310.096 197.816 309.984 197.816 309.776V306.784C197.816 306.576 197.928 306.48 198.136 306.48C198.328 306.48 198.472 306.544 198.584 306.672L199.176 307.28C199.288 307.392 199.384 307.552 199.384 307.728V307.92C199.384 308.288 199.672 308.576 200.04 308.576C200.408 308.576 200.696 308.288 200.696 307.92V307.184C200.696 307.008 200.632 306.848 200.52 306.704L199.128 305.36C199.016 305.232 198.872 305.168 198.68 305.168H198.136C197.928 305.168 197.816 305.056 197.816 304.848V304.624C197.816 304.256 197.528 303.968 197.16 303.968C196.792 303.968 196.504 304.256 196.504 304.624V304.848C196.504 305.056 196.392 305.168 196.184 305.168H195.624ZM196.504 309.792C196.504 310 196.392 310.096 196.184 310.096C195.992 310.096 195.848 310.032 195.736 309.904L195.128 309.312C195.016 309.2 194.936 309.024 194.936 308.848V307.728C194.936 307.536 195 307.392 195.128 307.28L195.736 306.672C195.848 306.56 196.024 306.48 196.2 306.48C196.408 306.48 196.504 306.576 196.504 306.784V309.792ZM197.816 311.728C197.816 311.52 197.928 311.424 198.136 311.424C198.312 311.424 198.472 311.488 198.6 311.616L199.176 312.224C199.288 312.336 199.384 312.512 199.384 312.688V313.808C199.384 313.984 199.288 314.144 199.176 314.256L198.584 314.864C198.472 314.992 198.328 315.056 198.12 315.056C197.912 315.056 197.816 314.944 197.816 314.736V311.728ZM215.42 307.728C215.42 307.536 215.484 307.392 215.612 307.28L216.204 306.672C216.316 306.56 216.492 306.48 216.668 306.48H218.588C218.796 306.48 218.94 306.544 219.052 306.672L219.676 307.312C219.788 307.408 219.852 307.536 219.852 307.68C219.852 307.808 219.788 307.984 219.676 308.064L214.284 313.456C214.156 313.584 214.092 313.744 214.092 313.936V315.712C214.092 316.08 214.38 316.368 214.748 316.368H220.508C220.876 316.368 221.164 316.08 221.164 315.712C221.164 315.344 220.876 315.056 220.508 315.056H216.22C215.852 315.056 215.452 314.784 215.452 314.384C215.452 314.24 215.5 314.112 215.612 314.032L220.988 308.656C221.116 308.528 221.164 308.368 221.164 308.192V307.184C221.164 307.024 221.1 306.864 220.972 306.704L219.596 305.36C219.484 305.232 219.34 305.168 219.148 305.168H216.108C215.932 305.168 215.772 305.232 215.66 305.36L214.284 306.704C214.156 306.864 214.092 307.024 214.092 307.184V307.92C214.092 308.288 214.38 308.576 214.748 308.576C215.116 308.576 215.42 308.288 215.42 307.92V307.728ZM225.655 307.728C225.655 307.536 225.719 307.392 225.847 307.28L226.439 306.672C226.551 306.56 226.727 306.48 226.903 306.48H228.823C229.031 306.48 229.175 306.544 229.287 306.672L229.879 307.28C229.991 307.392 230.087 307.552 230.087 307.728V308.848C230.087 309.024 230.007 309.2 229.895 309.312L229.303 309.92C229.175 310.048 229.015 310.112 228.823 310.112H226.983C226.599 310.112 226.311 310.4 226.311 310.768C226.311 311.136 226.599 311.424 226.983 311.424H228.823C229.015 311.424 229.175 311.488 229.303 311.616L229.879 312.224C229.991 312.336 230.087 312.512 230.087 312.688V313.808C230.087 313.984 229.991 314.144 229.879 314.256L229.287 314.864C229.175 314.992 229.031 315.056 228.823 315.056H226.903C226.727 315.056 226.551 314.976 226.439 314.864L225.847 314.256C225.719 314.144 225.655 314 225.655 313.808V313.6C225.655 313.232 225.351 312.96 224.983 312.96C224.615 312.96 224.327 313.232 224.327 313.6V314.352C224.327 314.512 224.391 314.672 224.519 314.832L225.895 316.176C226.007 316.304 226.167 316.368 226.343 316.368H229.383C229.575 316.368 229.719 316.304 229.831 316.176L231.223 314.832C231.335 314.688 231.399 314.528 231.399 314.352V312.128C231.399 311.936 231.335 311.776 231.223 311.664L230.887 311.344C230.727 311.168 230.647 310.976 230.647 310.768C230.647 310.56 230.727 310.368 230.887 310.192L231.223 309.872C231.335 309.76 231.399 309.6 231.399 309.408V307.184C231.399 307.008 231.335 306.848 231.223 306.704L229.831 305.36C229.719 305.232 229.575 305.168 229.383 305.168H226.343C226.167 305.168 226.007 305.232 225.895 305.36L224.519 306.704C224.391 306.864 224.327 307.024 224.327 307.184V307.92C224.327 308.288 224.615 308.576 224.983 308.576C225.351 308.576 225.655 308.288 225.655 307.92V307.728ZM237.761 314.416C237.393 314.416 237.121 314.72 237.121 315.088V315.712C237.121 316.08 237.393 316.368 237.761 316.368H238.129L237.441 317.056C237.329 317.184 237.281 317.312 237.281 317.44C237.281 317.744 237.489 317.952 237.793 317.952C237.953 317.952 238.081 317.904 238.177 317.808L238.865 317.136C238.993 316.976 239.057 316.816 239.057 316.656V315.088C239.057 314.72 238.769 314.416 238.401 314.416H237.761ZM247.355 310.48C247.179 310.48 247.003 310.4 246.891 310.288L246.299 309.68C246.171 309.568 246.107 309.424 246.107 309.232V305.824C246.107 305.456 245.819 305.168 245.451 305.168C245.083 305.168 244.795 305.456 244.795 305.824V309.76C244.795 309.936 244.859 310.096 244.987 310.256L246.347 311.6C246.459 311.728 246.619 311.792 246.795 311.792H249.739C250.187 311.792 250.555 312.144 250.555 312.608V315.712C250.555 316.08 250.843 316.368 251.211 316.368C251.579 316.368 251.867 316.08 251.867 315.712V305.824C251.867 305.456 251.579 305.168 251.211 305.168C250.843 305.168 250.555 305.456 250.555 305.824V309.664C250.555 310.112 250.187 310.48 249.739 310.48H247.355ZM256.342 313.6C256.342 313.232 256.054 312.96 255.686 312.96C255.318 312.96 255.03 313.232 255.03 313.6V314.352C255.03 314.512 255.094 314.672 255.222 314.832L256.582 316.176C256.694 316.304 256.854 316.368 257.03 316.368H260.086C260.278 316.368 260.422 316.304 260.534 316.176L261.926 314.832C262.038 314.688 262.102 314.528 262.102 314.352V307.184C262.102 307.008 262.038 306.848 261.926 306.704L260.534 305.36C260.422 305.232 260.278 305.168 260.086 305.168H257.03C256.854 305.168 256.694 305.232 256.582 305.36L255.222 306.704C255.094 306.864 255.03 307.024 255.03 307.184V309.408C255.03 309.584 255.094 309.744 255.222 309.872L256.566 311.232C256.71 311.36 256.87 311.424 257.03 311.424H259.974C260.422 311.424 260.79 311.792 260.79 312.24V313.808C260.79 313.984 260.694 314.144 260.582 314.256L259.99 314.864C259.878 314.992 259.734 315.056 259.526 315.056H257.59C257.414 315.056 257.238 314.976 257.126 314.864L256.534 314.256C256.406 314.144 256.342 314 256.342 313.808V313.6ZM260.79 309.296C260.79 309.744 260.422 310.112 259.974 310.112H257.59C257.414 310.112 257.222 310.032 257.11 309.92L256.534 309.312C256.422 309.2 256.342 309.024 256.342 308.848V307.728C256.342 307.536 256.406 307.392 256.534 307.28L257.126 306.672C257.238 306.56 257.414 306.48 257.59 306.48H259.526C259.734 306.48 259.878 306.544 259.99 306.672L260.582 307.28C260.694 307.392 260.79 307.552 260.79 307.728V309.296ZM270.32 316.368C270.512 316.368 270.656 316.304 270.768 316.176L272.16 314.832C272.272 314.688 272.336 314.528 272.336 314.352V312.128C272.336 311.936 272.272 311.776 272.16 311.664L271.824 311.344C271.664 311.168 271.584 310.976 271.584 310.768C271.584 310.56 271.664 310.368 271.824 310.192L272.16 309.872C272.272 309.76 272.336 309.6 272.336 309.408V307.184C272.336 307.008 272.272 306.848 272.16 306.704L270.768 305.36C270.656 305.232 270.512 305.168 270.32 305.168H267.264C267.088 305.168 266.928 305.232 266.816 305.36L265.456 306.704C265.328 306.864 265.264 307.024 265.264 307.184V309.408C265.264 309.584 265.328 309.744 265.456 309.872L265.776 310.192C265.92 310.352 266 310.544 266 310.768C266 310.992 265.92 311.184 265.776 311.344L265.456 311.664C265.328 311.792 265.264 311.952 265.264 312.128V314.352C265.264 314.512 265.328 314.672 265.456 314.832L266.816 316.176C266.928 316.304 267.088 316.368 267.264 316.368H270.32ZM270.816 307.28C270.928 307.392 271.024 307.552 271.024 307.728V308.848C271.024 309.024 270.944 309.2 270.832 309.312L270.24 309.92C270.112 310.048 269.952 310.112 269.76 310.112H267.824C267.648 310.112 267.456 310.032 267.344 309.92L266.768 309.312C266.656 309.2 266.576 309.024 266.576 308.848V307.728C266.576 307.536 266.64 307.392 266.768 307.28L267.36 306.672C267.472 306.56 267.648 306.48 267.824 306.48H269.76C269.968 306.48 270.112 306.544 270.224 306.672L270.816 307.28ZM270.816 312.224C270.928 312.336 271.024 312.512 271.024 312.688V313.808C271.024 313.984 270.928 314.144 270.816 314.256L270.224 314.864C270.112 314.992 269.968 315.056 269.76 315.056H267.824C267.648 315.056 267.472 314.976 267.36 314.864L266.768 314.256C266.64 314.144 266.576 314 266.576 313.808V312.688C266.576 312.512 266.64 312.336 266.752 312.224L267.344 311.616C267.456 311.504 267.648 311.424 267.824 311.424H269.76C269.952 311.424 270.112 311.488 270.24 311.616L270.816 312.224ZM279.435 316.368C279.803 316.368 280.091 316.08 280.091 315.712V314.912C280.091 314.544 279.803 314.256 279.435 314.256H278.619C278.251 314.256 277.979 314.544 277.979 314.912V315.712C277.979 316.08 278.251 316.368 278.619 316.368H279.435ZM288.613 314.24C288.613 314.688 288.261 315.056 287.797 315.056H287.125C286.757 315.056 286.469 315.344 286.469 315.712C286.469 316.08 286.757 316.368 287.125 316.368H291.413C291.781 316.368 292.069 316.08 292.069 315.712C292.069 315.344 291.781 315.056 291.413 315.056H290.741C290.277 315.056 289.925 314.688 289.925 314.24V305.824C289.925 305.456 289.653 305.168 289.285 305.168C289.077 305.168 288.901 305.232 288.789 305.344L286.645 307.488C286.533 307.6 286.469 307.776 286.469 307.984C286.469 308.352 286.757 308.624 287.125 308.624C287.301 308.624 287.461 308.56 287.605 308.432L288.309 307.712C288.357 307.664 288.421 307.632 288.469 307.632C288.565 307.632 288.613 307.696 288.613 307.84V314.24ZM298.527 310.48C298.351 310.48 298.175 310.4 298.063 310.288L297.471 309.68C297.343 309.568 297.279 309.424 297.279 309.232V305.824C297.279 305.456 296.991 305.168 296.623 305.168C296.255 305.168 295.967 305.456 295.967 305.824V309.76C295.967 309.936 296.031 310.096 296.159 310.256L297.519 311.6C297.631 311.728 297.791 311.792 297.967 311.792H300.911C301.359 311.792 301.727 312.144 301.727 312.608V315.712C301.727 316.08 302.015 316.368 302.383 316.368C302.751 316.368 303.039 316.08 303.039 315.712V305.824C303.039 305.456 302.751 305.168 302.383 305.168C302.015 305.168 301.727 305.456 301.727 305.824V309.664C301.727 310.112 301.359 310.48 300.911 310.48H298.527Z" fill="white"/>
<path d="M197.277 347.01C197.101 347.01 196.941 347.074 196.829 347.202L195.469 348.546C195.341 348.706 195.277 348.866 195.277 349.026V351.25C195.277 351.426 195.341 351.586 195.469 351.714L196.813 353.074C196.941 353.202 197.101 353.266 197.277 353.266H197.837C198.045 353.266 198.157 353.378 198.157 353.586V356.578C198.157 356.786 198.045 356.898 197.837 356.898C197.645 356.898 197.501 356.834 197.389 356.706L196.781 356.098C196.653 355.986 196.589 355.842 196.589 355.65V355.442C196.589 355.074 196.301 354.802 195.933 354.802C195.565 354.802 195.277 355.074 195.277 355.442V356.178C195.277 356.354 195.341 356.514 195.469 356.674L196.829 358.018C196.941 358.146 197.101 358.21 197.277 358.21H197.837C198.045 358.21 198.157 358.322 198.157 358.53V358.754C198.157 359.122 198.445 359.41 198.813 359.41C199.181 359.41 199.469 359.122 199.469 358.754V358.53C199.469 358.322 199.581 358.21 199.789 358.21H200.333C200.525 358.21 200.669 358.146 200.781 358.018L202.173 356.674C202.285 356.53 202.349 356.354 202.349 356.178V353.97C202.349 353.778 202.285 353.618 202.173 353.506L200.797 352.146C200.653 352.002 200.509 351.938 200.333 351.938H199.789C199.581 351.938 199.469 351.826 199.469 351.618V348.626C199.469 348.418 199.581 348.322 199.789 348.322C199.981 348.322 200.125 348.386 200.237 348.514L200.829 349.122C200.941 349.234 201.037 349.394 201.037 349.57V349.762C201.037 350.13 201.325 350.418 201.693 350.418C202.061 350.418 202.349 350.13 202.349 349.762V349.026C202.349 348.85 202.285 348.69 202.173 348.546L200.781 347.202C200.669 347.074 200.525 347.01 200.333 347.01H199.789C199.581 347.01 199.469 346.898 199.469 346.69V346.466C199.469 346.098 199.181 345.81 198.813 345.81C198.445 345.81 198.157 346.098 198.157 346.466V346.69C198.157 346.898 198.045 347.01 197.837 347.01H197.277ZM198.157 351.634C198.157 351.842 198.045 351.938 197.837 351.938C197.645 351.938 197.501 351.874 197.389 351.746L196.781 351.154C196.669 351.042 196.589 350.866 196.589 350.69V349.57C196.589 349.378 196.653 349.234 196.781 349.122L197.389 348.514C197.501 348.402 197.677 348.322 197.853 348.322C198.061 348.322 198.157 348.418 198.157 348.626V351.634ZM199.469 353.57C199.469 353.362 199.581 353.266 199.789 353.266C199.965 353.266 200.125 353.33 200.253 353.458L200.829 354.066C200.941 354.178 201.037 354.354 201.037 354.53V355.65C201.037 355.826 200.941 355.986 200.829 356.098L200.237 356.706C200.125 356.834 199.981 356.898 199.773 356.898C199.565 356.898 199.469 356.786 199.469 356.578V353.57ZM218.626 356.082C218.626 356.53 218.274 356.898 217.81 356.898H217.138C216.77 356.898 216.482 357.186 216.482 357.554C216.482 357.922 216.77 358.21 217.138 358.21H221.426C221.794 358.21 222.082 357.922 222.082 357.554C222.082 357.186 221.794 356.898 221.426 356.898H220.754C220.29 356.898 219.938 356.53 219.938 356.082V347.666C219.938 347.298 219.666 347.01 219.298 347.01C219.09 347.01 218.914 347.074 218.802 347.186L216.658 349.33C216.546 349.442 216.482 349.618 216.482 349.826C216.482 350.194 216.77 350.466 217.138 350.466C217.314 350.466 217.474 350.402 217.618 350.274L218.322 349.554C218.37 349.506 218.434 349.474 218.482 349.474C218.578 349.474 218.626 349.538 218.626 349.682V356.082ZM228.86 356.082C228.86 356.53 228.508 356.898 228.044 356.898H227.372C227.004 356.898 226.716 357.186 226.716 357.554C226.716 357.922 227.004 358.21 227.372 358.21H231.66C232.028 358.21 232.316 357.922 232.316 357.554C232.316 357.186 232.028 356.898 231.66 356.898H230.988C230.524 356.898 230.172 356.53 230.172 356.082V347.666C230.172 347.298 229.9 347.01 229.532 347.01C229.324 347.01 229.148 347.074 229.036 347.186L226.892 349.33C226.78 349.442 226.716 349.618 226.716 349.826C226.716 350.194 227.004 350.466 227.372 350.466C227.548 350.466 227.708 350.402 227.852 350.274L228.556 349.554C228.604 349.506 228.668 349.474 228.716 349.474C228.812 349.474 228.86 349.538 228.86 349.682V356.082ZM239.414 356.258C239.046 356.258 238.774 356.562 238.774 356.93V357.554C238.774 357.922 239.046 358.21 239.414 358.21H239.782L239.094 358.898C238.982 359.026 238.934 359.154 238.934 359.282C238.934 359.586 239.142 359.794 239.446 359.794C239.606 359.794 239.734 359.746 239.83 359.65L240.518 358.978C240.646 358.818 240.71 358.658 240.71 358.498V356.93C240.71 356.562 240.422 356.258 240.054 356.258H239.414ZM247.777 349.57C247.777 349.378 247.841 349.234 247.969 349.122L248.561 348.514C248.673 348.402 248.849 348.322 249.025 348.322H250.945C251.153 348.322 251.297 348.386 251.409 348.514L252.033 349.154C252.145 349.25 252.209 349.378 252.209 349.522C252.209 349.65 252.145 349.826 252.033 349.906L246.641 355.298C246.513 355.426 246.449 355.586 246.449 355.778V357.554C246.449 357.922 246.737 358.21 247.105 358.21H252.865C253.233 358.21 253.521 357.922 253.521 357.554C253.521 357.186 253.233 356.898 252.865 356.898H248.577C248.209 356.898 247.809 356.626 247.809 356.226C247.809 356.082 247.857 355.954 247.969 355.874L253.345 350.498C253.473 350.37 253.521 350.21 253.521 350.034V349.026C253.521 348.866 253.457 348.706 253.329 348.546L251.953 347.202C251.841 347.074 251.697 347.01 251.505 347.01H248.465C248.289 347.01 248.129 347.074 248.017 347.202L246.641 348.546C246.513 348.706 246.449 348.866 246.449 349.026V349.762C246.449 350.13 246.737 350.418 247.105 350.418C247.473 350.418 247.777 350.13 247.777 349.762V349.57ZM258.011 349.57C258.011 349.378 258.075 349.234 258.203 349.122L258.795 348.514C258.907 348.402 259.083 348.322 259.259 348.322H261.179C261.387 348.322 261.531 348.386 261.643 348.514L262.235 349.122C262.347 349.234 262.443 349.394 262.443 349.57V350.69C262.443 350.866 262.363 351.042 262.251 351.154L261.659 351.762C261.531 351.89 261.371 351.954 261.179 351.954H259.339C258.955 351.954 258.667 352.242 258.667 352.61C258.667 352.978 258.955 353.266 259.339 353.266H261.179C261.371 353.266 261.531 353.33 261.659 353.458L262.235 354.066C262.347 354.178 262.443 354.354 262.443 354.53V355.65C262.443 355.826 262.347 355.986 262.235 356.098L261.643 356.706C261.531 356.834 261.387 356.898 261.179 356.898H259.259C259.083 356.898 258.907 356.818 258.795 356.706L258.203 356.098C258.075 355.986 258.011 355.842 258.011 355.65V355.442C258.011 355.074 257.707 354.802 257.339 354.802C256.971 354.802 256.683 355.074 256.683 355.442V356.194C256.683 356.354 256.747 356.514 256.875 356.674L258.251 358.018C258.363 358.146 258.523 358.21 258.699 358.21H261.739C261.931 358.21 262.075 358.146 262.187 358.018L263.579 356.674C263.691 356.53 263.755 356.37 263.755 356.194V353.97C263.755 353.778 263.691 353.618 263.579 353.506L263.243 353.186C263.083 353.01 263.003 352.818 263.003 352.61C263.003 352.402 263.083 352.21 263.243 352.034L263.579 351.714C263.691 351.602 263.755 351.442 263.755 351.25V349.026C263.755 348.85 263.691 348.69 263.579 348.546L262.187 347.202C262.075 347.074 261.931 347.01 261.739 347.01H258.699C258.523 347.01 258.363 347.074 258.251 347.202L256.875 348.546C256.747 348.706 256.683 348.866 256.683 349.026V349.762C256.683 350.13 256.971 350.418 257.339 350.418C257.707 350.418 258.011 350.13 258.011 349.762V349.57ZM272.677 349.762C272.677 350.13 272.965 350.418 273.333 350.418C273.701 350.418 273.989 350.13 273.989 349.762V349.026C273.989 348.85 273.925 348.69 273.813 348.546L272.421 347.202C272.309 347.074 272.165 347.01 271.957 347.01H268.917C268.741 347.01 268.581 347.074 268.469 347.202L267.109 348.546C266.981 348.706 266.917 348.866 266.917 349.026V356.194C266.917 356.354 266.981 356.514 267.109 356.674L268.469 358.018C268.581 358.146 268.741 358.21 268.917 358.21H271.957C272.165 358.21 272.309 358.146 272.421 358.018L273.813 356.674C273.925 356.53 273.989 356.37 273.989 356.194V353.97C273.989 353.778 273.925 353.618 273.813 353.506L272.437 352.146C272.293 352.018 272.133 351.954 271.957 351.954H269.029C268.581 351.954 268.229 351.586 268.229 351.138V349.57C268.229 349.378 268.293 349.234 268.421 349.122L269.013 348.514C269.125 348.402 269.301 348.322 269.477 348.322H271.413C271.621 348.322 271.765 348.386 271.877 348.514L272.469 349.122C272.581 349.234 272.677 349.394 272.677 349.57V349.762ZM268.229 354.082C268.229 353.634 268.581 353.266 269.029 353.266H271.413C271.605 353.266 271.765 353.33 271.893 353.458L272.469 354.066C272.581 354.178 272.677 354.354 272.677 354.53V355.65C272.677 355.826 272.581 355.986 272.469 356.098L271.877 356.706C271.765 356.834 271.621 356.898 271.413 356.898H269.477C269.301 356.898 269.125 356.818 269.013 356.706L268.421 356.098C268.293 355.986 268.229 355.842 268.229 355.65V354.082ZM281.088 358.21C281.456 358.21 281.744 357.922 281.744 357.554V356.754C281.744 356.386 281.456 356.098 281.088 356.098H280.272C279.904 356.098 279.632 356.386 279.632 356.754V357.554C279.632 357.922 279.904 358.21 280.272 358.21H281.088ZM291.578 353.154C291.578 352.962 291.642 352.818 291.77 352.706L294.282 350.21C294.394 350.098 294.458 349.938 294.458 349.73V347.666C294.458 347.298 294.17 347.01 293.802 347.01H288.042C287.674 347.01 287.386 347.298 287.386 347.666C287.386 348.034 287.674 348.322 288.042 348.322H292.33C292.778 348.322 293.146 348.69 293.146 349.138V349.186C293.146 349.362 293.05 349.522 292.938 349.634L290.442 352.146C290.33 352.258 290.266 352.418 290.266 352.61V357.554C290.266 357.922 290.554 358.21 290.938 358.21C291.306 358.21 291.578 357.922 291.578 357.554V353.154ZM303.381 349.762C303.381 350.13 303.669 350.418 304.037 350.418C304.405 350.418 304.693 350.13 304.693 349.762V349.026C304.693 348.85 304.629 348.69 304.517 348.546L303.125 347.202C303.013 347.074 302.869 347.01 302.661 347.01H299.621C299.445 347.01 299.285 347.074 299.173 347.202L297.813 348.546C297.685 348.706 297.621 348.866 297.621 349.026V356.194C297.621 356.354 297.685 356.514 297.813 356.674L299.173 358.018C299.285 358.146 299.445 358.21 299.621 358.21H302.661C302.869 358.21 303.013 358.146 303.125 358.018L304.517 356.674C304.629 356.53 304.693 356.37 304.693 356.194V353.97C304.693 353.778 304.629 353.618 304.517 353.506L303.141 352.146C302.997 352.018 302.837 351.954 302.661 351.954H299.733C299.285 351.954 298.933 351.586 298.933 351.138V349.57C298.933 349.378 298.997 349.234 299.125 349.122L299.717 348.514C299.829 348.402 300.005 348.322 300.181 348.322H302.117C302.325 348.322 302.469 348.386 302.581 348.514L303.173 349.122C303.285 349.234 303.381 349.394 303.381 349.57V349.762ZM298.933 354.082C298.933 353.634 299.285 353.266 299.733 353.266H302.117C302.309 353.266 302.469 353.33 302.597 353.458L303.173 354.066C303.285 354.178 303.381 354.354 303.381 354.53V355.65C303.381 355.826 303.285 355.986 303.173 356.098L302.581 356.706C302.469 356.834 302.325 356.898 302.117 356.898H300.181C300.005 356.898 299.829 356.818 299.717 356.706L299.125 356.098C298.997 355.986 298.933 355.842 298.933 355.65V354.082Z" fill="white"/>
<mask id="path-22-inside-1_15_63" fill="white">
<path d="M3 11C3 6.58172 6.58172 3 11 3H694C698.418 3 702 6.58172 702 11V25H3V11Z"/>
</mask>
<path d="M3 11C3 6.58172 6.58172 3 11 3H694C698.418 3 702 6.58172 702 11V25H3V11Z" fill="#C2DFFD"/>
<path d="M3 3H702H3ZM702 26H3V24H702V26ZM3 25V3V25ZM702 3V25V3Z" fill="#232323" mask="url(#path-22-inside-1_15_63)"/>
<circle cx="18.5" cy="13.5" r="4.5" fill="#FF6161"/>
<circle cx="34.5" cy="13.5" r="4.5" fill="#FFD361"/>
<circle cx="50.5" cy="13.5" r="4.5" fill="#0DF083"/>
<defs>
<clipPath id="clip0_15_63">
<rect width="30.914" height="15.7895" fill="white" transform="translate(112.883 263.526)"/>
</clipPath>
<clipPath id="clip1_15_63">
<rect width="41.9651" height="33" fill="white" transform="translate(105.981 344)"/>
</clipPath>
</defs>
</svg>
