<svg width="379" height="100" viewBox="0 0 379 100" fill="none" xmlns="http://www.w3.org/2000/svg">
<g clip-path="url(#clip0_19_8)">
<rect width="379" height="100" fill="white"/>
<path d="M39.84 23.856C40.512 23.856 41.088 24.048 41.568 24.528L41.76 24.72C42.24 25.2 42.432 25.776 42.432 26.448V27.6C42.432 29.904 43.872 31.92 46.08 32.592C46.752 34.8 48.864 36.24 51.168 36.24C54.144 36.24 56.448 33.936 56.448 30.96C56.448 29.808 56.64 28.464 56.544 27.024C56.448 25.584 56.16 23.952 54.912 22.8L43.488 11.472C42.432 10.416 41.184 9.84 39.744 9.84H21.792C20.352 9.84 19.104 10.416 18.048 11.472L9.984 19.44C8.928 20.496 8.448 21.744 8.448 23.184V36.336C8.448 37.776 8.928 39.024 9.984 40.08L21.408 51.6C22.464 52.656 23.712 53.136 25.152 53.136H39.84C40.224 53.136 40.704 53.232 41.184 53.52L41.76 54.096C42.24 54.672 42.432 55.248 42.432 55.824C42.432 58.032 42.528 59.568 42.528 60.72C42.528 61.872 42.432 62.64 42.336 62.928C42.24 63.408 41.856 63.888 41.28 64.464C40.608 65.232 39.648 66.192 38.208 67.632C37.728 68.112 37.152 68.304 36.48 68.304H25.056C24.384 68.304 23.808 68.112 23.328 67.632L23.136 67.44C22.848 67.152 22.656 66.768 22.56 66.288C22.56 66 22.56 65.712 22.464 65.52C22.464 62.832 21.696 60.72 18.912 59.664C18.24 57.456 16.032 56.016 13.728 56.016C10.752 56.016 8.448 58.224 8.448 61.2C8.448 62.352 8.256 63.792 8.352 65.232C8.448 66.672 8.832 68.208 9.984 69.36L13.056 72.336C13.152 72.432 13.248 72.624 13.344 72.72L21.408 80.688C22.464 81.744 23.712 82.32 25.152 82.32H43.104C44.64 82.32 45.888 81.744 46.848 80.688L54.912 72.72C55.968 71.76 56.448 70.512 56.448 68.976V55.92C56.448 54.48 55.968 53.232 54.912 52.176L46.848 44.016C46.752 43.92 46.56 43.824 46.464 43.728L43.488 40.656C42.432 39.6 41.184 39.12 39.744 39.12H25.056C24.672 39.12 24.192 39.024 23.712 38.736L23.232 38.16C22.752 37.776 22.464 37.2 22.464 36.432C22.464 34.224 22.464 32.688 22.368 31.536C22.368 30.384 22.464 29.616 22.56 29.328C22.656 28.944 22.944 28.368 23.616 27.696C24.288 26.928 25.248 25.968 26.688 24.528C27.264 24.048 27.84 23.856 28.416 23.856H39.84ZM43.392 26.448C43.392 25.488 43.104 24.72 42.432 24.048L38.88 20.496C38.208 19.824 37.44 19.536 36.48 19.536H25.056C24.096 19.536 23.328 19.824 22.656 20.496L19.104 24.048C18.432 24.72 18.144 25.488 18.144 26.448V33.072C18.144 34.032 18.432 34.8 19.104 35.472L22.656 39.12C23.328 39.792 24.096 40.08 25.056 40.08H39.744C40.992 40.08 41.952 40.464 42.816 41.328L50.88 49.488C51.744 50.352 52.128 51.312 52.128 52.56V65.616C52.128 66.864 51.744 67.824 50.88 68.688L42.816 76.656C42.048 77.52 40.992 78 39.744 78H21.792C20.544 78 19.488 77.52 18.72 76.656L10.656 68.688C9.792 67.824 9.408 66.864 9.408 65.616V61.2C9.408 58.8 11.328 56.976 13.728 56.976C16.128 56.976 18.144 58.8 18.144 61.2V62.352C18.144 63.312 18.432 64.08 19.104 64.752L22.656 68.304C23.328 68.976 24.096 69.264 25.056 69.264H36.48C37.44 69.264 38.208 68.976 38.88 68.304L42.432 64.752C43.104 64.08 43.392 63.312 43.392 62.352V55.824C43.392 54.864 43.104 54.096 42.432 53.424L38.88 49.776C38.208 49.104 37.44 48.816 36.48 48.816H21.792C20.544 48.816 19.584 48.432 18.72 47.568L10.656 39.408C9.792 38.544 9.408 37.584 9.408 36.336V23.184C9.408 21.936 9.792 20.976 10.656 20.112L18.72 12.144C19.488 11.28 20.544 10.8 21.792 10.8H39.744C40.992 10.8 42.048 11.28 42.816 12.144L50.88 20.112C51.744 20.976 52.128 21.936 52.128 23.184V27.6C52.128 30 50.208 31.92 47.808 31.92C45.408 31.92 43.392 30 43.392 27.6V26.448ZM73.5023 78.672C74.1743 80.88 76.1903 82.32 78.4943 82.32C81.4703 82.32 83.8703 80.016 83.8703 77.04V58.608C83.8703 56.784 85.4062 55.248 87.2303 55.248H104.414C105.854 55.248 107.198 54.672 108.254 53.616L116.318 45.648C117.374 44.688 117.854 43.44 117.854 41.808V26.544C117.854 25.104 117.374 23.856 116.318 22.8L104.894 11.472C103.838 10.416 102.494 9.84 101.054 9.84H75.1343C72.1583 9.84 69.8543 12.144 69.8543 15.12V73.68C69.8543 75.984 71.2943 78 73.5023 78.672ZM79.5503 73.68C79.5503 76.08 77.5343 78 75.1343 78C72.7343 78 70.8143 76.08 70.8143 73.68V15.12C70.8143 12.72 72.7343 10.8 75.1343 10.8H101.054C102.398 10.8 103.454 11.28 104.222 12.144L112.286 20.112C113.15 20.976 113.534 21.936 113.534 23.184V38.448C113.534 39.696 113.15 40.752 112.286 41.616L104.222 49.584C103.454 50.448 102.398 50.928 101.054 50.928H83.8703C81.4703 50.928 79.5503 52.848 79.5503 55.248V73.68ZM97.8863 42.192C98.8463 42.192 99.6143 41.904 100.286 41.232L103.838 37.68C104.51 37.008 104.798 36.24 104.798 35.28V26.448C104.798 25.488 104.51 24.72 103.838 24.048L100.286 20.496C99.6143 19.824 98.8463 19.536 97.8863 19.536H83.8703C81.4703 19.536 79.5503 21.456 79.5503 23.856V37.872C79.5503 40.272 81.4703 42.192 83.8703 42.192H97.8863ZM103.166 24.72C103.646 25.2 103.838 25.776 103.838 26.448V35.28C103.838 35.952 103.646 36.528 103.166 37.008L99.6143 40.56C99.1343 41.04 98.5583 41.232 97.8863 41.232H83.8703V27.216C83.8703 25.392 85.4062 23.856 87.2303 23.856H101.246C101.918 23.856 102.494 24.048 102.974 24.528L103.166 24.72ZM173.981 82.32C176.957 82.32 179.26 80.016 179.26 77.04C179.26 74.736 177.821 72.624 175.613 71.952C174.941 69.744 172.925 68.304 170.621 68.304H145.277V18.48C145.277 16.176 143.837 14.256 141.629 13.488C140.957 11.28 138.845 9.84 136.541 9.84C133.565 9.84 131.261 12.144 131.261 15.12V73.68C131.261 75.984 132.701 78 134.909 78.672C135.581 80.88 137.597 82.32 139.901 82.32H173.981ZM140.957 64.944C140.957 67.344 142.877 69.264 145.277 69.264H170.621C173.021 69.264 174.941 71.28 174.941 73.68C174.941 76.08 173.021 78 170.621 78H136.541C134.141 78 132.221 76.08 132.221 73.68V15.12C132.221 12.72 134.141 10.8 136.541 10.8C138.941 10.8 140.957 12.72 140.957 15.12V64.944ZM240.667 28.56C240.667 27.12 240.091 25.872 239.035 24.816L225.691 11.376C224.635 10.32 223.387 9.84 221.947 9.84H208.027C206.395 9.84 205.339 10.416 204.283 11.472L194.203 21.456C193.147 22.512 192.667 23.76 192.667 25.2V73.68C192.667 75.984 194.107 78 196.315 78.672C196.987 80.88 199.003 82.32 201.307 82.32C204.283 82.32 206.683 80.016 206.683 77.04V58.608C206.683 56.784 208.219 55.248 210.043 55.248H226.651V73.68C226.651 75.984 228.091 78 230.299 78.672C230.971 80.88 233.083 82.32 235.387 82.32C238.363 82.32 240.667 80.016 240.667 77.04V28.56ZM236.347 73.68C236.347 76.08 234.427 78 232.027 78C229.627 78 227.611 76.08 227.611 73.68V55.248C227.611 52.848 225.691 50.928 223.291 50.928H206.683C204.283 50.928 202.363 52.848 202.363 55.248V73.68C202.363 76.08 200.347 78 197.947 78C195.547 78 193.627 76.08 193.627 73.68V25.2C193.627 23.952 194.011 22.992 194.875 22.128L204.955 12.144C205.723 11.28 206.779 10.8 208.027 10.8H221.947C223.195 10.8 224.155 11.184 225.019 12.048L235.003 22.128C235.867 22.896 236.347 23.952 236.347 25.2V73.68ZM227.611 28.464C227.611 27.504 227.323 26.736 226.651 26.064L221.083 20.496C220.411 19.824 219.643 19.536 218.683 19.536H211.291C210.331 19.536 209.563 19.824 208.891 20.496L203.323 26.064C202.651 26.736 202.363 27.504 202.363 28.464V37.872C202.363 40.272 204.283 42.192 206.683 42.192H223.291C225.691 42.192 227.611 40.272 227.611 37.872V28.464ZM225.979 26.736C226.459 27.216 226.651 27.792 226.651 28.464V37.872C226.651 39.696 225.115 41.232 223.291 41.232H206.683V31.824C206.683 31.248 206.875 30.672 207.355 30.096L212.923 24.528C213.499 24.048 214.075 23.856 214.651 23.856H222.043C222.715 23.856 223.291 24.048 223.771 24.528L225.979 26.736ZM285.465 23.856C286.137 23.856 286.713 24.048 287.193 24.528L287.385 24.72C287.865 25.2 288.057 25.776 288.057 26.448V27.6C288.057 29.904 289.497 31.92 291.705 32.592C292.377 34.8 294.489 36.24 296.793 36.24C299.769 36.24 302.073 33.936 302.073 30.96C302.073 29.808 302.265 28.464 302.169 27.024C302.073 25.584 301.785 23.952 300.537 22.8L289.113 11.472C288.057 10.416 286.809 9.84 285.369 9.84H267.417C265.977 9.84 264.729 10.416 263.673 11.472L255.609 19.44C254.553 20.496 254.073 21.744 254.073 23.184V36.336C254.073 37.776 254.553 39.024 255.609 40.08L267.033 51.6C268.089 52.656 269.337 53.136 270.777 53.136H285.465C285.849 53.136 286.329 53.232 286.809 53.52L287.385 54.096C287.865 54.672 288.057 55.248 288.057 55.824C288.057 58.032 288.153 59.568 288.153 60.72C288.153 61.872 288.057 62.64 287.961 62.928C287.865 63.408 287.481 63.888 286.905 64.464C286.233 65.232 285.273 66.192 283.833 67.632C283.353 68.112 282.777 68.304 282.105 68.304H270.681C270.009 68.304 269.433 68.112 268.953 67.632L268.761 67.44C268.473 67.152 268.281 66.768 268.185 66.288C268.185 66 268.185 65.712 268.089 65.52C268.089 62.832 267.321 60.72 264.537 59.664C263.865 57.456 261.657 56.016 259.353 56.016C256.377 56.016 254.073 58.224 254.073 61.2C254.073 62.352 253.881 63.792 253.977 65.232C254.073 66.672 254.457 68.208 255.609 69.36L258.681 72.336C258.777 72.432 258.873 72.624 258.969 72.72L267.033 80.688C268.089 81.744 269.337 82.32 270.777 82.32H288.729C290.265 82.32 291.513 81.744 292.473 80.688L300.537 72.72C301.593 71.76 302.073 70.512 302.073 68.976V55.92C302.073 54.48 301.593 53.232 300.537 52.176L292.473 44.016C292.377 43.92 292.185 43.824 292.089 43.728L289.113 40.656C288.057 39.6 286.809 39.12 285.369 39.12H270.681C270.297 39.12 269.817 39.024 269.337 38.736L268.857 38.16C268.377 37.776 268.089 37.2 268.089 36.432C268.089 34.224 268.089 32.688 267.993 31.536C267.993 30.384 268.089 29.616 268.185 29.328C268.281 28.944 268.569 28.368 269.241 27.696C269.913 26.928 270.873 25.968 272.313 24.528C272.889 24.048 273.465 23.856 274.041 23.856H285.465ZM289.017 26.448C289.017 25.488 288.729 24.72 288.057 24.048L284.505 20.496C283.833 19.824 283.065 19.536 282.105 19.536H270.681C269.721 19.536 268.953 19.824 268.281 20.496L264.729 24.048C264.057 24.72 263.769 25.488 263.769 26.448V33.072C263.769 34.032 264.057 34.8 264.729 35.472L268.281 39.12C268.953 39.792 269.721 40.08 270.681 40.08H285.369C286.617 40.08 287.577 40.464 288.441 41.328L296.505 49.488C297.369 50.352 297.753 51.312 297.753 52.56V65.616C297.753 66.864 297.369 67.824 296.505 68.688L288.441 76.656C287.673 77.52 286.617 78 285.369 78H267.417C266.169 78 265.113 77.52 264.345 76.656L256.281 68.688C255.417 67.824 255.033 66.864 255.033 65.616V61.2C255.033 58.8 256.953 56.976 259.353 56.976C261.753 56.976 263.769 58.8 263.769 61.2V62.352C263.769 63.312 264.057 64.08 264.729 64.752L268.281 68.304C268.953 68.976 269.721 69.264 270.681 69.264H282.105C283.065 69.264 283.833 68.976 284.505 68.304L288.057 64.752C288.729 64.08 289.017 63.312 289.017 62.352V55.824C289.017 54.864 288.729 54.096 288.057 53.424L284.505 49.776C283.833 49.104 283.065 48.816 282.105 48.816H267.417C266.169 48.816 265.209 48.432 264.345 47.568L256.281 39.408C255.417 38.544 255.033 37.584 255.033 36.336V23.184C255.033 21.936 255.417 20.976 256.281 20.112L264.345 12.144C265.113 11.28 266.169 10.8 267.417 10.8H285.369C286.617 10.8 287.673 11.28 288.441 12.144L296.505 20.112C297.369 20.976 297.753 21.936 297.753 23.184V27.6C297.753 30 295.833 31.92 293.433 31.92C291.033 31.92 289.017 30 289.017 27.6V26.448ZM363.479 18.48C363.479 16.176 362.039 14.16 359.831 13.488C359.159 11.28 357.143 9.84 354.839 9.84C351.863 9.84 349.463 12.144 349.463 15.12V35.664C349.463 37.584 347.927 39.12 346.103 39.12H329.495V18.48C329.495 16.176 328.055 14.256 325.847 13.488C325.175 11.28 323.063 9.84 320.759 9.84C317.783 9.84 315.479 12.144 315.479 15.12V73.68C315.479 75.984 316.919 78 319.127 78.672C319.799 80.88 321.815 82.32 324.119 82.32C327.095 82.32 329.495 80.016 329.495 77.04V56.496C329.495 54.672 331.031 53.04 332.855 53.04H349.463V73.68C349.463 76.08 350.903 78 353.111 78.672C353.783 80.88 355.895 82.32 358.199 82.32C361.175 82.32 363.479 80.016 363.479 77.04V18.48ZM359.159 73.68C359.159 76.08 357.239 78 354.839 78C352.247 78 350.423 76.08 350.423 73.68V53.136C350.423 50.736 348.503 48.72 346.103 48.72H329.495C327.095 48.72 325.175 50.736 325.175 53.136V73.68C325.175 76.08 323.159 78 320.759 78C318.359 78 316.439 76.08 316.439 73.68V15.12C316.439 12.72 318.359 10.8 320.759 10.8C323.159 10.8 325.175 12.72 325.175 15.12V35.664C325.175 38.064 327.095 40.08 329.495 40.08H346.103C348.503 40.08 350.423 38.064 350.423 35.664V15.12C350.423 12.72 352.247 10.8 354.839 10.8C357.239 10.8 359.159 12.72 359.159 15.12V73.68Z" fill="black"/>
<path d="M46.907 32.0976C46.907 35.0736 49.307 37.1856 52.283 37.1856C55.259 37.1856 57.467 35.0736 57.467 32.0976V27.8736C57.467 26.7216 57.083 25.2816 56.027 24.2256L47.963 16.3536C47.003 15.2976 45.755 14.7216 44.315 14.7216H27.323C25.883 14.7216 24.539 15.2976 23.675 16.3536L15.611 24.2256C14.555 25.2816 14.075 26.7216 14.075 27.8736V40.4496C14.075 41.6976 14.555 42.9456 15.611 44.0976L23.675 52.3536C24.539 53.3136 25.787 53.7936 27.323 53.7936H41.339C41.819 53.7936 42.299 53.9856 42.875 54.4656L46.331 57.9216C46.715 58.4016 46.907 58.9776 46.907 59.6496V65.6976C46.907 66.1776 46.715 66.9456 46.331 67.3296L42.875 70.6896C42.395 71.1696 41.915 71.3616 41.339 71.3616H30.299C29.723 71.3616 29.243 71.1696 28.763 70.6896L25.307 67.3296C24.827 66.8496 24.635 66.3696 24.635 65.6976V64.6416C24.635 61.8576 22.331 59.8416 19.355 59.8416C16.379 59.8416 14.075 61.8576 14.075 64.6416V68.8656C14.075 70.0176 14.555 71.3616 15.611 72.4176L23.675 80.2896C24.539 81.3456 25.883 81.9216 27.323 81.9216H44.315C45.755 81.9216 47.003 81.3456 47.963 80.2896L56.027 72.4176C57.083 71.3616 57.467 70.0176 57.467 68.8656V56.4816C57.467 55.0416 56.987 53.8896 56.027 52.9296L47.963 44.6736C47.003 43.7136 45.755 43.2336 44.315 43.2336H30.299C29.819 43.2336 29.339 43.0416 28.763 42.5616L25.307 39.0096C24.827 38.5296 24.635 38.0496 24.635 37.3776V30.9456C24.635 30.3696 24.827 29.8896 25.307 29.4096L28.763 25.9536C29.243 25.4736 29.723 25.2816 30.299 25.2816H41.339C41.915 25.2816 42.395 25.4736 42.875 25.9536L46.331 29.4096C46.715 29.7936 46.907 30.2736 46.907 30.9456V32.0976ZM86.0413 59.0736C86.0413 57.2496 87.3853 55.8096 89.2093 55.8096H105.625C107.161 55.8096 108.409 55.2336 109.369 54.1776L117.433 46.3056C118.393 45.2496 118.873 44.0016 118.873 42.5616V27.8736C118.873 26.7216 118.489 25.2816 117.433 24.2256L109.369 16.3536C108.409 15.2976 107.161 14.7216 105.625 14.7216H80.7613C77.7853 14.7216 75.4813 17.0256 75.4813 20.0016V76.9296C75.4813 79.9056 77.7853 82.1136 80.7613 82.1136C83.7373 82.1136 86.0413 79.9056 86.0413 76.9296V59.0736ZM89.2093 45.2496C87.3853 45.2496 86.0413 43.8096 86.0413 41.9856V28.5456C86.0413 26.7216 87.3853 25.2816 89.2093 25.2816H102.649C103.321 25.2816 103.897 25.4736 104.377 25.9536L107.737 29.4096C108.121 29.8896 108.313 30.4656 108.313 30.9456V39.5856C108.313 40.0656 108.121 40.6416 107.737 41.1216L104.377 44.5776C103.897 45.0576 103.321 45.2496 102.649 45.2496H89.2093ZM147.448 19.9056C147.448 16.9296 145.144 14.7216 142.168 14.7216C139.192 14.7216 136.888 16.9296 136.888 19.9056V76.6416C136.888 79.6176 139.192 81.9216 142.168 81.9216H175.192C178.168 81.9216 180.28 79.6176 180.28 76.6416C180.28 73.6656 178.168 71.3616 175.192 71.3616H150.712C148.888 71.3616 147.448 69.9216 147.448 68.0976V19.9056ZM241.686 29.8896C241.686 28.4496 241.206 27.2976 240.15 26.2416L230.262 16.2576C229.206 15.2016 228.054 14.7216 226.71 14.7216H213.366C211.926 14.7216 210.774 15.2976 209.814 16.3536L199.83 26.2416C198.774 27.2976 198.294 28.4496 198.294 29.8896V76.7376C198.294 79.7136 200.598 81.9216 203.574 81.9216C206.55 81.9216 208.854 79.7136 208.854 76.7376V58.9776C208.854 57.1536 210.198 55.7136 212.022 55.7136H227.958C229.782 55.7136 231.126 57.1536 231.126 58.9776V76.7376C231.126 79.7136 233.526 81.9216 236.502 81.9216C239.478 81.9216 241.686 79.7136 241.686 76.7376V29.8896ZM231.126 41.8896C231.126 43.7136 229.782 45.1536 227.958 45.1536H212.022C210.198 45.1536 208.854 43.7136 208.854 41.8896V32.8656C208.854 32.1936 209.046 31.7136 209.526 31.2336L214.806 25.9536C215.286 25.4736 215.862 25.2816 216.534 25.2816H223.542C224.214 25.2816 224.694 25.4736 225.174 25.9536L230.55 31.2336C230.934 31.6176 231.126 32.1936 231.126 32.8656V41.8896ZM292.532 32.0976C292.532 35.0736 294.932 37.1856 297.908 37.1856C300.884 37.1856 303.092 35.0736 303.092 32.0976V27.8736C303.092 26.7216 302.708 25.2816 301.652 24.2256L293.588 16.3536C292.628 15.2976 291.38 14.7216 289.94 14.7216H272.948C271.508 14.7216 270.164 15.2976 269.3 16.3536L261.236 24.2256C260.18 25.2816 259.7 26.7216 259.7 27.8736V40.4496C259.7 41.6976 260.18 42.9456 261.236 44.0976L269.3 52.3536C270.164 53.3136 271.412 53.7936 272.948 53.7936H286.964C287.444 53.7936 287.924 53.9856 288.5 54.4656L291.956 57.9216C292.34 58.4016 292.532 58.9776 292.532 59.6496V65.6976C292.532 66.1776 292.34 66.9456 291.956 67.3296L288.5 70.6896C288.02 71.1696 287.54 71.3616 286.964 71.3616H275.924C275.348 71.3616 274.868 71.1696 274.388 70.6896L270.932 67.3296C270.452 66.8496 270.26 66.3696 270.26 65.6976V64.6416C270.26 61.8576 267.956 59.8416 264.98 59.8416C262.004 59.8416 259.7 61.8576 259.7 64.6416V68.8656C259.7 70.0176 260.18 71.3616 261.236 72.4176L269.3 80.2896C270.164 81.3456 271.508 81.9216 272.948 81.9216H289.94C291.38 81.9216 292.628 81.3456 293.588 80.2896L301.652 72.4176C302.708 71.3616 303.092 70.0176 303.092 68.8656V56.4816C303.092 55.0416 302.612 53.8896 301.652 52.9296L293.588 44.6736C292.628 43.7136 291.38 43.2336 289.94 43.2336H275.924C275.444 43.2336 274.964 43.0416 274.388 42.5616L270.932 39.0096C270.452 38.5296 270.26 38.0496 270.26 37.3776V30.9456C270.26 30.3696 270.452 29.8896 270.932 29.4096L274.388 25.9536C274.868 25.4736 275.348 25.2816 275.924 25.2816H286.964C287.54 25.2816 288.02 25.4736 288.5 25.9536L291.956 29.4096C292.34 29.7936 292.532 30.2736 292.532 30.9456V32.0976ZM364.498 19.9056C364.498 16.9296 362.29 14.7216 359.314 14.7216C356.242 14.7216 353.938 16.9296 353.938 19.9056V39.8736C353.938 41.6976 352.594 43.2336 350.77 43.2336H334.834C333.01 43.2336 331.666 41.6976 331.666 39.8736V19.9056C331.666 16.9296 329.362 14.7216 326.386 14.7216C323.41 14.7216 321.106 16.9296 321.106 19.9056V76.7376C321.106 79.7136 323.41 81.9216 326.386 81.9216C329.362 81.9216 331.666 79.7136 331.666 76.7376V56.7696C331.666 54.9456 333.01 53.4096 334.834 53.4096H350.77C352.594 53.4096 353.938 54.9456 353.938 56.7696V76.7376C353.938 79.7136 356.242 81.9216 359.314 81.9216C362.29 81.9216 364.498 79.7136 364.498 76.7376V19.9056Z" fill="#1C1C1C"/>
</g>
<defs>
<clipPath id="clip0_19_8">
<rect width="379" height="100" fill="white"/>
</clipPath>
</defs>
</svg>
