<svg width="208" height="50" viewBox="0 0 208 50" fill="none" xmlns="http://www.w3.org/2000/svg">
<path d="M53.9729 36.3203C53.9728 36.4717 53.9357 36.6209 53.8647 36.7546C53.8153 36.8203 53.7713 36.886 53.7239 36.9522C50.3528 41.6341 45.6925 45.2342 40.3111 47.3137C39.6372 47.5736 38.9518 47.8091 38.2548 48.0202L38.1466 48.0533C29.6581 47.8117 29.8246 40.4941 31.6329 34.0481C31.9209 33.0215 32.25 32.0165 32.5934 31.0665C32.733 31.301 32.9102 31.511 33.118 31.688C33.5281 32.0383 34.0953 32.2927 34.873 32.3851C35.4316 32.4458 35.9954 32.4405 36.5528 32.3693C39.7642 31.9963 42.6752 30.1208 45.7527 35.2739C46.4281 36.4053 47.9824 37.1647 49.9028 36.8425C50.7954 36.492 51.6591 36.0723 52.4863 35.5871C52.5485 35.5511 52.6103 35.5145 52.6715 35.477C52.8124 35.4142 52.9667 35.3877 53.1204 35.3997C53.2741 35.4118 53.4224 35.4621 53.5518 35.546C53.6811 35.63 53.7874 35.7449 53.861 35.8804C53.9347 36.0159 53.9733 36.1676 53.9734 36.3218L53.9729 36.3203Z" fill="url(#paint0_linear_27_15075)"/>
<path d="M21.2723 14.4996C16.8336 16.2916 12.0037 18.6789 7.54232 19.1695C2.70496 19.7006 1.21833 15.8691 0.803314 12.7467C0.813195 12.7047 0.823076 12.6627 0.833946 12.6202C1.02367 11.8369 1.24435 11.0665 1.49599 10.309C2.15404 8.32161 3.02189 6.41001 4.08487 4.6065C6.34471 2.38718 9.22311 0.615473 12.606 0.71725C19.3706 0.920309 16.6158 5.9543 18.2308 10.5728C18.6518 11.7753 19.3672 12.9502 20.6261 14.004C20.8281 14.1725 21.0425 14.338 21.2723 14.4996Z" fill="url(#paint1_linear_27_15075)"/>
<g style="mix-blend-mode:multiply" opacity="0.2">
<path d="M40.3111 47.3127C39.6372 47.5726 38.9518 47.8081 38.2548 48.0192L38.1466 48.0523C29.6581 47.8107 29.8246 40.4932 31.6329 34.0472C31.9209 33.0205 32.25 32.0156 32.5934 31.0655C32.733 31.3001 32.9102 31.5101 33.118 31.687C33.5281 32.0373 34.0953 32.2918 34.873 32.3841C35.4316 32.4448 35.9954 32.4395 36.5528 32.3683C35.5864 34.2581 33.747 38.4413 34.1319 42.2649C34.4644 45.5425 37.6525 46.8834 40.3111 47.3127Z" fill="#7554FA"/>
</g>
<g style="mix-blend-mode:multiply" opacity="0.2">
<path d="M21.2723 14.4996C16.8336 16.2916 12.0037 18.6789 7.54232 19.1695C2.70496 19.7006 1.21833 15.8691 0.803314 12.7467C0.813195 12.7047 0.823076 12.6627 0.833946 12.6202C1.02367 11.8369 1.24435 11.0665 1.49599 10.309C1.72523 12.1241 2.52265 16.3395 4.98159 16.4669C7.81059 16.6152 14.4216 14.6483 18.2313 10.5723C18.6523 11.7748 19.3677 12.9497 20.6265 14.0036C20.8281 14.1725 21.0425 14.338 21.2723 14.4996Z" fill="#7554FA"/>
</g>
<path d="M48.58 21.5038C48.8444 19.7029 47.5987 18.0286 45.7977 17.7643C43.9968 17.4999 42.3225 18.7456 42.0582 20.5466C41.7938 22.3475 43.0395 24.0218 44.8405 24.2862C46.6414 24.5505 48.3157 23.3048 48.58 21.5038Z" fill="url(#paint2_linear_27_15075)"/>
<path d="M40.3447 9.47945C40.3447 9.69443 40.2809 9.90458 40.1615 10.0833C40.0421 10.2621 39.8723 10.4014 39.6737 10.4836C39.4751 10.5659 39.2565 10.5874 39.0457 10.5455C38.8348 10.5036 38.6412 10.4 38.4892 10.248C38.3372 10.096 38.2336 9.90235 38.1917 9.6915C38.1498 9.48066 38.1713 9.26211 38.2535 9.0635C38.3358 8.86489 38.4751 8.69513 38.6539 8.5757C38.8326 8.45626 39.0428 8.39252 39.2577 8.39252C39.546 8.39252 39.8225 8.50703 40.0263 8.71087C40.2302 8.91471 40.3447 9.19118 40.3447 9.47945Z" fill="url(#paint3_linear_27_15075)"/>
<path d="M38.1457 48.0523C37.8048 48.1541 37.4611 48.2498 37.1146 48.3394C32.8494 49.4395 28.3939 49.5837 24.0665 48.7618C21.7592 46.1433 21.7567 42.1621 20.9741 36.1242C19.739 26.612 13.7519 29.1658 7.0579 28.5053C4.49421 28.2523 2.43397 27.5532 0.867796 26.7874C-0.178852 22.5372 -0.280044 18.109 0.571359 13.8153C0.641845 13.4573 0.719414 13.1013 0.804063 12.7472C1.22056 15.8692 2.70521 19.7006 7.54306 19.17C12.0044 18.6794 16.8349 16.2921 21.2735 14.5001C22.9326 13.8302 24.5343 13.2432 26.0462 12.8697C27.7546 12.4473 29.3416 12.2971 30.7516 12.6079C36.7406 13.929 36.5647 21.2396 33.3938 28.9904C33.1275 29.6406 32.8568 30.3377 32.5935 31.0655C32.2506 32.0156 31.921 33.0205 31.633 34.0467C29.8238 40.4917 29.6573 47.8112 38.1457 48.0523Z" fill="url(#paint4_linear_27_15075)"/>
<path d="M37.1146 48.3394C32.8494 49.4395 28.3939 49.5837 24.0665 48.7618C21.7592 46.1433 21.7567 42.1621 20.9741 36.1242C19.739 26.612 13.7519 29.1658 7.0579 28.5053C4.49421 28.2523 2.43397 27.5532 0.867796 26.7874C-0.178852 22.5372 -0.280044 18.109 0.571359 13.8153C1.12224 16.7659 2.73238 19.9817 7.19178 19.4921C11.6512 19.0025 16.4836 16.6147 20.9222 14.8227C22.5808 14.1523 24.1855 13.5658 25.6949 13.1923C27.4033 12.7699 28.9903 12.6197 30.4003 12.931C36.3893 14.2521 36.2135 21.5622 33.0426 29.3131C32.7763 29.9633 32.5055 30.6604 32.2422 31.3881C31.8993 32.3387 31.5698 33.3431 31.2817 34.3698C29.5214 40.638 29.3159 47.7332 37.1146 48.3394Z" fill="url(#paint5_linear_27_15075)"/>
<g style="mix-blend-mode:multiply" opacity="0.3">
<path d="M18.3215 14.967C14.6931 16.502 10.9407 18.0885 7.46448 18.4699C7.19857 18.4999 6.9312 18.5153 6.6636 18.5158C3.75605 18.5158 2.01943 16.5435 1.49967 12.6538C1.49967 12.6538 1.348 11.9349 1.3979 10.5787C1.1815 11.2533 0.989802 11.9339 0.822809 12.6207C0.815893 12.6493 0.809468 12.6775 0.802551 12.7062L0.810952 12.7136C0.807988 12.7249 0.805022 12.7363 0.802551 12.7477C1.21954 15.8701 2.7042 19.7016 7.54155 19.1705C12.0029 18.6799 16.8329 16.2926 21.2715 14.5006C21.0418 14.339 20.8269 14.1735 20.6258 14.0065C19.863 14.3158 19.0818 14.6463 18.3215 14.967Z" fill="#7554FA"/>
<path d="M38.1657 47.3493C35.556 47.2752 33.6786 46.4837 32.5828 44.9966C31.7399 43.8514 31.3195 42.2546 31.3318 40.2482C31.3422 38.5941 31.6465 36.6593 32.2364 34.4948C32.2597 34.4094 32.2858 34.3234 32.3081 34.2369C32.5373 33.4178 32.8086 32.5621 33.1159 31.6871C32.908 31.5101 32.7308 31.3001 32.5912 31.0656C32.2478 32.0156 31.9188 33.0206 31.6307 34.0472C29.8225 40.4918 29.6545 47.8108 38.1444 48.0524L38.217 48.0301L38.222 48.0371L38.2536 48.0272C39.0089 47.7986 39.7547 47.5395 40.4912 47.25C39.0683 47.4541 38.1657 47.3493 38.1657 47.3493Z" fill="#7554FA"/>
</g>
<g style="mix-blend-mode:multiply" opacity="0.2">
<path d="M25.1679 48.9564C24.4383 48.8461 23.7137 48.7086 22.994 48.5439C17.8036 47.3495 13.0302 44.7805 9.17432 41.1063C5.31847 37.4322 2.52226 32.7882 1.07892 27.6614C0.914237 27.0764 0.767995 26.487 0.640198 25.8932L0.652055 25.8991L1.16489 26.1501C2.97118 27.0334 4.97312 27.5883 7.11537 27.7997C8.20823 27.9079 9.27343 27.9302 10.5367 27.9302H11.143H11.7329C14.178 27.9302 16.3444 28.0161 18.0979 29.0724C20.0662 30.2582 21.1981 32.4696 21.6596 36.0308C21.8028 37.136 21.9179 38.1553 22.0296 39.1404C22.5187 43.462 22.8413 46.3167 24.5824 48.2939L25.1575 48.9466L25.1679 48.9564Z" fill="#7554FA"/>
</g>
<path d="M24.0666 48.7618C23.7521 48.7015 23.4392 48.6366 23.1279 48.5671C12.4478 46.1699 3.94447 38.0081 1.05965 27.5221C0.993772 27.279 0.929873 27.0348 0.86795 26.7894C2.43413 27.5552 4.49436 28.2543 7.05805 28.5072C13.7521 29.1678 19.7416 26.614 20.9743 36.1262C21.7569 42.1621 21.7593 46.1418 24.0666 48.7618Z" fill="url(#paint6_linear_27_15075)"/>
<path d="M23.1288 48.5691C12.4477 46.1699 3.94437 38.008 1.05954 27.5221C2.53431 28.1688 4.38507 28.7271 6.61773 28.9479C13.3118 29.6085 19.3008 27.0542 20.534 36.5664C21.2558 42.1334 21.3141 45.9506 23.1288 48.5691Z" fill="url(#paint7_linear_27_15075)"/>
<path d="M76.6153 37.9095C81.8597 37.9095 86.3982 34.9343 86.3982 30.2445C86.3982 20.9154 72.2281 24.5966 72.2281 19.5539C72.2281 17.5872 74.2452 16.3769 76.5648 16.3769C78.8341 16.3769 80.8512 17.1333 81.9102 19.3017L85.7427 17.1333C84.1794 14.259 81.0529 12.141 76.464 12.141C71.0682 12.141 67.2357 15.3179 67.2357 19.6547C67.2357 29.0847 81.4059 25.1513 81.4059 30.3454C81.4059 32.5138 79.2375 33.6736 76.4136 33.6736C73.6905 33.6736 71.6734 32.7659 70.4127 30.2949L66.5802 32.4129C68.4964 36.0941 72.0263 37.9095 76.6153 37.9095Z" fill="#F9FAFB"/>
<path d="M94.883 48.701V34.2787C96.9002 36.4975 99.9258 37.9599 103.254 37.9599C110.768 37.9599 116.163 32.4129 116.163 24.9496C116.163 17.8898 110.516 12.0401 103.052 12.0401C95.589 12.0401 89.8907 17.5872 89.8907 24.9496V48.701H94.883ZM103.052 33.2702C98.413 33.2702 94.883 29.4881 94.883 25C94.883 20.4616 98.413 16.7803 103.052 16.7803C107.641 16.7803 111.171 20.4616 111.171 25C111.171 29.4881 107.641 33.2702 103.052 33.2702Z" fill="#F9FAFB"/>
<path d="M120.289 1.29907V37.3548H125.281V1.29907H120.289Z" fill="#F9FAFB"/>
<path d="M141.735 37.9599C145.769 37.9599 149.047 36.0437 150.912 33.018V37.3548H155.653V24.9496C155.653 17.5872 149.954 12.0401 142.491 12.0401C134.977 12.0401 129.329 17.8898 129.329 24.9496C129.329 32.1103 134.574 37.9599 141.735 37.9599ZM142.491 33.2197C137.902 33.2197 134.322 29.4881 134.322 25C134.322 20.4616 137.902 16.7299 142.491 16.7299C147.13 16.7299 150.66 20.4616 150.66 25C150.66 29.4881 147.13 33.2197 142.491 33.2197Z" fill="#F9FAFB"/>
<path d="M169.158 37.9095C174.402 37.9095 178.941 34.9343 178.941 30.2445C178.941 20.9154 164.771 24.5966 164.771 19.5539C164.771 17.5872 166.788 16.3769 169.107 16.3769C171.377 16.3769 173.394 17.1333 174.453 19.3017L178.285 17.1333C176.722 14.259 173.595 12.141 169.006 12.141C163.611 12.141 159.778 15.3179 159.778 19.6547C159.778 29.0847 173.948 25.1513 173.948 30.3454C173.948 32.5138 171.78 33.6736 168.956 33.6736C166.233 33.6736 164.216 32.7659 162.955 30.2949L159.123 32.4129C161.039 36.0941 164.569 37.9095 169.158 37.9095Z" fill="#F9FAFB"/>
<path d="M188.434 37.3548V25.1009C188.434 20.3103 191.51 16.7803 195.897 16.7803C200.587 16.7803 203.008 20.5624 203.008 24.9496V37.3548H208V24.4453C208 16.8812 203.915 12.0401 196.654 12.0401C193.326 12.0401 190.35 13.3513 188.434 15.4188V1.29907H183.442V37.3548H188.434Z" fill="#F9FAFB"/>
<defs>
<linearGradient id="paint0_linear_27_15075" x1="45.8668" y1="32.1544" x2="30.1433" y2="45.8957" gradientUnits="userSpaceOnUse">
<stop stop-color="#70DFFD"/>
<stop offset="1" stop-color="#8566FD"/>
</linearGradient>
<linearGradient id="paint1_linear_27_15075" x1="14.2616" y1="0.570514" x2="8.84417" y2="22.5039" gradientUnits="userSpaceOnUse">
<stop stop-color="#70DFFD"/>
<stop offset="1" stop-color="#8566FD"/>
</linearGradient>
<linearGradient id="paint2_linear_27_15075" x1="49.9191" y1="16.391" x2="41.2591" y2="25.1156" gradientUnits="userSpaceOnUse">
<stop stop-color="#70DFFD"/>
<stop offset="1" stop-color="#E7CBFD"/>
</linearGradient>
<linearGradient id="paint3_linear_27_15075" x1="40.774" y1="7.95428" x2="37.9243" y2="10.8253" gradientUnits="userSpaceOnUse">
<stop stop-color="#E7CBFD"/>
<stop offset="1" stop-color="#70DFFD"/>
</linearGradient>
<linearGradient id="paint4_linear_27_15075" x1="39.0667" y1="17.3133" x2="4.44925" y2="40.4359" gradientUnits="userSpaceOnUse">
<stop stop-color="white"/>
<stop offset="1" stop-color="#7554FA"/>
</linearGradient>
<linearGradient id="paint5_linear_27_15075" x1="34.7965" y1="20.4214" x2="7.21056" y2="38.847" gradientUnits="userSpaceOnUse">
<stop stop-color="#E7CBFD"/>
<stop offset="1" stop-color="#8566FD"/>
</linearGradient>
<linearGradient id="paint6_linear_27_15075" x1="23.7677" y1="27.6728" x2="6.32635" y2="43.2639" gradientUnits="userSpaceOnUse">
<stop stop-color="white"/>
<stop offset="1" stop-color="#E7CBFD"/>
</linearGradient>
<linearGradient id="paint7_linear_27_15075" x1="20.2193" y1="30.7799" x2="7.46801" y2="42.1789" gradientUnits="userSpaceOnUse">
<stop stop-color="#E7CBFD"/>
<stop offset="1" stop-color="#8566FD"/>
</linearGradient>
</defs>
</svg>
