<svg width="52" height="58" viewBox="0 0 52 58" fill="none" xmlns="http://www.w3.org/2000/svg">
<path d="M11.6004 38.6C5.4148 38.6 0.400391 33.5856 0.400391 27.4C0.400391 21.6132 4.78907 16.8514 10.4196 16.2615C10.1461 15.2202 10.0004 14.1271 10.0004 13C10.0004 5.93076 15.7311 0.200001 22.8004 0.200001C28.8127 0.200001 33.8568 4.34521 35.2307 9.93359C35.8747 9.8455 36.5322 9.8 37.2004 9.8C45.1533 9.8 51.6004 16.2471 51.6004 24.2C51.6004 32.1529 45.1533 38.6 37.2004 38.6H29.2004V27.1255L33.3377 31.2627C34.5873 32.5124 36.6135 32.5124 37.8631 31.2627C39.1128 30.0131 39.1128 27.9869 37.8631 26.7373L28.2631 17.1373C27.0135 15.8876 24.9873 15.8876 23.7376 17.1373L14.1377 26.7373C12.888 27.9869 12.888 30.0131 14.1377 31.2627C15.3873 32.5124 17.4135 32.5124 18.6631 31.2627L22.8004 27.1255L22.8004 38.6H11.6004Z" fill="#FAFAFA"/>
<path d="M22.8004 38.6H29.2004L29.2004 54.6C29.2004 56.3673 27.7677 57.8 26.0004 57.8C24.2331 57.8 22.8004 56.3673 22.8004 54.6L22.8004 38.6Z" fill="#FAFAFA"/>
</svg>
